<?xml version="1.0" encoding="UTF-8" standalone="no" ?>
<svg xmlns="http://www.w3.org/2000/svg" width="1036" height="537" viewBox="0 0 1036 537">
    <g id="Console_1" data-name="Console 1" transform="translate(-615.139 -292.994)">
        <g id="Rectangle_39" data-name="Rectangle 39">
            <rect id="Rectangle_163" data-name="Rectangle 163" width="1036" height="537" transform="translate(615.139 292.994)" fill="#0c0c0c" />
        </g>
        <g id="Rectangle_40" data-name="Rectangle 40">
            <rect id="Rectangle_164" data-name="Rectangle 164" width="1036" height="51" transform="translate(615.139 292.994)" />
        </g>
        <g id="Rectangle_41" data-name="Rectangle 41">
            <rect id="Rectangle_165" data-name="Rectangle 165" width="25" height="486" transform="translate(1626.139 343.994)" fill="#171717" />
        </g>
        <g id="Line_14" data-name="Line 14">
            <path id="Path_2692" data-name="Path 2692" d="M1617.71,319.079a.791.791,0,0,1-.559-1.349l8.592-8.592a.79.79,0,0,1,1.117,1.117l-8.591,8.592A.792.792,0,0,1,1617.71,319.079Z" fill="#fff" />
        </g>
        <g id="Line_15" data-name="Line 15">
            <path id="Path_2693" data-name="Path 2693" d="M1626.3,319.079a.79.79,0,0,1-.559-.232l-8.592-8.592a.79.79,0,0,1,1.118-1.117l8.591,8.592a.791.791,0,0,1-.558,1.349Z" fill="#fff" />
        </g>
        <g id="Rectangle_27" data-name="Rectangle 27">
            <path id="Path_2694" data-name="Path 2694" d="M1579.984,320.916h-9.967v-9.968h9.967Zm-8.387-1.581h6.807v-6.807H1571.6Z" fill="#fff" />
        </g>
        <g id="Path_34" data-name="Path 34">
            <path id="Path_2695" data-name="Path 2695" d="M1582.064,318.654h-2.87a.79.79,0,0,1,0-1.58h1.29v-6.59H1573.9v1.255a.791.791,0,0,1-1.581,0V308.9h9.75Z" fill="#fff" />
        </g>
        <g id="Line_16" data-name="Line 16">
            <path id="Path_2696" data-name="Path 2696" d="M1536.594,315.593H1523.7a.79.79,0,0,1,0-1.58h12.894a.79.79,0,1,1,0,1.58Z" fill="#fff" />
        </g>
        <g id="Rectangle_42" data-name="Rectangle 42">
            <rect id="Rectangle_166" data-name="Rectangle 166" width="19" height="57" transform="translate(1629.139 375.994)" fill="#4e4e4e" />
        </g>
        <g id="Group_51" data-name="Group 51">
            <g id="Path_6" data-name="Path 6">
                <path id="Path_2697" data-name="Path 2697" d="M1642.652,355.254l-4.014-4.013-4.013,4.013" fill="none" />
            </g>
        </g>
        <g id="Group_52" data-name="Group 52">
            <rect id="Rectangle_43" data-name="Rectangle 43" width="15.672" height="12.644" transform="translate(629.139 305.851)" fill="#8f9297" />
            <rect id="Rectangle_44" data-name="Rectangle 44" width="14.128" height="9.191" transform="translate(629.911 308.452)" />
            <rect id="Rectangle_45" data-name="Rectangle 45" width="14.128" height="0.915" transform="translate(629.911 307.537)" fill="#cacccd" />
            <rect id="Rectangle_46" data-name="Rectangle 46" width="14.128" height="0.915" transform="translate(629.911 306.622)" fill="#d3d9e0" />
            <rect id="Rectangle_47" data-name="Rectangle 47" width="1.01" height="0.915" transform="translate(638.987 306.622)" fill="#687991" />
            <rect id="Rectangle_48" data-name="Rectangle 48" width="1.01" height="0.915" transform="translate(641.008 306.622)" fill="#687991" />
            <rect id="Rectangle_49" data-name="Rectangle 49" width="1.01" height="0.915" transform="translate(643.028 306.622)" fill="#687991" />
            <rect id="Rectangle_50" data-name="Rectangle 50" width="2.106" height="1.053" transform="translate(632.427 310.617)" fill="#fff" />
            <rect id="Rectangle_51" data-name="Rectangle 51" width="1.053" height="1.053" transform="translate(634.395 311.593)" fill="#fff" />
            <rect id="Rectangle_52" data-name="Rectangle 52" width="1.053" height="1.053" transform="translate(634.395 313.636)" fill="#fff" />
            <rect id="Rectangle_53" data-name="Rectangle 53" width="1.053" height="1.053" transform="translate(636.379 311.593)" fill="#fff" />
            <rect id="Rectangle_54" data-name="Rectangle 54" width="1.053" height="1.053" transform="translate(636.379 313.636)" fill="#fff" />
            <rect id="Rectangle_55" data-name="Rectangle 55" width="2.106" height="1.053" transform="translate(632.427 314.702)" fill="#fff" />
            <rect id="Rectangle_56" data-name="Rectangle 56" width="2.106" height="1.053" transform="translate(641.427 314.702)" fill="#fff" />
            <rect id="Rectangle_57" data-name="Rectangle 57" width="1.053" height="3.186" transform="translate(639.417 312.569)" fill="#fff" />
            <rect id="Rectangle_58" data-name="Rectangle 58" width="1.053" height="3.005" transform="translate(638.363 310.617)" fill="#fff" />
            <rect id="Rectangle_59" data-name="Rectangle 59" width="1.053" height="3.109" transform="translate(631.374 311.593)" fill="#fff" />
        </g>
        <g id="Command_Prompt" data-name="Command Prompt" style="mix-blend-mode: normal;isolation: isolate">
            <g id="Group_338" data-name="Group 338" style="mix-blend-mode: normal;isolation: isolate">
                <path id="Path_2698" data-name="Path 2698" d="M668.1,317.583a5.745,5.745,0,0,1-2.707.575,4.367,4.367,0,0,1-3.349-1.347,4.966,4.966,0,0,1-1.258-3.534,5.205,5.205,0,0,1,1.415-3.8,4.8,4.8,0,0,1,3.589-1.449,5.77,5.77,0,0,1,2.31.4v1.224a4.681,4.681,0,0,0-2.324-.588,3.567,3.567,0,0,0-2.738,1.128,4.247,4.247,0,0,0-1.049,3.014,4.04,4.04,0,0,0,.981,2.854,3.337,3.337,0,0,0,2.574,1.063,4.822,4.822,0,0,0,2.556-.656Z" fill="#e1e1e1" />
                <path id="Path_2699" data-name="Path 2699" d="M672.868,318.158a3.245,3.245,0,0,1-2.478-.981,3.632,3.632,0,0,1-.927-2.6,3.788,3.788,0,0,1,.964-2.755,3.466,3.466,0,0,1,2.6-.991,3.143,3.143,0,0,1,2.444.963,3.826,3.826,0,0,1,.878,2.673,3.76,3.76,0,0,1-.947,2.684A3.316,3.316,0,0,1,672.868,318.158Zm.082-6.385a2.133,2.133,0,0,0-1.709.734,3.018,3.018,0,0,0-.629,2.028,2.855,2.855,0,0,0,.636,1.962,2.16,2.16,0,0,0,1.7.717,2.048,2.048,0,0,0,1.671-.7,3.051,3.051,0,0,0,.585-2,3.1,3.1,0,0,0-.585-2.023A2.041,2.041,0,0,0,672.95,311.773Z" fill="#e1e1e1" />
                <path id="Path_2700" data-name="Path 2700" d="M688.084,317.994h-1.121v-4.02a3.031,3.031,0,0,0-.359-1.682,1.36,1.36,0,0,0-1.206-.519,1.494,1.494,0,0,0-1.22.656,2.513,2.513,0,0,0-.5,1.572v3.993h-1.121v-4.157q0-2.064-1.593-2.064a1.472,1.472,0,0,0-1.216.619,2.554,2.554,0,0,0-.479,1.609v3.993h-1.121v-7h1.121V312.1h.027a2.378,2.378,0,0,1,2.174-1.271,2.024,2.024,0,0,1,1.983,1.449,2.5,2.5,0,0,1,2.324-1.449q2.31,0,2.31,2.85Z" fill="#e1e1e1" />
                <path id="Path_2701" data-name="Path 2701" d="M700.143,317.994h-1.121v-4.02a3.04,3.04,0,0,0-.359-1.682,1.362,1.362,0,0,0-1.206-.519,1.5,1.5,0,0,0-1.221.656,2.512,2.512,0,0,0-.5,1.572v3.993h-1.121v-4.157q0-2.064-1.593-2.064a1.475,1.475,0,0,0-1.217.619,2.554,2.554,0,0,0-.478,1.609v3.993H690.2v-7h1.121V312.1h.027a2.377,2.377,0,0,1,2.174-1.271,2.021,2.021,0,0,1,1.982,1.449,2.5,2.5,0,0,1,2.325-1.449q2.31,0,2.31,2.85Z" fill="#e1e1e1" />
                <path id="Path_2702" data-name="Path 2702" d="M707.273,317.994h-1.121V316.9h-.027a2.348,2.348,0,0,1-2.154,1.258,2.3,2.3,0,0,1-1.637-.554,1.919,1.919,0,0,1-.591-1.47q0-1.961,2.31-2.283l2.1-.294q0-1.783-1.443-1.784a3.446,3.446,0,0,0-2.283.861v-1.148a4.333,4.333,0,0,1,2.379-.656q2.468,0,2.468,2.611Zm-1.121-3.541-1.689.232a2.719,2.719,0,0,0-1.175.387,1.109,1.109,0,0,0-.4.98,1.07,1.07,0,0,0,.366.838,1.413,1.413,0,0,0,.974.324,1.8,1.8,0,0,0,1.377-.584,2.086,2.086,0,0,0,.544-1.48Z" fill="#e1e1e1" />
                <path id="Path_2703" data-name="Path 2703" d="M715.2,317.994h-1.121V314q0-2.228-1.627-2.228a1.762,1.762,0,0,0-1.391.633,2.34,2.34,0,0,0-.551,1.6v3.993h-1.121v-7h1.121v1.162h.028a2.526,2.526,0,0,1,2.3-1.326,2.138,2.138,0,0,1,1.756.742,3.3,3.3,0,0,1,.609,2.142Z" fill="#e1e1e1" />
                <path id="Path_2704" data-name="Path 2704" d="M723.283,317.994h-1.121V316.8h-.028a2.587,2.587,0,0,1-2.406,1.354,2.618,2.618,0,0,1-2.109-.94,3.858,3.858,0,0,1-.789-2.56,4.194,4.194,0,0,1,.875-2.783,2.885,2.885,0,0,1,2.331-1.045,2.243,2.243,0,0,1,2.1,1.134h.028V307.63h1.121Zm-1.121-3.165V313.8a2,2,0,0,0-.561-1.435,1.879,1.879,0,0,0-1.422-.588,1.937,1.937,0,0,0-1.613.752,3.294,3.294,0,0,0-.588,2.078,2.961,2.961,0,0,0,.564,1.91,1.841,1.841,0,0,0,1.514.7,1.914,1.914,0,0,0,1.521-.676A2.522,2.522,0,0,0,722.162,314.829Z" fill="#e1e1e1" />
                <path id="Path_2705" data-name="Path 2705" d="M730.686,314.289v3.7h-1.148v-9.8h2.693a3.553,3.553,0,0,1,2.437.766,2.731,2.731,0,0,1,.865,2.16,2.974,2.974,0,0,1-.961,2.283,3.667,3.667,0,0,1-2.594.889Zm0-5.059v4.02h1.2a2.7,2.7,0,0,0,1.815-.543,1.928,1.928,0,0,0,.626-1.536q0-1.941-2.3-1.941Z" fill="#e1e1e1" />
                <path id="Path_2706" data-name="Path 2706" d="M740.878,312.128a1.37,1.37,0,0,0-.847-.225,1.428,1.428,0,0,0-1.2.677,3.129,3.129,0,0,0-.482,1.845v3.569h-1.121v-7h1.121v1.442h.027a2.445,2.445,0,0,1,.732-1.151,1.661,1.661,0,0,1,1.1-.414,1.846,1.846,0,0,1,.67.1Z" fill="#e1e1e1" />
                <path id="Path_2707" data-name="Path 2707" d="M745.021,318.158a3.247,3.247,0,0,1-2.478-.981,3.631,3.631,0,0,1-.926-2.6,3.784,3.784,0,0,1,.964-2.755,3.462,3.462,0,0,1,2.6-.991,3.141,3.141,0,0,1,2.444.963,3.826,3.826,0,0,1,.878,2.673,3.764,3.764,0,0,1-.946,2.684A3.32,3.32,0,0,1,745.021,318.158Zm.082-6.385a2.134,2.134,0,0,0-1.709.734,3.024,3.024,0,0,0-.629,2.028,2.855,2.855,0,0,0,.636,1.962,2.162,2.162,0,0,0,1.7.717,2.045,2.045,0,0,0,1.671-.7,3.051,3.051,0,0,0,.585-2,3.1,3.1,0,0,0-.585-2.023A2.038,2.038,0,0,0,745.1,311.773Z" fill="#e1e1e1" />
                <path id="Path_2708" data-name="Path 2708" d="M760.238,317.994h-1.121v-4.02a3.039,3.039,0,0,0-.359-1.682,1.362,1.362,0,0,0-1.207-.519,1.5,1.5,0,0,0-1.22.656,2.512,2.512,0,0,0-.5,1.572v3.993h-1.121v-4.157q0-2.064-1.593-2.064a1.475,1.475,0,0,0-1.217.619,2.554,2.554,0,0,0-.479,1.609v3.993H750.3v-7h1.121V312.1h.028a2.376,2.376,0,0,1,2.174-1.271,2.021,2.021,0,0,1,1.982,1.449,2.5,2.5,0,0,1,2.324-1.449q2.312,0,2.311,2.85Z" fill="#e1e1e1" />
                <path id="Path_2709" data-name="Path 2709" d="M763.505,316.982h-.027v4.231h-1.121V310.994h1.121v1.23h.027a2.65,2.65,0,0,1,2.42-1.394,2.565,2.565,0,0,1,2.113.939,3.9,3.9,0,0,1,.758,2.52,4.334,4.334,0,0,1-.854,2.812,2.844,2.844,0,0,1-2.338,1.057A2.343,2.343,0,0,1,763.505,316.982Zm-.027-2.823v.977a2.078,2.078,0,0,0,.564,1.473,2.012,2.012,0,0,0,3.028-.174,3.568,3.568,0,0,0,.578-2.167,2.822,2.822,0,0,0-.54-1.832,1.788,1.788,0,0,0-1.463-.663,1.986,1.986,0,0,0-1.572.68A2.5,2.5,0,0,0,763.478,314.159Z" fill="#e1e1e1" />
                <path id="Path_2710" data-name="Path 2710" d="M773.834,317.925a2.154,2.154,0,0,1-1.045.219q-1.84,0-1.839-2.051v-4.142h-1.2v-.957h1.2v-1.709l1.121-.363v2.072h1.763v.957h-1.763v3.944a1.63,1.63,0,0,0,.239,1.005.957.957,0,0,0,.793.3,1.17,1.17,0,0,0,.731-.233Z" fill="#e1e1e1" />
            </g>
        </g>
        <g id="C:_Users_wajah_source_repos_apimatic-code_APIMatic.CodeGen_APIMatic.TestConsole_bin_Debug_n_etccoreapp3.1_MdNotesCCG_TS_GENERIC_LIB_npm_version_V14.17" data-name="C: Users wajah source repos apimatic-code APIMatic.CodeGen APIMatic.TestConsole bin Debug n etccoreapp3.1 MdNotesCCG TS GENERIC LIB npm version V14.17" style="mix-blend-mode: normal;isolation: isolate">
            <g id="Group_339" data-name="Group 339" style="mix-blend-mode: normal;isolation: isolate">
                <path id="Path_2711" data-name="Path 2711" d="M642.37,371.539a7.9,7.9,0,0,1-3.052.6,5.028,5.028,0,0,1-3.947-1.535,6.6,6.6,0,0,1-1.378-4.541,8.534,8.534,0,0,1,.38-2.635,5.722,5.722,0,0,1,1.085-2,4.772,4.772,0,0,1,1.708-1.265,5.463,5.463,0,0,1,2.245-.446,8.047,8.047,0,0,1,1.568.144,6.508,6.508,0,0,1,1.391.44v1.623a6.223,6.223,0,0,0-1.364-.552,5.976,5.976,0,0,0-1.54-.19,3.64,3.64,0,0,0-1.545.32,3.213,3.213,0,0,0-1.173.928,4.335,4.335,0,0,0-.742,1.484,7.054,7.054,0,0,0-.26,2,5.6,5.6,0,0,0,.956,3.553,3.368,3.368,0,0,0,2.8,1.2,6.042,6.042,0,0,0,1.494-.181,6.894,6.894,0,0,0,1.373-.506Z" fill="#fff" />
                <path id="Path_2712" data-name="Path 2712" d="M648.809,362.512a1.333,1.333,0,0,1,.547.116,1.492,1.492,0,0,1,.766.766,1.37,1.37,0,0,1,0,1.1,1.54,1.54,0,0,1-.311.45,1.455,1.455,0,0,1-.455.307,1.418,1.418,0,0,1-1.1,0,1.471,1.471,0,0,1-.756-.757,1.415,1.415,0,0,1,0-1.1,1.444,1.444,0,0,1,.307-.455,1.53,1.53,0,0,1,.449-.311A1.327,1.327,0,0,1,648.809,362.512Zm0,6.8a1.333,1.333,0,0,1,.547.116,1.5,1.5,0,0,1,.455.312,1.52,1.52,0,0,1,.311.454,1.37,1.37,0,0,1,0,1.1,1.571,1.571,0,0,1-.311.451,1.449,1.449,0,0,1-.455.305,1.407,1.407,0,0,1-1.1,0,1.458,1.458,0,0,1-.449-.305,1.484,1.484,0,0,1-.307-.451,1.415,1.415,0,0,1,0-1.1,1.439,1.439,0,0,1,.307-.454,1.515,1.515,0,0,1,.449-.312A1.327,1.327,0,0,1,648.809,369.312Z" fill="#fff" />
                <path id="Path_2713" data-name="Path 2713" d="M663.42,373.988h-1.54l-6.364-15.1h1.54Z" fill="#fff" />
                <path id="Path_2714" data-name="Path 2714" d="M673.9,363.58a4.076,4.076,0,0,1-.279,1.469,3.631,3.631,0,0,1-.862,1.3,4.392,4.392,0,0,1-1.494.933,5.938,5.938,0,0,1-2.171.356h-1.5v4.352h-1.651V359.869h3.414a7.315,7.315,0,0,1,1.725.2,4.185,4.185,0,0,1,1.453.644,3.253,3.253,0,0,1,1,1.151A3.652,3.652,0,0,1,673.9,363.58Zm-1.717.074a2.174,2.174,0,0,0-.765-1.791,3.306,3.306,0,0,0-2.138-.621h-1.689v4.99h1.54a3.513,3.513,0,0,0,2.259-.64A2.341,2.341,0,0,0,672.187,363.654Z" fill="#fff" />
                <path id="Path_2715" data-name="Path 2715" d="M676.789,362.679h1.475l.047,1.717a5.954,5.954,0,0,1,1.628-1.438,3.3,3.3,0,0,1,1.619-.446,2.638,2.638,0,0,1,2.193.937,4.183,4.183,0,0,1,.692,2.783H682.81a3.05,3.05,0,0,0-.357-1.776,1.288,1.288,0,0,0-1.127-.552,1.972,1.972,0,0,0-.655.116,2.624,2.624,0,0,0-.676.371,6.067,6.067,0,0,0-.738.653,12.291,12.291,0,0,0-.835.965v5.985h-1.633Z" fill="#fff" />
                <path id="Path_2716" data-name="Path 2716" d="M694.963,367.262a6.175,6.175,0,0,1-.306,1.99,4.423,4.423,0,0,1-.881,1.549,3.935,3.935,0,0,1-1.4,1,4.664,4.664,0,0,1-1.874.358,4.893,4.893,0,0,1-1.795-.311,3.548,3.548,0,0,1-1.345-.914,4.043,4.043,0,0,1-.845-1.493,6.6,6.6,0,0,1-.292-2.051,6.083,6.083,0,0,1,.306-1.98,4.422,4.422,0,0,1,.882-1.54,3.947,3.947,0,0,1,1.4-1,4.666,4.666,0,0,1,1.875-.358,4.9,4.9,0,0,1,1.795.311,3.591,3.591,0,0,1,1.345.909,4,4,0,0,1,.844,1.489A6.541,6.541,0,0,1,694.963,367.262Zm-1.651.074a5.341,5.341,0,0,0-.19-1.507,3.055,3.055,0,0,0-.543-1.077,2.25,2.25,0,0,0-.858-.649,2.825,2.825,0,0,0-1.127-.218,2.546,2.546,0,0,0-1.239.283,2.457,2.457,0,0,0-.844.756,3.252,3.252,0,0,0-.482,1.1,5.453,5.453,0,0,0-.154,1.312,5.4,5.4,0,0,0,.191,1.513,3.011,3.011,0,0,0,.542,1.08,2.243,2.243,0,0,0,.854.65,2.815,2.815,0,0,0,1.132.217,2.537,2.537,0,0,0,1.239-.282,2.436,2.436,0,0,0,.843-.757,3.234,3.234,0,0,0,.483-1.1A5.564,5.564,0,0,0,693.312,367.336Z" fill="#fff" />
                <path id="Path_2717" data-name="Path 2717" d="M703.61,362.679v9.148a5.006,5.006,0,0,1-.278,1.73,3.488,3.488,0,0,1-.8,1.276,3.379,3.379,0,0,1-1.276.788,5.061,5.061,0,0,1-1.7.269,7.157,7.157,0,0,1-1.341-.125,5.917,5.917,0,0,1-1.183-.348v-1.541a5.19,5.19,0,0,0,.617.27,6.254,6.254,0,0,0,.678.2,6.052,6.052,0,0,0,1.386.167,2.126,2.126,0,0,0,1.661-.668,2.844,2.844,0,0,0,.6-1.967v-7.867h-4.564v-1.336Zm-.974-3.906a1.283,1.283,0,0,1,.5.1,1.233,1.233,0,0,1,.4.273,1.3,1.3,0,0,1,.268.408,1.249,1.249,0,0,1,.1.492,1.232,1.232,0,0,1-.1.5,1.308,1.308,0,0,1-.268.4,1.232,1.232,0,0,1-.4.273,1.329,1.329,0,0,1-1,0,1.221,1.221,0,0,1-.4-.273,1.328,1.328,0,0,1-.269-.4,1.248,1.248,0,0,1-.1-.5,1.266,1.266,0,0,1,.1-.492,1.322,1.322,0,0,1,.269-.408,1.222,1.222,0,0,1,.4-.273A1.275,1.275,0,0,1,702.636,358.773Z" fill="#fff" />
                <path id="Path_2718" data-name="Path 2718" d="M715.615,366.845c0,.229,0,.42-.01.574s-.015.3-.027.437h-6.541a2.9,2.9,0,0,0,.8,2.194,3.2,3.2,0,0,0,2.3.766q.408,0,.816-.033t.789-.088q.379-.056.728-.125t.645-.153v1.327a11.389,11.389,0,0,1-1.489.3,12.328,12.328,0,0,1-1.721.117,5.84,5.84,0,0,1-2.06-.326,3.5,3.5,0,0,1-1.415-.941,3.9,3.9,0,0,1-.816-1.512,7.161,7.161,0,0,1-.264-2.027,6.043,6.043,0,0,1,.282-1.86,4.66,4.66,0,0,1,.827-1.54,3.914,3.914,0,0,1,3.121-1.443,4.566,4.566,0,0,1,1.726.306,3.475,3.475,0,0,1,1.266.868,3.686,3.686,0,0,1,.779,1.363A5.7,5.7,0,0,1,715.615,366.845Zm-1.679-.232a3.54,3.54,0,0,0-.121-1.137,2.4,2.4,0,0,0-.459-.886,2.163,2.163,0,0,0-.775-.58,2.621,2.621,0,0,0-1.076-.208,2.263,2.263,0,0,0-.965.2,2.19,2.19,0,0,0-.751.577,2.944,2.944,0,0,0-.511.89,4.1,4.1,0,0,0-.241,1.141Z" fill="#fff" />
                <path id="Path_2719" data-name="Path 2719" d="M725.43,371.65a6.954,6.954,0,0,1-1.294.357,7.963,7.963,0,0,1-1.368.117,4.59,4.59,0,0,1-3.4-1.2,4.752,4.752,0,0,1-1.193-3.5,5.581,5.581,0,0,1,.344-2,4.466,4.466,0,0,1,.964-1.54,4.263,4.263,0,0,1,1.485-.988,5.058,5.058,0,0,1,1.9-.348,8.377,8.377,0,0,1,1.354.1,5.529,5.529,0,0,1,1.206.334v1.539a5.166,5.166,0,0,0-1.229-.459,5.754,5.754,0,0,0-1.294-.144,2.943,2.943,0,0,0-1.174.237,2.86,2.86,0,0,0-.969.682,3.23,3.23,0,0,0-.659,1.085,4.079,4.079,0,0,0-.241,1.448,3.48,3.48,0,0,0,.821,2.528,3.04,3.04,0,0,0,2.277.84,5.434,5.434,0,0,0,1.276-.149,5.348,5.348,0,0,0,1.192-.445Z" fill="#fff" />
                <path id="Path_2720" data-name="Path 2720" d="M736.146,371.864a7.845,7.845,0,0,1-1.132.2,11.632,11.632,0,0,1-1.188.061,3.758,3.758,0,0,1-2.616-.793,3.157,3.157,0,0,1-.863-2.436v-4.861H727.74v-1.355h2.607v-2.56l1.614-.418v2.978h4.185v1.355h-4.185v4.731a1.947,1.947,0,0,0,.534,1.5,2.231,2.231,0,0,0,1.572.5,7.411,7.411,0,0,0,.975-.069,9.21,9.21,0,0,0,1.1-.218Z" fill="#fff" />
                <path id="Path_2721" data-name="Path 2721" d="M746.462,369.452a2.218,2.218,0,0,1-.167.881,2.286,2.286,0,0,1-.455.691,2.819,2.819,0,0,1-.668.515,4.57,4.57,0,0,1-.811.353,5.421,5.421,0,0,1-.886.2,6.2,6.2,0,0,1-.891.066,17.2,17.2,0,0,1-1.74-.083,11.883,11.883,0,0,1-1.553-.27v-1.484a12.91,12.91,0,0,0,1.623.352,10.9,10.9,0,0,0,1.6.12,3.606,3.606,0,0,0,1.716-.314.989.989,0,0,0,.557-.9,1.106,1.106,0,0,0-.088-.451,1.039,1.039,0,0,0-.32-.38,3.049,3.049,0,0,0-.719-.376q-.487-.193-1.332-.445a9.507,9.507,0,0,1-1.164-.422,3.891,3.891,0,0,1-.923-.561,2.4,2.4,0,0,1-.612-.761,2.232,2.232,0,0,1-.223-1.03,2.363,2.363,0,0,1,.181-.854,2.317,2.317,0,0,1,.617-.862,3.428,3.428,0,0,1,1.178-.663,5.568,5.568,0,0,1,1.856-.265c.364,0,.77.021,1.215.061a12.524,12.524,0,0,1,1.392.208v1.438a13.065,13.065,0,0,0-1.443-.273,9.362,9.362,0,0,0-1.183-.089,4.64,4.64,0,0,0-1.016.094,2.056,2.056,0,0,0-.667.255.994.994,0,0,0-.367.379,1.022,1.022,0,0,0-.112.469,1.043,1.043,0,0,0,.1.455,1.077,1.077,0,0,0,.362.394,3.563,3.563,0,0,0,.737.381q.474.191,1.234.413a9.868,9.868,0,0,1,1.392.505,3.6,3.6,0,0,1,.918.589,1.89,1.89,0,0,1,.506.733A2.629,2.629,0,0,1,746.462,369.452Z" fill="#fff" />
                <path id="Path_2722" data-name="Path 2722" d="M757.437,373.988H755.9l-6.364-15.1h1.54Z" fill="#fff" />
                <path id="Path_2723" data-name="Path 2723" d="M767.744,368.709a3.134,3.134,0,0,1-.352,1.513,3.071,3.071,0,0,1-.984,1.08,4.538,4.538,0,0,1-1.517.645,8.352,8.352,0,0,1-1.953.214c-.321,0-.641-.013-.96-.037s-.624-.056-.918-.093-.571-.08-.831-.13-.495-.1-.705-.157v-1.6a8.666,8.666,0,0,0,1.563.408,11.777,11.777,0,0,0,1.972.149,6.3,6.3,0,0,0,1.359-.126,2.6,2.6,0,0,0,.918-.371,1.468,1.468,0,0,0,.52-.6,1.91,1.91,0,0,0,.163-.807,1.322,1.322,0,0,0-.274-.84,2.729,2.729,0,0,0-.719-.621,6.725,6.725,0,0,0-1.016-.5q-.571-.227-1.164-.468c-.4-.162-.784-.335-1.165-.525a4.756,4.756,0,0,1-1.015-.668,3.06,3.06,0,0,1-.719-.9,2.609,2.609,0,0,1-.274-1.234,3.055,3.055,0,0,1,.26-1.225,2.923,2.923,0,0,1,.807-1.071,4.161,4.161,0,0,1,1.405-.756,6.455,6.455,0,0,1,2.046-.288q.306,0,.663.028t.724.079q.366.051.723.115c.239.044.46.09.664.14v1.484a11.448,11.448,0,0,0-1.429-.31,9.372,9.372,0,0,0-1.382-.107,3.661,3.661,0,0,0-2.088.473,1.482,1.482,0,0,0-.668,1.272,1.336,1.336,0,0,0,.274.843,2.688,2.688,0,0,0,.719.631,6.287,6.287,0,0,0,1.016.506c.381.151.768.308,1.164.469s.784.337,1.165.528a4.693,4.693,0,0,1,1.015.682,3.164,3.164,0,0,1,.719.923A2.685,2.685,0,0,1,767.744,368.709Z" fill="#fff" />
                <path id="Path_2724" data-name="Path 2724" d="M778.71,365.8a10.115,10.115,0,0,1-.134,1.67,6.415,6.415,0,0,1-.432,1.485,5.015,5.015,0,0,1-.77,1.248,4.365,4.365,0,0,1-1.16.96,5.951,5.951,0,0,1-1.595.617,8.933,8.933,0,0,1-2.069.218h-2.6V359.869h3.127a5.6,5.6,0,0,1,4.235,1.461A6.253,6.253,0,0,1,778.71,365.8Zm-1.735.121a8.448,8.448,0,0,0-.241-2.18A3.481,3.481,0,0,0,776,362.3a2.822,2.822,0,0,0-1.234-.793,5.586,5.586,0,0,0-1.744-.246H771.6v9.306h1.233Q776.976,370.565,776.975,365.917Z" fill="#fff" />
                <path id="Path_2725" data-name="Path 2725" d="M789.1,371.994h-2.079l-4.536-5.948v5.948h-1.652V359.869h1.652V365.5l4.444-5.631h1.957l-4.787,5.76Z" fill="#fff" />
                <path id="Path_2726" data-name="Path 2726" d="M798.693,369.452a2.2,2.2,0,0,1-.167.881,2.3,2.3,0,0,1-.454.691,2.84,2.84,0,0,1-.668.515,4.578,4.578,0,0,1-.812.353,5.4,5.4,0,0,1-.886.2,6.2,6.2,0,0,1-.891.066,17.181,17.181,0,0,1-1.739-.083,11.9,11.9,0,0,1-1.554-.27v-1.484a12.928,12.928,0,0,0,1.624.352,10.884,10.884,0,0,0,1.6.12,3.61,3.61,0,0,0,1.717-.314.988.988,0,0,0,.556-.9,1.106,1.106,0,0,0-.088-.451,1.03,1.03,0,0,0-.32-.38,3.049,3.049,0,0,0-.719-.376c-.324-.129-.769-.278-1.331-.445a9.383,9.383,0,0,1-1.164-.422,3.87,3.87,0,0,1-.923-.561,2.42,2.42,0,0,1-.613-.761,2.244,2.244,0,0,1-.222-1.03,2.363,2.363,0,0,1,.181-.854,2.313,2.313,0,0,1,.616-.862,3.433,3.433,0,0,1,1.179-.663,5.562,5.562,0,0,1,1.855-.265q.547,0,1.215.061a12.456,12.456,0,0,1,1.392.208v1.438a13.022,13.022,0,0,0-1.443-.273,9.348,9.348,0,0,0-1.182-.089,4.634,4.634,0,0,0-1.016.094,2.072,2.072,0,0,0-.668.255,1,1,0,0,0-.367.379,1.021,1.021,0,0,0-.111.469,1.057,1.057,0,0,0,.1.455,1.1,1.1,0,0,0,.362.394,3.548,3.548,0,0,0,.738.381q.473.191,1.234.413a9.806,9.806,0,0,1,1.391.505,3.623,3.623,0,0,1,.919.589,1.9,1.9,0,0,1,.506.733A2.652,2.652,0,0,1,798.693,369.452Z" fill="#fff" />
                <path id="Path_2727" data-name="Path 2727" d="M809.668,373.988h-1.54l-6.364-15.1h1.54Z" fill="#fff" />
            </g>
            <text id="V14.17.2" transform="translate(633.139 397.994)" fill="#fff" font-size="19" font-family="Consolas" style="mix-blend-mode: normal;isolation: isolate"><tspan x="0" y="0">V14.17.2</tspan></text>
            <g id="Group_340" data-name="Group 340" style="mix-blend-mode: normal;isolation: isolate">
                <path id="Path_2728" data-name="Path 2728" d="M642.37,438.539a7.9,7.9,0,0,1-3.052.6,5.028,5.028,0,0,1-3.947-1.535,6.6,6.6,0,0,1-1.378-4.541,8.534,8.534,0,0,1,.38-2.635,5.722,5.722,0,0,1,1.085-2,4.772,4.772,0,0,1,1.708-1.265,5.463,5.463,0,0,1,2.245-.446,8.047,8.047,0,0,1,1.568.144,6.508,6.508,0,0,1,1.391.44v1.623a6.223,6.223,0,0,0-1.364-.552,5.976,5.976,0,0,0-1.54-.19,3.64,3.64,0,0,0-1.545.32,3.213,3.213,0,0,0-1.173.928,4.335,4.335,0,0,0-.742,1.484,7.054,7.054,0,0,0-.26,2,5.6,5.6,0,0,0,.956,3.553,3.368,3.368,0,0,0,2.8,1.2,6.042,6.042,0,0,0,1.494-.181,6.894,6.894,0,0,0,1.373-.506Z" fill="#fff" />
                <path id="Path_2729" data-name="Path 2729" d="M648.809,429.512a1.333,1.333,0,0,1,.547.116,1.492,1.492,0,0,1,.766.766,1.37,1.37,0,0,1,0,1.1,1.54,1.54,0,0,1-.311.45,1.455,1.455,0,0,1-.455.307,1.418,1.418,0,0,1-1.1,0,1.471,1.471,0,0,1-.756-.757,1.415,1.415,0,0,1,0-1.1,1.444,1.444,0,0,1,.307-.455,1.53,1.53,0,0,1,.449-.311A1.327,1.327,0,0,1,648.809,429.512Zm0,6.8a1.333,1.333,0,0,1,.547.116,1.5,1.5,0,0,1,.455.312,1.52,1.52,0,0,1,.311.454,1.37,1.37,0,0,1,0,1.1,1.571,1.571,0,0,1-.311.451,1.449,1.449,0,0,1-.455.305,1.407,1.407,0,0,1-1.1,0,1.458,1.458,0,0,1-.449-.305,1.484,1.484,0,0,1-.307-.451,1.415,1.415,0,0,1,0-1.1,1.439,1.439,0,0,1,.307-.454,1.515,1.515,0,0,1,.449-.312A1.327,1.327,0,0,1,648.809,436.312Z" fill="#fff" />
                <path id="Path_2730" data-name="Path 2730" d="M663.42,440.988h-1.54l-6.364-15.1h1.54Z" fill="#fff" />
                <path id="Path_2731" data-name="Path 2731" d="M673.9,430.58a4.076,4.076,0,0,1-.279,1.469,3.631,3.631,0,0,1-.862,1.3,4.392,4.392,0,0,1-1.494.933,5.938,5.938,0,0,1-2.171.356h-1.5v4.352h-1.651V426.869h3.414a7.315,7.315,0,0,1,1.725.2,4.185,4.185,0,0,1,1.453.644,3.253,3.253,0,0,1,1,1.151A3.652,3.652,0,0,1,673.9,430.58Zm-1.717.074a2.174,2.174,0,0,0-.765-1.791,3.306,3.306,0,0,0-2.138-.621h-1.689v4.99h1.54a3.513,3.513,0,0,0,2.259-.64A2.341,2.341,0,0,0,672.187,430.654Z" fill="#fff" />
                <path id="Path_2732" data-name="Path 2732" d="M676.789,429.679h1.475l.047,1.717a5.954,5.954,0,0,1,1.628-1.438,3.3,3.3,0,0,1,1.619-.446,2.638,2.638,0,0,1,2.193.937,4.183,4.183,0,0,1,.692,2.783H682.81a3.05,3.05,0,0,0-.357-1.776,1.288,1.288,0,0,0-1.127-.552,1.972,1.972,0,0,0-.655.116,2.624,2.624,0,0,0-.676.371,6.067,6.067,0,0,0-.738.653,12.291,12.291,0,0,0-.835.965v5.985h-1.633Z" fill="#fff" />
                <path id="Path_2733" data-name="Path 2733" d="M694.963,434.262a6.175,6.175,0,0,1-.306,1.99,4.423,4.423,0,0,1-.881,1.549,3.935,3.935,0,0,1-1.4,1,4.664,4.664,0,0,1-1.874.358,4.893,4.893,0,0,1-1.795-.311,3.548,3.548,0,0,1-1.345-.914,4.043,4.043,0,0,1-.845-1.493,6.6,6.6,0,0,1-.292-2.051,6.083,6.083,0,0,1,.306-1.98,4.422,4.422,0,0,1,.882-1.54,3.947,3.947,0,0,1,1.4-1,4.666,4.666,0,0,1,1.875-.358,4.9,4.9,0,0,1,1.795.311,3.591,3.591,0,0,1,1.345.909,4,4,0,0,1,.844,1.489A6.541,6.541,0,0,1,694.963,434.262Zm-1.651.074a5.341,5.341,0,0,0-.19-1.507,3.055,3.055,0,0,0-.543-1.077,2.25,2.25,0,0,0-.858-.649,2.825,2.825,0,0,0-1.127-.218,2.546,2.546,0,0,0-1.239.283,2.457,2.457,0,0,0-.844.756,3.252,3.252,0,0,0-.482,1.1,5.453,5.453,0,0,0-.154,1.312,5.4,5.4,0,0,0,.191,1.513,3.011,3.011,0,0,0,.542,1.08,2.243,2.243,0,0,0,.854.65,2.815,2.815,0,0,0,1.132.217,2.537,2.537,0,0,0,1.239-.282,2.436,2.436,0,0,0,.843-.757,3.234,3.234,0,0,0,.483-1.1A5.564,5.564,0,0,0,693.312,434.336Z" fill="#fff" />
                <path id="Path_2734" data-name="Path 2734" d="M703.61,429.679v9.148a5.006,5.006,0,0,1-.278,1.73,3.488,3.488,0,0,1-.8,1.276,3.379,3.379,0,0,1-1.276.788,5.061,5.061,0,0,1-1.7.269,7.157,7.157,0,0,1-1.341-.125,5.917,5.917,0,0,1-1.183-.348v-1.541a5.19,5.19,0,0,0,.617.27,6.254,6.254,0,0,0,.678.2,6.052,6.052,0,0,0,1.386.167,2.126,2.126,0,0,0,1.661-.668,2.844,2.844,0,0,0,.6-1.967v-7.867h-4.564v-1.336Zm-.974-3.906a1.283,1.283,0,0,1,.5.1,1.233,1.233,0,0,1,.4.273,1.3,1.3,0,0,1,.268.408,1.249,1.249,0,0,1,.1.492,1.232,1.232,0,0,1-.1.5,1.308,1.308,0,0,1-.268.4,1.232,1.232,0,0,1-.4.273,1.329,1.329,0,0,1-1,0,1.221,1.221,0,0,1-.4-.273,1.328,1.328,0,0,1-.269-.4,1.248,1.248,0,0,1-.1-.5,1.266,1.266,0,0,1,.1-.492,1.322,1.322,0,0,1,.269-.408,1.222,1.222,0,0,1,.4-.273A1.275,1.275,0,0,1,702.636,425.773Z" fill="#fff" />
                <path id="Path_2735" data-name="Path 2735" d="M715.615,433.845c0,.229,0,.42-.01.574s-.015.3-.027.437h-6.541a2.9,2.9,0,0,0,.8,2.194,3.2,3.2,0,0,0,2.3.766q.408,0,.816-.033t.789-.088q.379-.056.728-.125t.645-.153v1.327a11.389,11.389,0,0,1-1.489.3,12.328,12.328,0,0,1-1.721.117,5.84,5.84,0,0,1-2.06-.326,3.5,3.5,0,0,1-1.415-.941,3.9,3.9,0,0,1-.816-1.512,7.161,7.161,0,0,1-.264-2.027,6.043,6.043,0,0,1,.282-1.86,4.66,4.66,0,0,1,.827-1.54,3.914,3.914,0,0,1,3.121-1.443,4.566,4.566,0,0,1,1.726.306,3.475,3.475,0,0,1,1.266.868,3.686,3.686,0,0,1,.779,1.363A5.7,5.7,0,0,1,715.615,433.845Zm-1.679-.232a3.54,3.54,0,0,0-.121-1.137,2.4,2.4,0,0,0-.459-.886,2.163,2.163,0,0,0-.775-.58,2.621,2.621,0,0,0-1.076-.208,2.263,2.263,0,0,0-.965.2,2.19,2.19,0,0,0-.751.577,2.944,2.944,0,0,0-.511.89,4.1,4.1,0,0,0-.241,1.141Z" fill="#fff" />
                <path id="Path_2736" data-name="Path 2736" d="M725.43,438.65a6.954,6.954,0,0,1-1.294.357,7.963,7.963,0,0,1-1.368.117,4.59,4.59,0,0,1-3.4-1.2,4.752,4.752,0,0,1-1.193-3.5,5.581,5.581,0,0,1,.344-2,4.466,4.466,0,0,1,.964-1.54,4.263,4.263,0,0,1,1.485-.988,5.058,5.058,0,0,1,1.9-.348,8.377,8.377,0,0,1,1.354.1,5.529,5.529,0,0,1,1.206.334v1.539a5.166,5.166,0,0,0-1.229-.459,5.754,5.754,0,0,0-1.294-.144,2.943,2.943,0,0,0-1.174.237,2.86,2.86,0,0,0-.969.682,3.23,3.23,0,0,0-.659,1.085,4.079,4.079,0,0,0-.241,1.448,3.48,3.48,0,0,0,.821,2.528,3.04,3.04,0,0,0,2.277.84,5.434,5.434,0,0,0,1.276-.149,5.348,5.348,0,0,0,1.192-.445Z" fill="#fff" />
                <path id="Path_2737" data-name="Path 2737" d="M736.146,438.864a7.845,7.845,0,0,1-1.132.2,11.632,11.632,0,0,1-1.188.061,3.758,3.758,0,0,1-2.616-.793,3.157,3.157,0,0,1-.863-2.436v-4.861H727.74v-1.355h2.607v-2.56l1.614-.418v2.978h4.185v1.355h-4.185v4.731a1.947,1.947,0,0,0,.534,1.5,2.231,2.231,0,0,0,1.572.5,7.411,7.411,0,0,0,.975-.069,9.21,9.21,0,0,0,1.1-.218Z" fill="#fff" />
                <path id="Path_2738" data-name="Path 2738" d="M746.462,436.452a2.218,2.218,0,0,1-.167.881,2.286,2.286,0,0,1-.455.691,2.819,2.819,0,0,1-.668.515,4.57,4.57,0,0,1-.811.353,5.421,5.421,0,0,1-.886.2,6.2,6.2,0,0,1-.891.066,17.2,17.2,0,0,1-1.74-.083,11.883,11.883,0,0,1-1.553-.27v-1.484a12.91,12.91,0,0,0,1.623.352,10.9,10.9,0,0,0,1.6.12,3.606,3.606,0,0,0,1.716-.314.989.989,0,0,0,.557-.9,1.106,1.106,0,0,0-.088-.451,1.039,1.039,0,0,0-.32-.38,3.049,3.049,0,0,0-.719-.376q-.487-.193-1.332-.445a9.507,9.507,0,0,1-1.164-.422,3.891,3.891,0,0,1-.923-.561,2.4,2.4,0,0,1-.612-.761,2.232,2.232,0,0,1-.223-1.03,2.363,2.363,0,0,1,.181-.854,2.317,2.317,0,0,1,.617-.862,3.428,3.428,0,0,1,1.178-.663,5.568,5.568,0,0,1,1.856-.265c.364,0,.77.021,1.215.061a12.524,12.524,0,0,1,1.392.208v1.438a13.065,13.065,0,0,0-1.443-.273,9.362,9.362,0,0,0-1.183-.089,4.64,4.64,0,0,0-1.016.094,2.056,2.056,0,0,0-.667.255.994.994,0,0,0-.367.379,1.022,1.022,0,0,0-.112.469,1.043,1.043,0,0,0,.1.455,1.077,1.077,0,0,0,.362.394,3.563,3.563,0,0,0,.737.381q.474.191,1.234.413a9.868,9.868,0,0,1,1.392.505,3.6,3.6,0,0,1,.918.589,1.89,1.89,0,0,1,.506.733A2.629,2.629,0,0,1,746.462,436.452Z" fill="#fff" />
                <path id="Path_2739" data-name="Path 2739" d="M757.437,440.988H755.9l-6.364-15.1h1.54Z" fill="#fff" />
                <path id="Path_2740" data-name="Path 2740" d="M767.744,435.709a3.134,3.134,0,0,1-.352,1.513,3.071,3.071,0,0,1-.984,1.08,4.538,4.538,0,0,1-1.517.645,8.352,8.352,0,0,1-1.953.214c-.321,0-.641-.013-.96-.037s-.624-.056-.918-.093-.571-.08-.831-.13-.495-.1-.705-.157v-1.6a8.666,8.666,0,0,0,1.563.408,11.777,11.777,0,0,0,1.972.149,6.3,6.3,0,0,0,1.359-.126,2.6,2.6,0,0,0,.918-.371,1.468,1.468,0,0,0,.52-.6,1.91,1.91,0,0,0,.163-.807,1.322,1.322,0,0,0-.274-.84,2.729,2.729,0,0,0-.719-.621,6.725,6.725,0,0,0-1.016-.5q-.571-.227-1.164-.468c-.4-.162-.784-.335-1.165-.525a4.756,4.756,0,0,1-1.015-.668,3.06,3.06,0,0,1-.719-.9,2.609,2.609,0,0,1-.274-1.234,3.055,3.055,0,0,1,.26-1.225,2.923,2.923,0,0,1,.807-1.071,4.161,4.161,0,0,1,1.405-.756,6.455,6.455,0,0,1,2.046-.288q.306,0,.663.028t.724.079q.366.051.723.115c.239.044.46.09.664.14v1.484a11.448,11.448,0,0,0-1.429-.31,9.372,9.372,0,0,0-1.382-.107,3.661,3.661,0,0,0-2.088.473,1.482,1.482,0,0,0-.668,1.272,1.336,1.336,0,0,0,.274.843,2.688,2.688,0,0,0,.719.631,6.287,6.287,0,0,0,1.016.506c.381.151.768.308,1.164.469s.784.337,1.165.528a4.693,4.693,0,0,1,1.015.682,3.164,3.164,0,0,1,.719.923A2.685,2.685,0,0,1,767.744,435.709Z" fill="#fff" />
                <path id="Path_2741" data-name="Path 2741" d="M778.71,432.8a10.115,10.115,0,0,1-.134,1.67,6.415,6.415,0,0,1-.432,1.485,5.015,5.015,0,0,1-.77,1.248,4.365,4.365,0,0,1-1.16.96,5.951,5.951,0,0,1-1.595.617,8.933,8.933,0,0,1-2.069.218h-2.6V426.869h3.127a5.6,5.6,0,0,1,4.235,1.461A6.253,6.253,0,0,1,778.71,432.8Zm-1.735.121a8.448,8.448,0,0,0-.241-2.18A3.481,3.481,0,0,0,776,429.3a2.822,2.822,0,0,0-1.234-.793,5.586,5.586,0,0,0-1.744-.246H771.6v9.306h1.233Q776.976,437.565,776.975,432.917Z" fill="#fff" />
                <path id="Path_2742" data-name="Path 2742" d="M789.1,438.994h-2.079l-4.536-5.948v5.948h-1.652V426.869h1.652V432.5l4.444-5.631h1.957l-4.787,5.76Z" fill="#fff" />
                <path id="Path_2743" data-name="Path 2743" d="M798.693,436.452a2.2,2.2,0,0,1-.167.881,2.3,2.3,0,0,1-.454.691,2.84,2.84,0,0,1-.668.515,4.578,4.578,0,0,1-.812.353,5.4,5.4,0,0,1-.886.2,6.2,6.2,0,0,1-.891.066,17.181,17.181,0,0,1-1.739-.083,11.9,11.9,0,0,1-1.554-.27v-1.484a12.928,12.928,0,0,0,1.624.352,10.884,10.884,0,0,0,1.6.12,3.61,3.61,0,0,0,1.717-.314.988.988,0,0,0,.556-.9,1.106,1.106,0,0,0-.088-.451,1.03,1.03,0,0,0-.32-.38,3.049,3.049,0,0,0-.719-.376c-.324-.129-.769-.278-1.331-.445a9.383,9.383,0,0,1-1.164-.422,3.87,3.87,0,0,1-.923-.561,2.42,2.42,0,0,1-.613-.761,2.244,2.244,0,0,1-.222-1.03,2.363,2.363,0,0,1,.181-.854,2.313,2.313,0,0,1,.616-.862,3.433,3.433,0,0,1,1.179-.663,5.562,5.562,0,0,1,1.855-.265q.547,0,1.215.061a12.456,12.456,0,0,1,1.392.208v1.438a13.022,13.022,0,0,0-1.443-.273,9.348,9.348,0,0,0-1.182-.089,4.634,4.634,0,0,0-1.016.094,2.072,2.072,0,0,0-.668.255,1,1,0,0,0-.367.379,1.021,1.021,0,0,0-.111.469,1.057,1.057,0,0,0,.1.455,1.1,1.1,0,0,0,.362.394,3.548,3.548,0,0,0,.738.381q.473.191,1.234.413a9.806,9.806,0,0,1,1.391.505,3.623,3.623,0,0,1,.919.589,1.9,1.9,0,0,1,.506.733A2.652,2.652,0,0,1,798.693,436.452Z" fill="#fff" />
                <path id="Path_2744" data-name="Path 2744" d="M809.668,440.988h-1.54l-6.364-15.1h1.54Z" fill="#fff" />
            </g>
            <text id="_7.20.1" data-name="7.20.1" transform="translate(633.139 464.994)" fill="#fff" font-size="19" font-family="Consolas" style="mix-blend-mode: normal;isolation: isolate"><tspan x="0" y="0">7.20.1</tspan></text>
            <g id="Group_341" data-name="Group 341" style="mix-blend-mode: normal;isolation: isolate">
                <path id="Path_2745" data-name="Path 2745" d="M642.37,501.539a7.9,7.9,0,0,1-3.052.6,5.028,5.028,0,0,1-3.947-1.535,6.6,6.6,0,0,1-1.378-4.541,8.534,8.534,0,0,1,.38-2.635,5.722,5.722,0,0,1,1.085-2,4.772,4.772,0,0,1,1.708-1.265,5.463,5.463,0,0,1,2.245-.446,8.047,8.047,0,0,1,1.568.144,6.508,6.508,0,0,1,1.391.44v1.623a6.223,6.223,0,0,0-1.364-.552,5.976,5.976,0,0,0-1.54-.19,3.64,3.64,0,0,0-1.545.32,3.213,3.213,0,0,0-1.173.928,4.335,4.335,0,0,0-.742,1.484,7.054,7.054,0,0,0-.26,2,5.6,5.6,0,0,0,.956,3.553,3.368,3.368,0,0,0,2.8,1.2,6.042,6.042,0,0,0,1.494-.181,6.894,6.894,0,0,0,1.373-.506Z" fill="#fff" />
                <path id="Path_2746" data-name="Path 2746" d="M648.809,492.512a1.333,1.333,0,0,1,.547.116,1.492,1.492,0,0,1,.766.766,1.37,1.37,0,0,1,0,1.1,1.54,1.54,0,0,1-.311.45,1.455,1.455,0,0,1-.455.307,1.418,1.418,0,0,1-1.1,0,1.471,1.471,0,0,1-.756-.757,1.415,1.415,0,0,1,0-1.1,1.444,1.444,0,0,1,.307-.455,1.53,1.53,0,0,1,.449-.311A1.327,1.327,0,0,1,648.809,492.512Zm0,6.8a1.333,1.333,0,0,1,.547.116,1.5,1.5,0,0,1,.455.312,1.52,1.52,0,0,1,.311.454,1.37,1.37,0,0,1,0,1.1,1.571,1.571,0,0,1-.311.451,1.449,1.449,0,0,1-.455.305,1.407,1.407,0,0,1-1.1,0,1.458,1.458,0,0,1-.449-.305,1.484,1.484,0,0,1-.307-.451,1.415,1.415,0,0,1,0-1.1,1.439,1.439,0,0,1,.307-.454,1.515,1.515,0,0,1,.449-.312A1.327,1.327,0,0,1,648.809,499.312Z" fill="#fff" />
                <path id="Path_2747" data-name="Path 2747" d="M663.42,503.988h-1.54l-6.364-15.1h1.54Z" fill="#fff" />
                <path id="Path_2748" data-name="Path 2748" d="M673.9,493.58a4.076,4.076,0,0,1-.279,1.469,3.631,3.631,0,0,1-.862,1.3,4.392,4.392,0,0,1-1.494.933,5.938,5.938,0,0,1-2.171.356h-1.5v4.352h-1.651V489.869h3.414a7.315,7.315,0,0,1,1.725.2,4.185,4.185,0,0,1,1.453.644,3.253,3.253,0,0,1,1,1.151A3.652,3.652,0,0,1,673.9,493.58Zm-1.717.074a2.174,2.174,0,0,0-.765-1.791,3.306,3.306,0,0,0-2.138-.621h-1.689v4.99h1.54a3.513,3.513,0,0,0,2.259-.64A2.341,2.341,0,0,0,672.187,493.654Z" fill="#fff" />
                <path id="Path_2749" data-name="Path 2749" d="M676.789,492.679h1.475l.047,1.717a5.954,5.954,0,0,1,1.628-1.438,3.3,3.3,0,0,1,1.619-.446,2.638,2.638,0,0,1,2.193.937,4.183,4.183,0,0,1,.692,2.783H682.81a3.05,3.05,0,0,0-.357-1.776,1.288,1.288,0,0,0-1.127-.552,1.972,1.972,0,0,0-.655.116,2.624,2.624,0,0,0-.676.371,6.067,6.067,0,0,0-.738.653,12.291,12.291,0,0,0-.835.965v5.985h-1.633Z" fill="#fff" />
                <path id="Path_2750" data-name="Path 2750" d="M694.963,497.262a6.175,6.175,0,0,1-.306,1.99,4.423,4.423,0,0,1-.881,1.549,3.935,3.935,0,0,1-1.4,1,4.664,4.664,0,0,1-1.874.358,4.893,4.893,0,0,1-1.795-.311,3.548,3.548,0,0,1-1.345-.914,4.043,4.043,0,0,1-.845-1.493,6.6,6.6,0,0,1-.292-2.051,6.083,6.083,0,0,1,.306-1.98,4.422,4.422,0,0,1,.882-1.54,3.947,3.947,0,0,1,1.4-1,4.666,4.666,0,0,1,1.875-.358,4.9,4.9,0,0,1,1.795.311,3.591,3.591,0,0,1,1.345.909,4,4,0,0,1,.844,1.489A6.541,6.541,0,0,1,694.963,497.262Zm-1.651.074a5.341,5.341,0,0,0-.19-1.507,3.055,3.055,0,0,0-.543-1.077,2.25,2.25,0,0,0-.858-.649,2.825,2.825,0,0,0-1.127-.218,2.546,2.546,0,0,0-1.239.283,2.457,2.457,0,0,0-.844.756,3.252,3.252,0,0,0-.482,1.1,5.453,5.453,0,0,0-.154,1.312,5.4,5.4,0,0,0,.191,1.513,3.011,3.011,0,0,0,.542,1.08,2.243,2.243,0,0,0,.854.65,2.815,2.815,0,0,0,1.132.217,2.537,2.537,0,0,0,1.239-.282,2.436,2.436,0,0,0,.843-.757,3.234,3.234,0,0,0,.483-1.1A5.564,5.564,0,0,0,693.312,497.336Z" fill="#fff" />
                <path id="Path_2751" data-name="Path 2751" d="M703.61,492.679v9.148a5.006,5.006,0,0,1-.278,1.73,3.488,3.488,0,0,1-.8,1.276,3.379,3.379,0,0,1-1.276.788,5.061,5.061,0,0,1-1.7.269,7.157,7.157,0,0,1-1.341-.125,5.917,5.917,0,0,1-1.183-.348v-1.541a5.19,5.19,0,0,0,.617.27,6.254,6.254,0,0,0,.678.2,6.052,6.052,0,0,0,1.386.167,2.126,2.126,0,0,0,1.661-.668,2.844,2.844,0,0,0,.6-1.967v-7.867h-4.564v-1.336Zm-.974-3.906a1.283,1.283,0,0,1,.5.1,1.233,1.233,0,0,1,.4.273,1.3,1.3,0,0,1,.268.408,1.249,1.249,0,0,1,.1.492,1.232,1.232,0,0,1-.1.5,1.308,1.308,0,0,1-.268.4,1.232,1.232,0,0,1-.4.273,1.329,1.329,0,0,1-1,0,1.221,1.221,0,0,1-.4-.273,1.328,1.328,0,0,1-.269-.4,1.248,1.248,0,0,1-.1-.5,1.266,1.266,0,0,1,.1-.492,1.322,1.322,0,0,1,.269-.408,1.222,1.222,0,0,1,.4-.273A1.275,1.275,0,0,1,702.636,488.773Z" fill="#fff" />
                <path id="Path_2752" data-name="Path 2752" d="M715.615,496.845c0,.229,0,.42-.01.574s-.015.3-.027.437h-6.541a2.9,2.9,0,0,0,.8,2.194,3.2,3.2,0,0,0,2.3.766q.408,0,.816-.033t.789-.088q.379-.056.728-.125t.645-.153v1.327a11.389,11.389,0,0,1-1.489.3,12.328,12.328,0,0,1-1.721.117,5.84,5.84,0,0,1-2.06-.326,3.5,3.5,0,0,1-1.415-.941,3.9,3.9,0,0,1-.816-1.512,7.161,7.161,0,0,1-.264-2.027,6.043,6.043,0,0,1,.282-1.86,4.66,4.66,0,0,1,.827-1.54,3.914,3.914,0,0,1,3.121-1.443,4.566,4.566,0,0,1,1.726.306,3.475,3.475,0,0,1,1.266.868,3.686,3.686,0,0,1,.779,1.363A5.7,5.7,0,0,1,715.615,496.845Zm-1.679-.232a3.54,3.54,0,0,0-.121-1.137,2.4,2.4,0,0,0-.459-.886,2.163,2.163,0,0,0-.775-.58,2.621,2.621,0,0,0-1.076-.208,2.263,2.263,0,0,0-.965.2,2.19,2.19,0,0,0-.751.577,2.944,2.944,0,0,0-.511.89,4.1,4.1,0,0,0-.241,1.141Z" fill="#fff" />
                <path id="Path_2753" data-name="Path 2753" d="M725.43,501.65a6.954,6.954,0,0,1-1.294.357,7.963,7.963,0,0,1-1.368.117,4.59,4.59,0,0,1-3.4-1.2,4.752,4.752,0,0,1-1.193-3.5,5.581,5.581,0,0,1,.344-2,4.466,4.466,0,0,1,.964-1.54,4.263,4.263,0,0,1,1.485-.988,5.058,5.058,0,0,1,1.9-.348,8.377,8.377,0,0,1,1.354.1,5.529,5.529,0,0,1,1.206.334v1.539a5.166,5.166,0,0,0-1.229-.459,5.754,5.754,0,0,0-1.294-.144,2.943,2.943,0,0,0-1.174.237,2.86,2.86,0,0,0-.969.682,3.23,3.23,0,0,0-.659,1.085,4.079,4.079,0,0,0-.241,1.448,3.48,3.48,0,0,0,.821,2.528,3.04,3.04,0,0,0,2.277.84,5.434,5.434,0,0,0,1.276-.149,5.348,5.348,0,0,0,1.192-.445Z" fill="#fff" />
                <path id="Path_2754" data-name="Path 2754" d="M736.146,501.864a7.845,7.845,0,0,1-1.132.2,11.632,11.632,0,0,1-1.188.061,3.758,3.758,0,0,1-2.616-.793,3.157,3.157,0,0,1-.863-2.436v-4.861H727.74v-1.355h2.607v-2.56l1.614-.418v2.978h4.185v1.355h-4.185v4.731a1.947,1.947,0,0,0,.534,1.5,2.231,2.231,0,0,0,1.572.5,7.411,7.411,0,0,0,.975-.069,9.21,9.21,0,0,0,1.1-.218Z" fill="#fff" />
                <path id="Path_2755" data-name="Path 2755" d="M746.462,499.452a2.218,2.218,0,0,1-.167.881,2.286,2.286,0,0,1-.455.691,2.819,2.819,0,0,1-.668.515,4.57,4.57,0,0,1-.811.353,5.421,5.421,0,0,1-.886.2,6.2,6.2,0,0,1-.891.066,17.2,17.2,0,0,1-1.74-.083,11.883,11.883,0,0,1-1.553-.27v-1.484a12.91,12.91,0,0,0,1.623.352,10.9,10.9,0,0,0,1.6.12,3.606,3.606,0,0,0,1.716-.314.989.989,0,0,0,.557-.9,1.106,1.106,0,0,0-.088-.451,1.039,1.039,0,0,0-.32-.38,3.049,3.049,0,0,0-.719-.376q-.487-.193-1.332-.445a9.507,9.507,0,0,1-1.164-.422,3.891,3.891,0,0,1-.923-.561,2.4,2.4,0,0,1-.612-.761,2.232,2.232,0,0,1-.223-1.03,2.363,2.363,0,0,1,.181-.854,2.317,2.317,0,0,1,.617-.862,3.428,3.428,0,0,1,1.178-.663,5.568,5.568,0,0,1,1.856-.265c.364,0,.77.021,1.215.061a12.524,12.524,0,0,1,1.392.208v1.438a13.065,13.065,0,0,0-1.443-.273,9.362,9.362,0,0,0-1.183-.089,4.64,4.64,0,0,0-1.016.094,2.056,2.056,0,0,0-.667.255.994.994,0,0,0-.367.379,1.022,1.022,0,0,0-.112.469,1.043,1.043,0,0,0,.1.455,1.077,1.077,0,0,0,.362.394,3.563,3.563,0,0,0,.737.381q.474.191,1.234.413a9.868,9.868,0,0,1,1.392.505,3.6,3.6,0,0,1,.918.589,1.89,1.89,0,0,1,.506.733A2.629,2.629,0,0,1,746.462,499.452Z" fill="#fff" />
                <path id="Path_2756" data-name="Path 2756" d="M757.437,503.988H755.9l-6.364-15.1h1.54Z" fill="#fff" />
                <path id="Path_2757" data-name="Path 2757" d="M767.744,498.709a3.134,3.134,0,0,1-.352,1.513,3.071,3.071,0,0,1-.984,1.08,4.538,4.538,0,0,1-1.517.645,8.352,8.352,0,0,1-1.953.214c-.321,0-.641-.013-.96-.037s-.624-.056-.918-.093-.571-.08-.831-.13-.495-.1-.705-.157v-1.6a8.666,8.666,0,0,0,1.563.408,11.777,11.777,0,0,0,1.972.149,6.3,6.3,0,0,0,1.359-.126,2.6,2.6,0,0,0,.918-.371,1.468,1.468,0,0,0,.52-.6,1.91,1.91,0,0,0,.163-.807,1.322,1.322,0,0,0-.274-.84,2.729,2.729,0,0,0-.719-.621,6.725,6.725,0,0,0-1.016-.5q-.571-.227-1.164-.468c-.4-.162-.784-.335-1.165-.525a4.756,4.756,0,0,1-1.015-.668,3.06,3.06,0,0,1-.719-.9,2.609,2.609,0,0,1-.274-1.234,3.055,3.055,0,0,1,.26-1.225,2.923,2.923,0,0,1,.807-1.071,4.161,4.161,0,0,1,1.405-.756,6.455,6.455,0,0,1,2.046-.288q.306,0,.663.028t.724.079q.366.051.723.115c.239.044.46.09.664.14v1.484a11.448,11.448,0,0,0-1.429-.31,9.372,9.372,0,0,0-1.382-.107,3.661,3.661,0,0,0-2.088.473,1.482,1.482,0,0,0-.668,1.272,1.336,1.336,0,0,0,.274.843,2.688,2.688,0,0,0,.719.631,6.287,6.287,0,0,0,1.016.506c.381.151.768.308,1.164.469s.784.337,1.165.528a4.693,4.693,0,0,1,1.015.682,3.164,3.164,0,0,1,.719.923A2.685,2.685,0,0,1,767.744,498.709Z" fill="#fff" />
                <path id="Path_2758" data-name="Path 2758" d="M778.71,495.8a10.115,10.115,0,0,1-.134,1.67,6.415,6.415,0,0,1-.432,1.485,5.015,5.015,0,0,1-.77,1.248,4.365,4.365,0,0,1-1.16.96,5.951,5.951,0,0,1-1.595.617,8.933,8.933,0,0,1-2.069.218h-2.6V489.869h3.127a5.6,5.6,0,0,1,4.235,1.461A6.253,6.253,0,0,1,778.71,495.8Zm-1.735.121a8.448,8.448,0,0,0-.241-2.18A3.481,3.481,0,0,0,776,492.3a2.822,2.822,0,0,0-1.234-.793,5.586,5.586,0,0,0-1.744-.246H771.6v9.306h1.233Q776.976,500.565,776.975,495.917Z" fill="#fff" />
                <path id="Path_2759" data-name="Path 2759" d="M789.1,501.994h-2.079l-4.536-5.948v5.948h-1.652V489.869h1.652V495.5l4.444-5.631h1.957l-4.787,5.76Z" fill="#fff" />
                <path id="Path_2760" data-name="Path 2760" d="M798.693,499.452a2.2,2.2,0,0,1-.167.881,2.3,2.3,0,0,1-.454.691,2.84,2.84,0,0,1-.668.515,4.578,4.578,0,0,1-.812.353,5.4,5.4,0,0,1-.886.2,6.2,6.2,0,0,1-.891.066,17.181,17.181,0,0,1-1.739-.083,11.9,11.9,0,0,1-1.554-.27v-1.484a12.928,12.928,0,0,0,1.624.352,10.884,10.884,0,0,0,1.6.12,3.61,3.61,0,0,0,1.717-.314.988.988,0,0,0,.556-.9,1.106,1.106,0,0,0-.088-.451,1.03,1.03,0,0,0-.32-.38,3.049,3.049,0,0,0-.719-.376c-.324-.129-.769-.278-1.331-.445a9.383,9.383,0,0,1-1.164-.422,3.87,3.87,0,0,1-.923-.561,2.42,2.42,0,0,1-.613-.761,2.244,2.244,0,0,1-.222-1.03,2.363,2.363,0,0,1,.181-.854,2.313,2.313,0,0,1,.616-.862,3.433,3.433,0,0,1,1.179-.663,5.562,5.562,0,0,1,1.855-.265q.547,0,1.215.061a12.456,12.456,0,0,1,1.392.208v1.438a13.022,13.022,0,0,0-1.443-.273,9.348,9.348,0,0,0-1.182-.089,4.634,4.634,0,0,0-1.016.094,2.072,2.072,0,0,0-.668.255,1,1,0,0,0-.367.379,1.021,1.021,0,0,0-.111.469,1.057,1.057,0,0,0,.1.455,1.1,1.1,0,0,0,.362.394,3.548,3.548,0,0,0,.738.381q.473.191,1.234.413a9.806,9.806,0,0,1,1.391.505,3.623,3.623,0,0,1,.919.589,1.9,1.9,0,0,1,.506.733A2.652,2.652,0,0,1,798.693,499.452Z" fill="#fff" />
                <path id="Path_2761" data-name="Path 2761" d="M809.668,503.988h-1.54l-6.364-15.1h1.54Z" fill="#fff" />
            </g>
        </g>
        <text id="Line3" transform="translate(813.139 501.994)" fill="#fff" font-size="19" font-family="Consolas" style="mix-blend-mode: normal;isolation: isolate"><tspan x="0" y="0">BokuDirectPaymentsAP...&gt;</tspan></text>
        <text id="Line2" transform="translate(813.139 438.994)" fill="#fff" font-size="19" font-family="Consolas" style="mix-blend-mode: normal;isolation: isolate"><tspan x="0" y="0">BokuDirectPaymentsAP...&gt;node --version</tspan></text>
        <text id="Line1" transform="translate(813.142 371.668)" fill="#fff" font-size="19" font-family="Consolas"><tspan x="0" y="0">BokuDirectPaymentsAP...&gt;npm --version</tspan></text>
    </g>
</svg>
