    <svg xmlns="http://www.w3.org/2000/svg" xmlns:xlink="http://www.w3.org/1999/xlink" width="1920" height="1080" viewBox="0 0 1920 1080">
        <defs>
            <filter id="a" x="34" y="24.001" width="286" height="540" filterUnits="userSpaceOnUse">
                <feOffset dy="3" input="SourceAlpha" />
                <feGaussianBlur stdDeviation="3" result="b" />
                <feFlood flood-opacity="0.161" />
                <feComposite operator="in" in2="b" />
                <feComposite in="SourceGraphic" />
            </filter>
            <clipPath id="d">
                <rect width="1920" height="1080" />
            </clipPath>
        </defs>
        <g id="c" clip-path="url(#d)">
            <rect width="1920" height="1080" fill="#fff" />
            <g transform="translate(0 0.001)">
                <g transform="translate(703.573 -1331.096)">
                    <rect width="1874" height="35" transform="translate(-657.573 1360.095)" fill="#252527" />
                    <rect width="137" height="35" transform="translate(-661.573 1360.095)" fill="#1e1e1e" />
                    <rect width="1887" height="1018" transform="translate(-670.573 1392.095)" fill="#1e1e1e" />
                    <rect width="46" height="1051" transform="translate(-703.573 1360.095)" fill="#323433" />
                    <text transform="translate(-488.573 1582.095)" fill="#fff" font-size="52" font-family="SegoeUI-Semibold, Segoe UI" font-weight="600">
                        <tspan x="0" y="0">Visual Studio Code</tspan>
                    </text>
                    <rect width="1920" height="30" transform="translate(-703.573 1331.095)" fill="#3c3c3c" />
                    <rect width="1920" height="22" transform="translate(-703.573 2389.095)" fill="#67217a" />
                    <rect width="46" height="22" transform="translate(-703.573 2389.095)" fill="#19805d" />
                    <path d="M-691,1343.36s-.445-.321.089-.749l1.244-1.112a.529.529,0,0,1,.732-.048l11.476,8.688v4.166s-.006.654-.845.582Z" fill="#2489ca" />
                    <path d="M-688.035,1346.05l-2.958,2.689s-.3.226,0,.63l1.373,1.249a.563.563,0,0,0,.407.15.563.563,0,0,0,.393-.185l.011-.013,3.136-2.378Z" fill="#1070b3" />
                    <path d="M-682.842,1346.07l5.425-4.142-.035-4.144s-.232-.9-1-.434l-7.219,6.57Z" fill="#0877b9" />
                    <path d="M-678.3,1354.89a.746.746,0,0,0,.7.217l4.227-2.083a.891.891,0,0,0,.465-.827v-12.439a.834.834,0,0,0-.56-.736l-3.664-1.766a1.019,1.019,0,0,0-1.325.089s.675-.486,1,.434v16.448a.74.74,0,0,1-.072.324c-.1.195-.306.376-.808.3Z" fill="#3c99d4" />
                    <rect width="30" height="30" transform="translate(-659.573 1331.096)" fill="#504f50" />
                    <path d="M-645.43,1373.38s-.367-.265.073-.618l1.026-.918a.437.437,0,0,1,.6-.04l9.472,7.171v3.439s0,.54-.7.48Z" fill="#2489ca" />
                    <path d="M-642.988,1375.6l-2.441,2.22s-.251.187,0,.52l1.133,1.031a.465.465,0,0,0,.335.121.465.465,0,0,0,.323-.151l.009-.01,2.588-1.963Z" fill="#1070b3" />
                    <path d="M-638.7,1375.62l4.477-3.419-.029-3.42s-.191-.746-.829-.358l-5.957,5.423Z" fill="#0877b9" />
                    <path d="M-634.951,1382.9a.614.614,0,0,0,.575.179l3.489-1.719a.735.735,0,0,0,.384-.682V1370.41a.686.686,0,0,0-.462-.607l-3.024-1.458a.841.841,0,0,0-1.094.073s.557-.4.829.358v13.576a.616.616,0,0,1-.06.268c-.079.161-.252.311-.667.248Z" fill="#3c99d4" />
                    <path d="M-648.206,1343.58h-3.281v2.906h3.035v.885h-3.035v3.721h-.984v-8.4h4.265Z" fill="#ddd" />
                    <path d="M-646.249,1343.57a.606.606,0,0,1-.439-.176.592.592,0,0,1-.182-.445.6.6,0,0,1,.182-.448.6.6,0,0,1,.439-.179.624.624,0,0,1,.449.179.6.6,0,0,1,.184.448.594.594,0,0,1-.184.44.617.617,0,0,1-.449.181Zm.469,7.524h-.961v-6h.961Z" fill="#ddd" />
                    <path d="M-642.874,1351.1h-.96v-8.883h.96Z" fill="#ddd" />
                    <path d="M-636.106,1348.34h-4.236a2.24,2.24,0,0,0,.539,1.547,1.859,1.859,0,0,0,1.418.545,2.947,2.947,0,0,0,1.863-.668v.9a3.482,3.482,0,0,1-2.092.574,2.537,2.537,0,0,1-2-.817,3.348,3.348,0,0,1-.726-2.3,3.278,3.278,0,0,1,.794-2.282,2.544,2.544,0,0,1,1.971-.882,2.257,2.257,0,0,1,1.823.762,3.179,3.179,0,0,1,.644,2.115Zm-.984-.815a1.951,1.951,0,0,0-.4-1.294,1.366,1.366,0,0,0-1.1-.463,1.555,1.555,0,0,0-1.155.486,2.214,2.214,0,0,0-.586,1.271Z" fill="#ddd" />
                    <path d="M-612.018,1351.1h-4.453v-8.4h4.265v.891h-3.281v2.8h3.035v.885h-3.035v2.941h3.469Z" fill="#ddd" />
                    <path d="M-605.409,1351.1h-.961v-1.02h-.023a2.217,2.217,0,0,1-2.063,1.16,2.242,2.242,0,0,1-1.807-.8,3.308,3.308,0,0,1-.677-2.2,3.592,3.592,0,0,1,.75-2.384,2.473,2.473,0,0,1,2-.9,1.923,1.923,0,0,1,1.8.973h.023v-3.715h.961Zm-.961-2.713v-.885a1.718,1.718,0,0,0-.48-1.23,1.612,1.612,0,0,0-1.219-.5,1.661,1.661,0,0,0-1.383.644,2.826,2.826,0,0,0-.5,1.781,2.541,2.541,0,0,0,.484,1.638,1.578,1.578,0,0,0,1.3.6,1.641,1.641,0,0,0,1.3-.58,2.162,2.162,0,0,0,.5-1.475Z" fill="#ddd" />
                    <path d="M-602.971,1343.57a.607.607,0,0,1-.44-.176.592.592,0,0,1-.181-.445.6.6,0,0,1,.181-.448.6.6,0,0,1,.44-.179.619.619,0,0,1,.448.179.6.6,0,0,1,.185.448.6.6,0,0,1-.185.44.614.614,0,0,1-.448.181Zm.469,7.524h-.961v-6h.961Z" fill="#ddd" />
                    <path d="M-597.774,1351.04a1.85,1.85,0,0,1-.9.188q-1.577,0-1.577-1.758v-3.551h-1.031v-.82h1.031v-1.465l.961-.311v1.776h1.512v.82h-1.512v3.381a1.406,1.406,0,0,0,.205.861.82.82,0,0,0,.68.258,1.011,1.011,0,0,0,.627-.2Z" fill="#ddd" />
                    <path d="M-578.864,1350.76v-1.16a2.267,2.267,0,0,0,.478.316,3.783,3.783,0,0,0,.586.237,4.551,4.551,0,0,0,.618.15,3.454,3.454,0,0,0,.574.053,2.255,2.255,0,0,0,1.357-.337,1.142,1.142,0,0,0,.448-.97,1.135,1.135,0,0,0-.15-.592,1.672,1.672,0,0,0-.413-.46,4.1,4.1,0,0,0-.624-.4q-.36-.19-.776-.4-.44-.222-.82-.451a3.55,3.55,0,0,1-.663-.5,2.1,2.1,0,0,1-.442-.624,1.937,1.937,0,0,1-.161-.817,1.921,1.921,0,0,1,.252-1,2.163,2.163,0,0,1,.662-.7,2.961,2.961,0,0,1,.935-.41,4.273,4.273,0,0,1,1.069-.135,4.081,4.081,0,0,1,1.81.3v1.107a3.278,3.278,0,0,0-1.91-.516,3.111,3.111,0,0,0-.644.068,1.837,1.837,0,0,0-.574.219,1.287,1.287,0,0,0-.411.393,1.046,1.046,0,0,0-.158.586,1.21,1.21,0,0,0,.12.557,1.372,1.372,0,0,0,.355.427,3.475,3.475,0,0,0,.571.375c.225.121.483.254.776.4s.586.3.856.469a3.922,3.922,0,0,1,.709.544,2.427,2.427,0,0,1,.483.663,1.86,1.86,0,0,1,.179.832,2.108,2.108,0,0,1-.243,1.051,2,2,0,0,1-.656.7,2.885,2.885,0,0,1-.953.389,5.212,5.212,0,0,1-1.136.12,4.541,4.541,0,0,1-.492-.032c-.2-.021-.4-.053-.6-.094a4.732,4.732,0,0,1-.577-.152,1.834,1.834,0,0,1-.435-.206Z" fill="#ddd" />
                    <path d="M-567.4,1348.34h-4.236a2.24,2.24,0,0,0,.539,1.547,1.859,1.859,0,0,0,1.418.545,2.948,2.948,0,0,0,1.863-.668v.9a3.479,3.479,0,0,1-2.092.574,2.536,2.536,0,0,1-2-.817,3.348,3.348,0,0,1-.726-2.3,3.278,3.278,0,0,1,.794-2.282,2.543,2.543,0,0,1,1.971-.882,2.256,2.256,0,0,1,1.823.762,3.18,3.18,0,0,1,.644,2.115Zm-.984-.815a1.951,1.951,0,0,0-.4-1.294,1.364,1.364,0,0,0-1.1-.463,1.555,1.555,0,0,0-1.155.486,2.207,2.207,0,0,0-.585,1.271Z" fill="#ddd" />
                    <path d="M-564.989,1351.1h-.961v-8.883h.961Z" fill="#ddd" />
                    <path d="M-558.221,1348.34h-4.237a2.245,2.245,0,0,0,.54,1.547,1.858,1.858,0,0,0,1.418.545,2.953,2.953,0,0,0,1.863-.668v.9a3.484,3.484,0,0,1-2.092.574,2.534,2.534,0,0,1-2-.817,3.347,3.347,0,0,1-.727-2.3,3.283,3.283,0,0,1,.794-2.282,2.548,2.548,0,0,1,1.972-.882,2.254,2.254,0,0,1,1.822.762,3.175,3.175,0,0,1,.645,2.115Zm-.985-.815a1.946,1.946,0,0,0-.4-1.294,1.367,1.367,0,0,0-1.1-.463,1.553,1.553,0,0,0-1.154.486,2.206,2.206,0,0,0-.586,1.271Z" fill="#ddd" />
                    <path d="M-552.678,1350.82a3.117,3.117,0,0,1-1.641.416,2.715,2.715,0,0,1-2.071-.835,3.022,3.022,0,0,1-.788-2.165,3.329,3.329,0,0,1,.849-2.382,2.976,2.976,0,0,1,2.268-.9,3.156,3.156,0,0,1,1.394.293v.984a2.443,2.443,0,0,0-1.429-.468,1.932,1.932,0,0,0-1.509.659,2.5,2.5,0,0,0-.589,1.731,2.382,2.382,0,0,0,.554,1.664,1.906,1.906,0,0,0,1.485.61,2.4,2.4,0,0,0,1.477-.522Z" fill="#ddd" />
                    <path d="M-548.442,1351.04a1.85,1.85,0,0,1-.9.188q-1.576,0-1.577-1.758v-3.551h-1.031v-.82h1.031v-1.465l.961-.311v1.776h1.512v.82h-1.512v3.381a1.406,1.406,0,0,0,.2.861.82.82,0,0,0,.68.258,1.01,1.01,0,0,0,.627-.2Z" fill="#ddd" />
                    <path d="M-546.667,1343.57a.606.606,0,0,1-.439-.176.592.592,0,0,1-.182-.445.6.6,0,0,1,.182-.448.6.6,0,0,1,.439-.179.624.624,0,0,1,.449.179.6.6,0,0,1,.184.448.594.594,0,0,1-.184.44A.616.616,0,0,1-546.667,1343.57Zm.469,7.524h-.961v-6h.961Z" fill="#ddd" />
                    <path d="M-541.745,1351.24a2.786,2.786,0,0,1-2.124-.84,3.117,3.117,0,0,1-.794-2.23,3.242,3.242,0,0,1,.827-2.361,2.965,2.965,0,0,1,2.232-.85,2.69,2.69,0,0,1,2.1.826,3.277,3.277,0,0,1,.753,2.291,3.224,3.224,0,0,1-.812,2.3,2.843,2.843,0,0,1-2.182.864Zm.071-5.472a1.826,1.826,0,0,0-1.465.63,2.581,2.581,0,0,0-.539,1.737,2.445,2.445,0,0,0,.545,1.682,1.851,1.851,0,0,0,1.459.615,1.754,1.754,0,0,0,1.432-.6,2.617,2.617,0,0,0,.5-1.717,2.662,2.662,0,0,0-.5-1.734,1.748,1.748,0,0,0-1.432-.621Z" fill="#ddd" />
                    <path d="M-532.241,1351.1h-.961v-3.422q0-1.911-1.394-1.91a1.512,1.512,0,0,0-1.193.542,2.009,2.009,0,0,0-.471,1.368v3.422h-.961v-6h.961v1h.023a2.166,2.166,0,0,1,1.969-1.137,1.836,1.836,0,0,1,1.506.636,2.836,2.836,0,0,1,.521,1.837Z" fill="#ddd" />
                    <path d="M-506.225,1342.69l-3.111,8.4h-1.084l-3.047-8.4h1.095l2.327,6.662a4.056,4.056,0,0,1,.17.745h.023a3.655,3.655,0,0,1,.193-.756l2.373-6.651Z" fill="#ddd" />
                    <path d="M-504.655,1343.57a.6.6,0,0,1-.439-.176.592.592,0,0,1-.182-.445.6.6,0,0,1,.182-.448.6.6,0,0,1,.439-.179.621.621,0,0,1,.448.179.594.594,0,0,1,.185.448.591.591,0,0,1-.185.44.614.614,0,0,1-.448.181Zm.469,7.524h-.961v-6h.961Z" fill="#ddd" />
                    <path d="M-497.418,1348.34h-4.237a2.249,2.249,0,0,0,.539,1.547,1.861,1.861,0,0,0,1.418.545,2.953,2.953,0,0,0,1.864-.668v.9a3.484,3.484,0,0,1-2.092.574,2.534,2.534,0,0,1-2-.817,3.343,3.343,0,0,1-.727-2.3,3.283,3.283,0,0,1,.794-2.282,2.547,2.547,0,0,1,1.972-.882,2.255,2.255,0,0,1,1.822.762,3.175,3.175,0,0,1,.645,2.115Zm-.985-.815a1.957,1.957,0,0,0-.4-1.294,1.367,1.367,0,0,0-1.1-.463,1.552,1.552,0,0,0-1.154.486,2.2,2.2,0,0,0-.586,1.271Z" fill="#ddd" />
                    <path d="M-488.407,1345.1l-1.8,6h-1l-1.236-4.3a2.822,2.822,0,0,1-.094-.557h-.023a2.666,2.666,0,0,1-.123.545l-1.342,4.307h-.961l-1.816-6h1.007l1.243,4.511a2.759,2.759,0,0,1,.082.539h.047a2.454,2.454,0,0,1,.105-.55l1.383-4.5h.879l1.242,4.523a3.284,3.284,0,0,1,.088.539h.047a2.482,2.482,0,0,1,.1-.539l1.219-4.523Z" fill="#ddd" />
                    <path d="M-463.19,1350.52a5.613,5.613,0,0,1-2.812.715,3.843,3.843,0,0,1-2.91-1.16,4.255,4.255,0,0,1-1.11-3.07,4.369,4.369,0,0,1,1.233-3.2,4.207,4.207,0,0,1,3.126-1.251,5.316,5.316,0,0,1,2.3.445v1.09a4.421,4.421,0,0,0-2.414-.645,3.016,3.016,0,0,0-2.314.973,3.555,3.555,0,0,0-.9,2.52,3.56,3.56,0,0,0,.838,2.5,2.937,2.937,0,0,0,2.274.912,3.512,3.512,0,0,0,1.7-.393V1347.6h-1.84v-.891h2.824Z" fill="#ddd" />
                    <path d="M-458.86,1351.24a2.783,2.783,0,0,1-2.124-.84,3.117,3.117,0,0,1-.794-2.23,3.246,3.246,0,0,1,.826-2.361,2.969,2.969,0,0,1,2.233-.85,2.688,2.688,0,0,1,2.094.826,3.277,3.277,0,0,1,.753,2.291,3.222,3.222,0,0,1-.811,2.3,2.845,2.845,0,0,1-2.177.864Zm.07-5.472a1.825,1.825,0,0,0-1.464.63,2.581,2.581,0,0,0-.539,1.737,2.45,2.45,0,0,0,.544,1.682,1.854,1.854,0,0,0,1.459.615,1.754,1.754,0,0,0,1.433-.6,2.617,2.617,0,0,0,.5-1.717,2.662,2.662,0,0,0-.5-1.734,1.749,1.749,0,0,0-1.433-.621Z" fill="#ddd" />
                    <path d="M-430.448,1351.1h-1.172l-1.406-2.356a5.082,5.082,0,0,0-.375-.559,2.091,2.091,0,0,0-.372-.378,1.288,1.288,0,0,0-.41-.214,1.685,1.685,0,0,0-.495-.068h-.809v3.575h-.984v-8.4h2.508a3.561,3.561,0,0,1,1.016.138,2.287,2.287,0,0,1,.809.419,1.96,1.96,0,0,1,.536.7,2.323,2.323,0,0,1,.193.982,2.357,2.357,0,0,1-.132.805,2.081,2.081,0,0,1-.375.654,2.29,2.29,0,0,1-.585.489,2.985,2.985,0,0,1-.771.313v.024a1.729,1.729,0,0,1,.366.214,1.971,1.971,0,0,1,.3.284,3.529,3.529,0,0,1,.278.372q.138.208.308.483Zm-5.039-7.512v3.047h1.336a2.035,2.035,0,0,0,.683-.111,1.6,1.6,0,0,0,.542-.32,1.44,1.44,0,0,0,.357-.51,1.7,1.7,0,0,0,.129-.676,1.316,1.316,0,0,0-.436-1.052,1.876,1.876,0,0,0-1.263-.378Z" fill="#ddd" />
                    <path d="M-424.571,1351.1h-.961v-.95h-.023a1.974,1.974,0,0,1-1.852,1.09q-2.143,0-2.144-2.554V1345.1h.955v3.433q0,1.9,1.453,1.9a1.469,1.469,0,0,0,1.157-.519,1.984,1.984,0,0,0,.454-1.356V1345.1h.961Z" fill="#ddd" />
                    <path d="M-417.651,1351.1h-.961v-3.422q0-1.911-1.394-1.91a1.512,1.512,0,0,0-1.193.542,2.009,2.009,0,0,0-.471,1.368v3.422h-.961v-6h.961v1h.023a2.165,2.165,0,0,1,1.969-1.137,1.837,1.837,0,0,1,1.506.636,2.836,2.836,0,0,1,.521,1.837Z" fill="#ddd" />
                    <path d="M-392.5,1343.58h-2.426v7.512h-.985v-7.512h-2.42v-.891h5.831Z" fill="#ddd" />
                    <path d="M-387.663,1348.34H-391.9a2.244,2.244,0,0,0,.539,1.547,1.861,1.861,0,0,0,1.418.545,2.947,2.947,0,0,0,1.863-.668v.9a3.478,3.478,0,0,1-2.091.574,2.534,2.534,0,0,1-2-.817,3.343,3.343,0,0,1-.727-2.3,3.283,3.283,0,0,1,.794-2.282,2.545,2.545,0,0,1,1.972-.882,2.255,2.255,0,0,1,1.822.762,3.175,3.175,0,0,1,.644,2.115Zm-.984-.815a1.957,1.957,0,0,0-.4-1.294,1.367,1.367,0,0,0-1.1-.463,1.552,1.552,0,0,0-1.154.486,2.2,2.2,0,0,0-.586,1.271Z" fill="#ddd" />
                    <path d="M-383.081,1346.07a1.172,1.172,0,0,0-.726-.193,1.225,1.225,0,0,0-1.028.58,2.678,2.678,0,0,0-.414,1.582v3.059h-.96v-6h.96v1.236h.024a2.1,2.1,0,0,1,.627-.987,1.427,1.427,0,0,1,.943-.355,1.578,1.578,0,0,1,.574.082Z" fill="#ddd" />
                    <path d="M-373.518,1351.1h-.961v-3.446a2.6,2.6,0,0,0-.308-1.441,1.165,1.165,0,0,0-1.034-.445,1.28,1.28,0,0,0-1.046.562,2.152,2.152,0,0,0-.43,1.348v3.422h-.961v-3.563q0-1.768-1.366-1.769a1.265,1.265,0,0,0-1.043.53,2.193,2.193,0,0,0-.41,1.38v3.422h-.961v-6h.961v.949h.024a2.038,2.038,0,0,1,1.863-1.09,1.733,1.733,0,0,1,1.072.343,1.718,1.718,0,0,1,.627.9,2.142,2.142,0,0,1,1.992-1.242q1.981,0,1.981,2.443Z" fill="#ddd" />
                    <path d="M-371.209,1343.57a.606.606,0,0,1-.44-.176.592.592,0,0,1-.182-.445.6.6,0,0,1,.182-.448.6.6,0,0,1,.44-.179.622.622,0,0,1,.448.179.6.6,0,0,1,.184.448.594.594,0,0,1-.184.44A.616.616,0,0,1-371.209,1343.57Zm.468,7.524h-.961v-6h.961Z" fill="#ddd" />
                    <path d="M-363.815,1351.1h-.961v-3.422q0-1.911-1.394-1.91a1.512,1.512,0,0,0-1.193.542,2.009,2.009,0,0,0-.471,1.368v3.422h-.961v-6h.961v1h.023a2.165,2.165,0,0,1,1.969-1.137,1.838,1.838,0,0,1,1.506.636,2.835,2.835,0,0,1,.521,1.837Z" fill="#ddd" />
                    <path d="M-357.709,1351.1h-.961v-.938h-.024a2.011,2.011,0,0,1-1.846,1.078,1.975,1.975,0,0,1-1.4-.474,1.646,1.646,0,0,1-.507-1.26q0-1.681,1.981-1.957l1.8-.252q0-1.53-1.237-1.529a2.956,2.956,0,0,0-1.957.738v-.984a3.721,3.721,0,0,1,2.039-.563q2.115,0,2.116,2.238Zm-.961-3.035-1.448.2a2.338,2.338,0,0,0-1.007.331.953.953,0,0,0-.34.841.913.913,0,0,0,.313.717,1.21,1.21,0,0,0,.835.279,1.543,1.543,0,0,0,1.181-.5,1.793,1.793,0,0,0,.466-1.269Z" fill="#ddd" />
                    <path d="M-354.938,1351.1h-.961v-8.883h.961Z" fill="#ddd" />
                    <path d="M-328.155,1351.1h-.984v-3.832h-4.348v3.832h-.984v-8.4h.984v3.686h4.348V1342.7h.984Z" fill="#ddd" />
                    <path d="M-321.258,1348.34h-4.237a2.249,2.249,0,0,0,.539,1.547,1.861,1.861,0,0,0,1.418.545,2.954,2.954,0,0,0,1.864-.668v.9a3.484,3.484,0,0,1-2.092.574,2.534,2.534,0,0,1-2-.817,3.343,3.343,0,0,1-.727-2.3,3.283,3.283,0,0,1,.794-2.282,2.548,2.548,0,0,1,1.972-.882,2.255,2.255,0,0,1,1.822.762,3.174,3.174,0,0,1,.645,2.115Zm-.985-.815a1.951,1.951,0,0,0-.4-1.294,1.367,1.367,0,0,0-1.1-.463,1.553,1.553,0,0,0-1.154.486,2.207,2.207,0,0,0-.586,1.271Z" fill="#ddd" />
                    <path d="M-318.844,1351.1h-.961v-8.883h.961Z" fill="#ddd" />
                    <path d="M-315.915,1350.23h-.023v3.626h-.961V1345.1h.961v1.054h.023a2.275,2.275,0,0,1,2.075-1.2,2.2,2.2,0,0,1,1.81.806,3.335,3.335,0,0,1,.651,2.159,3.719,3.719,0,0,1-.733,2.411,2.435,2.435,0,0,1-2,.9,2.009,2.009,0,0,1-1.8-1Zm-.023-2.42v.837a1.785,1.785,0,0,0,.483,1.263,1.607,1.607,0,0,0,1.228.519,1.609,1.609,0,0,0,1.368-.668,3.069,3.069,0,0,0,.5-1.858,2.416,2.416,0,0,0-.463-1.57,1.53,1.53,0,0,0-1.254-.568,1.7,1.7,0,0,0-1.347.583,2.138,2.138,0,0,0-.51,1.462Z" fill="#ddd" />
                    <path d="M-629.923,2403.78v-1.062a2.086,2.086,0,0,0,.438.289,3.8,3.8,0,0,0,.537.219,4.657,4.657,0,0,0,.567.136,3.3,3.3,0,0,0,.526.049,2.048,2.048,0,0,0,1.243-.31,1.043,1.043,0,0,0,.411-.889,1.048,1.048,0,0,0-.136-.541,1.56,1.56,0,0,0-.379-.422,3.6,3.6,0,0,0-.573-.365c-.219-.117-.457-.241-.711-.369s-.519-.274-.752-.413a3.262,3.262,0,0,1-.607-.462,1.909,1.909,0,0,1-.4-.573,1.761,1.761,0,0,1-.148-.748,1.762,1.762,0,0,1,.231-.916,1.974,1.974,0,0,1,.607-.642,2.742,2.742,0,0,1,.857-.375,3.847,3.847,0,0,1,.98-.125,3.732,3.732,0,0,1,1.659.275v1.014a3.01,3.01,0,0,0-1.751-.473,2.888,2.888,0,0,0-.59.063,1.648,1.648,0,0,0-.527.2,1.184,1.184,0,0,0-.376.359.96.96,0,0,0-.145.537,1.12,1.12,0,0,0,.11.512,1.263,1.263,0,0,0,.325.391,3.185,3.185,0,0,0,.524.343c.206.112.443.233.712.366s.537.279.784.429a3.687,3.687,0,0,1,.65.5,2.23,2.23,0,0,1,.443.607,1.7,1.7,0,0,1,.164.761,1.94,1.94,0,0,1-.223.965,1.848,1.848,0,0,1-.6.643,2.611,2.611,0,0,1-.873.355,4.689,4.689,0,0,1-1.042.112,4.218,4.218,0,0,1-.451-.03c-.179-.019-.362-.049-.548-.086a4.606,4.606,0,0,1-.529-.14A1.589,1.589,0,0,1-629.923,2403.78Z" fill="#fff" />
                    <path d="M-623.386,2397.2a.554.554,0,0,1-.4-.162.542.542,0,0,1-.167-.408.552.552,0,0,1,.167-.41.55.55,0,0,1,.4-.164.567.567,0,0,1,.411.164.55.55,0,0,1,.169.41.549.549,0,0,1-.169.4A.567.567,0,0,1-623.386,2397.2Zm.429,6.9h-.88v-5.5h.88Z" fill="#fff" />
                    <path d="M-616.479,2403.65q0,3.03-2.9,3.03a3.9,3.9,0,0,1-1.784-.387v-.881a3.664,3.664,0,0,0,1.773.516q2.03,0,2.03-2.159v-.6h-.021a2.063,2.063,0,0,1-1.891,1.053,2.061,2.061,0,0,1-1.651-.735,2.922,2.922,0,0,1-.626-1.967,3.425,3.425,0,0,1,.674-2.23,2.251,2.251,0,0,1,1.845-.826,1.794,1.794,0,0,1,1.649.89h.021v-.761h.881Zm-.881-2.045v-.812a1.567,1.567,0,0,0-.443-1.121,1.453,1.453,0,0,0-1.1-.469,1.531,1.531,0,0,0-1.278.594,2.647,2.647,0,0,0-.462,1.662,2.272,2.272,0,0,0,.443,1.469,1.431,1.431,0,0,0,1.174.55,1.533,1.533,0,0,0,1.2-.525,1.963,1.963,0,0,0,.461-1.343Z" fill="#fff" />
                    <path d="M-610.13,2404.1h-.881v-3.137q0-1.752-1.279-1.752a1.383,1.383,0,0,0-1.092.5,1.833,1.833,0,0,0-.433,1.254v3.137h-.881v-5.5h.881v.912h.022a1.985,1.985,0,0,1,1.8-1.041,1.683,1.683,0,0,1,1.381.582,2.6,2.6,0,0,1,.478,1.683Z" fill="#fff" />
                    <path d="M-604.437,2404.1h-.9v-7.7h.9Z" fill="#fff" />
                    <path d="M-597.965,2404.1h-.881v-3.137q0-1.752-1.278-1.752a1.384,1.384,0,0,0-1.093.5,1.838,1.838,0,0,0-.432,1.254v3.137h-.881v-5.5h.881v.912h.021a1.986,1.986,0,0,1,1.8-1.041,1.68,1.68,0,0,1,1.38.582,2.592,2.592,0,0,1,.478,1.683Z" fill="#fff" />
                    <path d="M-590.741,2404.04a1.691,1.691,0,0,1-.822.172q-1.445,0-1.444-1.611v-3.254h-.946v-.752h.946v-1.344l.881-.283v1.627h1.385v.752h-1.385v3.1a1.282,1.282,0,0,0,.188.789.752.752,0,0,0,.623.237.917.917,0,0,0,.574-.184Z" fill="#fff" />
                    <path d="M-587.266,2404.23a2.55,2.55,0,0,1-1.947-.772,2.854,2.854,0,0,1-.727-2.043,2.969,2.969,0,0,1,.757-2.164,2.724,2.724,0,0,1,2.046-.779,2.462,2.462,0,0,1,1.92.758,2.992,2.992,0,0,1,.691,2.1,2.95,2.95,0,0,1-.745,2.108A2.6,2.6,0,0,1-587.266,2404.23Zm.065-5.018a1.677,1.677,0,0,0-1.343.578,2.367,2.367,0,0,0-.494,1.592,2.247,2.247,0,0,0,.5,1.543,1.7,1.7,0,0,0,1.338.562,1.608,1.608,0,0,0,1.313-.552,2.4,2.4,0,0,0,.459-1.575,2.441,2.441,0,0,0-.459-1.589,1.608,1.608,0,0,0-1.313-.561Z" fill="#fff" />
                    <path d="M-578.017,2401.33a3.446,3.446,0,0,1-.58,2.131,1.855,1.855,0,0,1-1.552.76,1.836,1.836,0,0,1-.741-.129v-.893a1.245,1.245,0,0,0,.752.211q1.219,0,1.219-2.068v-4.953h.9Z" fill="#fff" />
                    <path d="M-575.729,2397.2a.554.554,0,0,1-.4-.162.542.542,0,0,1-.167-.407.553.553,0,0,1,.167-.41.547.547,0,0,1,.4-.164.568.568,0,0,1,.412.164.549.549,0,0,1,.169.41.549.549,0,0,1-.169.4.57.57,0,0,1-.412.17Zm.43,6.9h-.881v-5.5h.881Z" fill="#fff" />
                    <path d="M-570.647,2399.49a1.084,1.084,0,0,0-.666-.175,1.119,1.119,0,0,0-.943.531,2.449,2.449,0,0,0-.379,1.449v2.8h-.881v-5.5h.881v1.133h.022a1.923,1.923,0,0,1,.574-.905,1.31,1.31,0,0,1,.865-.326,1.421,1.421,0,0,1,.527.076Z" fill="#fff" />
                    <path d="M-565.754,2404.1h-.881v-.86h-.022a1.844,1.844,0,0,1-1.692.989,1.8,1.8,0,0,1-1.286-.436,1.507,1.507,0,0,1-.465-1.154q0-1.542,1.816-1.795l1.649-.231q0-1.4-1.134-1.4a2.712,2.712,0,0,0-1.794.678v-.9a3.416,3.416,0,0,1,1.87-.515q1.938,0,1.939,2.051Zm-.881-2.783-1.327.183a2.156,2.156,0,0,0-.924.3.876.876,0,0,0-.311.771.841.841,0,0,0,.287.659,1.114,1.114,0,0,0,.765.253,1.408,1.408,0,0,0,1.082-.459,1.634,1.634,0,0,0,.428-1.162Z" fill="#fff" />
                    <path d="M-509.557,2404.1h-1.106l-3.964-6.139a2.567,2.567,0,0,1-.247-.484h-.032a7.864,7.864,0,0,1,.043,1.058v5.565h-.9v-7.7h1.171l3.857,6.043c.161.25.265.421.311.515h.022a8.083,8.083,0,0,1-.054-1.133V2396.4h.9Z" fill="#fff" />
                    <path d="M-505.356,2404.23a2.554,2.554,0,0,1-1.948-.772,2.854,2.854,0,0,1-.727-2.043,2.97,2.97,0,0,1,.757-2.164,2.724,2.724,0,0,1,2.046-.779,2.462,2.462,0,0,1,1.92.758,2.992,2.992,0,0,1,.691,2.1,2.954,2.954,0,0,1-.744,2.108A2.6,2.6,0,0,1-505.356,2404.23Zm.064-5.018a1.677,1.677,0,0,0-1.343.578,2.374,2.374,0,0,0-.494,1.592,2.248,2.248,0,0,0,.5,1.543,1.7,1.7,0,0,0,1.337.562,1.607,1.607,0,0,0,1.313-.552,2.4,2.4,0,0,0,.459-1.575,2.442,2.442,0,0,0-.459-1.589,1.607,1.607,0,0,0-1.313-.561Z" fill="#fff" />
                    <path d="M-494.26,2404.1h-.881v-.86h-.021a1.844,1.844,0,0,1-1.692.989,1.8,1.8,0,0,1-1.286-.436,1.507,1.507,0,0,1-.465-1.154q0-1.542,1.815-1.795l1.649-.231q0-1.4-1.133-1.4a2.709,2.709,0,0,0-1.794.678v-.9a3.415,3.415,0,0,1,1.869-.515q1.939,0,1.939,2.051Zm-.881-2.783-1.326.183a2.148,2.148,0,0,0-.924.3.875.875,0,0,0-.312.771.844.844,0,0,0,.287.659,1.118,1.118,0,0,0,.766.253,1.409,1.409,0,0,0,1.082-.459,1.636,1.636,0,0,0,.427-1.162Z" fill="#fff" />
                    <path d="M-488.851,2403.84a2.861,2.861,0,0,1-1.5.381,2.489,2.489,0,0,1-1.9-.766,2.772,2.772,0,0,1-.723-1.984,3.049,3.049,0,0,1,.779-2.184,2.718,2.718,0,0,1,2.078-.824,2.926,2.926,0,0,1,1.279.268v.9a2.253,2.253,0,0,0-1.311-.43,1.765,1.765,0,0,0-1.383.606,2.286,2.286,0,0,0-.54,1.585,2.179,2.179,0,0,0,.508,1.526,1.744,1.744,0,0,0,1.361.558,2.21,2.21,0,0,0,1.354-.476Z" fill="#fff" />
                    <path d="M-484.968,2404.04a1.691,1.691,0,0,1-.822.172q-1.444,0-1.444-1.611v-3.254h-.946v-.752h.946v-1.344l.88-.283v1.627h1.386v.752h-1.386v3.1a1.291,1.291,0,0,0,.188.789.753.753,0,0,0,.624.237.917.917,0,0,0,.574-.184Z" fill="#fff" />
                    <path d="M-483.34,2397.2a.558.558,0,0,1-.4-.162.542.542,0,0,1-.167-.407.552.552,0,0,1,.167-.41.551.551,0,0,1,.4-.164.567.567,0,0,1,.411.164.549.549,0,0,1,.169.41.549.549,0,0,1-.169.4.567.567,0,0,1-.411.17Zm.429,6.9h-.881v-5.5h.881Z" fill="#fff" />
                    <path d="M-476.8,2398.6l-2.191,5.5h-.865l-2.084-5.5h.967l1.4,4a3.573,3.573,0,0,1,.194.767h.021a3.687,3.687,0,0,1,.172-.746l1.461-4.017Z" fill="#fff" />
                    <path d="M-471.438,2401.57h-3.883a2.058,2.058,0,0,0,.494,1.418,1.705,1.705,0,0,0,1.3.5,2.7,2.7,0,0,0,1.708-.611v.826a3.184,3.184,0,0,1-1.918.528,2.323,2.323,0,0,1-1.831-.75,3.068,3.068,0,0,1-.666-2.108,3.01,3.01,0,0,1,.727-2.092,2.334,2.334,0,0,1,1.808-.808,2.066,2.066,0,0,1,1.67.7,2.917,2.917,0,0,1,.591,1.94Zm-.9-.748a1.792,1.792,0,0,0-.368-1.185,1.256,1.256,0,0,0-1.007-.426,1.416,1.416,0,0,0-1.058.447,2.024,2.024,0,0,0-.538,1.164Z" fill="#fff" />
                    <path d="M-466.072,2404.1h-.9v-7.7h.9Z" fill="#fff" />
                    <path d="M-464.5,2403.9v-.945a2.6,2.6,0,0,0,1.585.531q1.16,0,1.16-.773a.673.673,0,0,0-.1-.373,1.018,1.018,0,0,0-.269-.272,2.077,2.077,0,0,0-.4-.21l-.492-.2a5.788,5.788,0,0,1-.642-.293,1.922,1.922,0,0,1-.462-.332,1.237,1.237,0,0,1-.279-.422,1.481,1.481,0,0,1-.094-.552,1.32,1.32,0,0,1,.177-.686,1.585,1.585,0,0,1,.473-.5,2.255,2.255,0,0,1,.674-.3,2.977,2.977,0,0,1,.782-.1,3.175,3.175,0,0,1,1.278.246v.892a2.494,2.494,0,0,0-1.4-.4,1.657,1.657,0,0,0-.446.057,1.082,1.082,0,0,0-.342.158.733.733,0,0,0-.219.244.637.637,0,0,0-.078.314.749.749,0,0,0,.078.362.814.814,0,0,0,.228.258,1.811,1.811,0,0,0,.365.2q.214.09.489.2a6.159,6.159,0,0,1,.655.287,2.242,2.242,0,0,1,.494.332,1.344,1.344,0,0,1,.315.428,1.386,1.386,0,0,1,.109.574,1.35,1.35,0,0,1-.18.709,1.538,1.538,0,0,1-.48.5,2.184,2.184,0,0,1-.693.295,3.429,3.429,0,0,1-.822.1,3.116,3.116,0,0,1-1.464-.329Z" fill="#fff" />
                    <path d="M-459.831,2403.9v-.945a2.6,2.6,0,0,0,1.584.531q1.161,0,1.161-.773a.674.674,0,0,0-.1-.373,1.029,1.029,0,0,0-.268-.272,2.1,2.1,0,0,0-.4-.21l-.491-.2a5.629,5.629,0,0,1-.642-.293,1.921,1.921,0,0,1-.462-.332,1.235,1.235,0,0,1-.28-.422,1.5,1.5,0,0,1-.093-.552,1.32,1.32,0,0,1,.177-.686,1.577,1.577,0,0,1,.473-.5,2.235,2.235,0,0,1,.674-.3,2.98,2.98,0,0,1,.781-.1,3.17,3.17,0,0,1,1.278.246v.892a2.487,2.487,0,0,0-1.4-.4,1.657,1.657,0,0,0-.446.057,1.077,1.077,0,0,0-.341.158.739.739,0,0,0-.22.244.649.649,0,0,0-.078.314.762.762,0,0,0,.078.362.822.822,0,0,0,.228.258,1.8,1.8,0,0,0,.365.2c.143.06.307.127.489.2a6.15,6.15,0,0,1,.655.287,2.268,2.268,0,0,1,.495.332,1.336,1.336,0,0,1,.314.428,1.386,1.386,0,0,1,.11.574,1.35,1.35,0,0,1-.18.709,1.54,1.54,0,0,1-.481.5,2.168,2.168,0,0,1-.693.294,3.434,3.434,0,0,1-.821.1,3.112,3.112,0,0,1-1.466-.329Z" fill="#fff" />
                    <path d="M-450.383,2404.1h-.881v-.871h-.022a1.809,1.809,0,0,1-1.7,1q-1.965,0-1.966-2.342V2398.6h.876v3.146q0,1.74,1.332,1.74a1.352,1.352,0,0,0,1.061-.474,1.825,1.825,0,0,0,.416-1.244V2398.6h.881Z" fill="#fff" />
                    <path d="M-444.185,2401.57h-3.883a2.058,2.058,0,0,0,.494,1.418,1.705,1.705,0,0,0,1.3.5,2.7,2.7,0,0,0,1.708-.611v.826a3.184,3.184,0,0,1-1.918.528,2.323,2.323,0,0,1-1.831-.75,3.068,3.068,0,0,1-.666-2.108,3.009,3.009,0,0,1,.727-2.092,2.335,2.335,0,0,1,1.808-.808,2.069,2.069,0,0,1,1.67.7,2.917,2.917,0,0,1,.591,1.94Zm-.9-.748a1.792,1.792,0,0,0-.368-1.185,1.256,1.256,0,0,0-1.007-.426,1.42,1.42,0,0,0-1.059.447,2.024,2.024,0,0,0-.537,1.164Z" fill="#fff" />
                    <path d="M-422,2403.78v-1.062a2.043,2.043,0,0,0,.438.289,3.67,3.67,0,0,0,.537.219,4.5,4.5,0,0,0,.566.136,3.276,3.276,0,0,0,.526.049,2.054,2.054,0,0,0,1.244-.31,1.045,1.045,0,0,0,.411-.889,1.038,1.038,0,0,0-.137-.541,1.559,1.559,0,0,0-.379-.422,3.638,3.638,0,0,0-.572-.365c-.22-.117-.457-.241-.712-.369s-.519-.274-.752-.413a3.288,3.288,0,0,1-.606-.462,1.919,1.919,0,0,1-.406-.573,1.777,1.777,0,0,1-.148-.748,1.763,1.763,0,0,1,.231-.916,1.984,1.984,0,0,1,.607-.642,2.75,2.75,0,0,1,.857-.375,3.837,3.837,0,0,1,.98-.125,3.733,3.733,0,0,1,1.66.275v1.014a3.012,3.012,0,0,0-1.751-.473,2.913,2.913,0,0,0-.591.063,1.629,1.629,0,0,0-.526.2,1.174,1.174,0,0,0-.376.359.954.954,0,0,0-.145.537,1.12,1.12,0,0,0,.109.512,1.265,1.265,0,0,0,.326.391,3.2,3.2,0,0,0,.523.343c.206.112.443.233.712.366s.537.279.784.429a3.688,3.688,0,0,1,.65.5,2.228,2.228,0,0,1,.443.608,1.7,1.7,0,0,1,.164.761,1.929,1.929,0,0,1-.223.965,1.845,1.845,0,0,1-.6.643,2.621,2.621,0,0,1-.873.355,4.689,4.689,0,0,1-1.042.112,4.285,4.285,0,0,1-.451-.03c-.18-.019-.362-.049-.548-.086a4.78,4.78,0,0,1-.53-.14,1.582,1.582,0,0,1-.4-.185Z" fill="#fff" />
                    <path d="M-415.466,2397.2a.554.554,0,0,1-.4-.162.545.545,0,0,1-.166-.408.554.554,0,0,1,.166-.409.549.549,0,0,1,.4-.165.565.565,0,0,1,.411.164.546.546,0,0,1,.169.41.544.544,0,0,1-.169.4A.567.567,0,0,1-415.466,2397.2Zm.43,6.9h-.881v-5.5h.881Z" fill="#fff" />
                    <path d="M-408.559,2403.65q0,3.03-2.9,3.03a3.89,3.89,0,0,1-1.783-.387v-.881a3.66,3.66,0,0,0,1.772.516q2.031,0,2.031-2.159v-.6h-.022a2.062,2.062,0,0,1-1.891,1.053,2.061,2.061,0,0,1-1.651-.735,2.928,2.928,0,0,1-.626-1.967,3.431,3.431,0,0,1,.674-2.23,2.252,2.252,0,0,1,1.845-.826,1.793,1.793,0,0,1,1.649.89h.022v-.761h.88Zm-.88-2.045v-.812a1.567,1.567,0,0,0-.444-1.121,1.454,1.454,0,0,0-1.1-.469,1.531,1.531,0,0,0-1.279.594,2.647,2.647,0,0,0-.462,1.662,2.271,2.271,0,0,0,.444,1.469,1.428,1.428,0,0,0,1.173.55,1.536,1.536,0,0,0,1.206-.525,1.964,1.964,0,0,0,.462-1.343Z" fill="#fff" />
                    <path d="M-402.21,2404.1h-.881v-3.137q0-1.752-1.278-1.752a1.384,1.384,0,0,0-1.093.5,1.838,1.838,0,0,0-.433,1.254v3.137h-.88v-5.5h.88v.912h.022a1.985,1.985,0,0,1,1.8-1.041,1.68,1.68,0,0,1,1.38.582,2.592,2.592,0,0,1,.478,1.683Z" fill="#fff" />
                    <path d="M-396.517,2404.1h-.9v-7.7h.9Z" fill="#fff" />
                    <path d="M-390.044,2404.1h-.881v-3.137q0-1.752-1.279-1.752a1.383,1.383,0,0,0-1.092.5,1.833,1.833,0,0,0-.433,1.254v3.137h-.881v-5.5h.881v.912h.021a1.987,1.987,0,0,1,1.8-1.041,1.68,1.68,0,0,1,1.381.582,2.6,2.6,0,0,1,.478,1.683Z" fill="#fff" />
                    <path d="M-382.82,2404.04a1.7,1.7,0,0,1-.822.172q-1.445,0-1.445-1.611v-3.254h-.945v-.752h.945v-1.344l.881-.283v1.627h1.386v.752h-1.386v3.1a1.283,1.283,0,0,0,.188.789.752.752,0,0,0,.623.237.919.919,0,0,0,.575-.184Z" fill="#fff" />
                    <path d="M-379.345,2404.23a2.55,2.55,0,0,1-1.947-.772,2.855,2.855,0,0,1-.728-2.043,2.969,2.969,0,0,1,.757-2.164,2.724,2.724,0,0,1,2.047-.779,2.462,2.462,0,0,1,1.92.758,3,3,0,0,1,.69,2.1,2.954,2.954,0,0,1-.744,2.108,2.6,2.6,0,0,1-2,.792Zm.064-5.018a1.677,1.677,0,0,0-1.343.578,2.374,2.374,0,0,0-.494,1.592,2.249,2.249,0,0,0,.5,1.543,1.7,1.7,0,0,0,1.337.562,1.61,1.61,0,0,0,1.314-.552,2.408,2.408,0,0,0,.459-1.575,2.447,2.447,0,0,0-.459-1.589,1.609,1.609,0,0,0-1.314-.561Z" fill="#fff" />
                    <path d="M-372.067,2404.1v-7.7h2.191a2.391,2.391,0,0,1,1.584.49,1.573,1.573,0,0,1,.586,1.271,1.867,1.867,0,0,1-.355,1.139,1.9,1.9,0,0,1-.977.687V2400a1.969,1.969,0,0,1,1.246.588,1.808,1.808,0,0,1,.467,1.293,2.01,2.01,0,0,1-.709,1.6,2.635,2.635,0,0,1-1.788.614Zm.9-6.887v2.488h.924a1.752,1.752,0,0,0,1.165-.357,1.245,1.245,0,0,0,.425-1.008q0-1.122-1.477-1.123Zm0,3.3v2.771h1.225a1.829,1.829,0,0,0,1.232-.377,1.284,1.284,0,0,0,.438-1.031q0-1.362-1.858-1.363Z" fill="#fff" />
                    <path d="M-365.429,2397.2a.556.556,0,0,1-.4-.162.545.545,0,0,1-.166-.408.555.555,0,0,1,.166-.409.55.55,0,0,1,.4-.165.565.565,0,0,1,.411.164.546.546,0,0,1,.169.41.545.545,0,0,1-.169.4A.567.567,0,0,1-365.429,2397.2Zm.43,6.9h-.881v-5.5h.88Z" fill="#fff" />
                    <path d="M-360.665,2404.04a1.688,1.688,0,0,1-.821.172q-1.446,0-1.445-1.611v-3.254h-.945v-.752h.945v-1.344l.881-.283v1.627h1.385v.752h-1.385v3.1a1.282,1.282,0,0,0,.188.789.752.752,0,0,0,.623.237.917.917,0,0,0,.574-.184Z" fill="#fff" />
                    <path d="M-359.37,2404.1v-7.7h2.191a2.4,2.4,0,0,1,1.585.49,1.576,1.576,0,0,1,.585,1.271,1.873,1.873,0,0,1-.354,1.139,1.9,1.9,0,0,1-.978.687V2400a1.966,1.966,0,0,1,1.246.588,1.809,1.809,0,0,1,.468,1.293,2.012,2.012,0,0,1-.709,1.6,2.636,2.636,0,0,1-1.789.614Zm.9-6.887v2.488h.924a1.758,1.758,0,0,0,1.166-.357,1.247,1.247,0,0,0,.424-1.008q0-1.122-1.477-1.123Zm0,3.3v2.771h1.225a1.824,1.824,0,0,0,1.232-.377,1.285,1.285,0,0,0,.438-1.031q0-1.362-1.858-1.363Z" fill="#fff" />
                    <path d="M-348.735,2404.1h-.881v-.871h-.022a1.808,1.808,0,0,1-1.7,1q-1.967,0-1.966-2.342V2398.6h.876v3.146q0,1.74,1.332,1.74a1.35,1.35,0,0,0,1.061-.474,1.826,1.826,0,0,0,.416-1.244V2398.6h.881Z" fill="#fff" />
                    <path d="M-343.208,2403.84a2.868,2.868,0,0,1-1.5.381,2.49,2.49,0,0,1-1.9-.766,2.771,2.771,0,0,1-.722-1.984,3.049,3.049,0,0,1,.778-2.184,2.72,2.72,0,0,1,2.079-.824,2.917,2.917,0,0,1,1.278.267v.9a2.252,2.252,0,0,0-1.31-.43,1.763,1.763,0,0,0-1.383.606,2.287,2.287,0,0,0-.54,1.585,2.179,2.179,0,0,0,.508,1.526,1.746,1.746,0,0,0,1.361.558A2.213,2.213,0,0,0-343.2,2403Z" fill="#fff" />
                    <path d="M-337.311,2404.1h-1.235l-2.428-2.643H-341v2.643h-.88v-8.143h.88v5.162h.022l2.309-2.519h1.155l-2.551,2.652Z" fill="#fff" />
                    <path d="M-331.988,2401.57h-3.884a2.063,2.063,0,0,0,.5,1.418,1.7,1.7,0,0,0,1.3.5,2.7,2.7,0,0,0,1.708-.611v.826a3.184,3.184,0,0,1-1.917.528,2.326,2.326,0,0,1-1.832-.75,3.068,3.068,0,0,1-.666-2.108,3.01,3.01,0,0,1,.728-2.092,2.334,2.334,0,0,1,1.807-.809,2.069,2.069,0,0,1,1.671.7,2.917,2.917,0,0,1,.591,1.94Zm-.9-.748a1.786,1.786,0,0,0-.367-1.185,1.256,1.256,0,0,0-1.008-.426,1.416,1.416,0,0,0-1.058.447,2.023,2.023,0,0,0-.537,1.164Z" fill="#fff" />
                    <path d="M-328.105,2404.04a1.7,1.7,0,0,1-.822.172q-1.445,0-1.445-1.611v-3.254h-.945v-.752h.945v-1.344l.881-.283v1.627h1.386v.752h-1.386v3.1a1.291,1.291,0,0,0,.188.789.753.753,0,0,0,.623.237.918.918,0,0,0,.575-.184Z" fill="#fff" />
                    <path d="M-606.51,1371.69l-2.373,8.4h-1.155l-1.728-6.141a3.886,3.886,0,0,1-.135-.855h-.023a4.382,4.382,0,0,1-.153.843l-1.74,6.153h-1.142l-2.461-8.4h1.084l1.787,6.446a4.188,4.188,0,0,1,.14.843h.03a4.961,4.961,0,0,1,.181-.843l1.858-6.446h.943l1.781,6.493a4.649,4.649,0,0,1,.141.785h.023a4.756,4.756,0,0,1,.159-.809l1.716-6.469Z" fill="#ddd" />
                    <path d="M-601.038,1377.34h-4.236a2.245,2.245,0,0,0,.539,1.547,1.861,1.861,0,0,0,1.418.545,2.948,2.948,0,0,0,1.863-.668v.9a3.479,3.479,0,0,1-2.091.574,2.533,2.533,0,0,1-2-.817,3.342,3.342,0,0,1-.727-2.3,3.283,3.283,0,0,1,.794-2.282,2.544,2.544,0,0,1,1.972-.882,2.255,2.255,0,0,1,1.822.762,3.174,3.174,0,0,1,.644,2.115Zm-.984-.815a1.957,1.957,0,0,0-.4-1.294,1.367,1.367,0,0,0-1.1-.463,1.552,1.552,0,0,0-1.154.486,2.2,2.2,0,0,0-.586,1.271Z" fill="#ddd" />
                    <path d="M-598.624,1380.1h-.96v-8.883h.96Z" fill="#ddd" />
                    <path d="M-592.588,1379.82a3.117,3.117,0,0,1-1.641.416,2.714,2.714,0,0,1-2.071-.835,3.022,3.022,0,0,1-.788-2.165,3.329,3.329,0,0,1,.849-2.382,2.975,2.975,0,0,1,2.268-.9,3.159,3.159,0,0,1,1.394.293v.984a2.445,2.445,0,0,0-1.429-.468,1.929,1.929,0,0,0-1.509.659,2.5,2.5,0,0,0-.589,1.731,2.382,2.382,0,0,0,.554,1.664,1.906,1.906,0,0,0,1.485.61,2.408,2.408,0,0,0,1.477-.522Z" fill="#ddd" />
                    <path d="M-588.627,1380.24a2.783,2.783,0,0,1-2.124-.84,3.113,3.113,0,0,1-.794-2.23,3.241,3.241,0,0,1,.826-2.361,2.968,2.968,0,0,1,2.232-.85,2.691,2.691,0,0,1,2.095.826,3.276,3.276,0,0,1,.753,2.291,3.223,3.223,0,0,1-.812,2.3,2.842,2.842,0,0,1-2.176.864Zm.07-5.472a1.827,1.827,0,0,0-1.465.63,2.586,2.586,0,0,0-.539,1.737,2.45,2.45,0,0,0,.545,1.682,1.851,1.851,0,0,0,1.459.615,1.752,1.752,0,0,0,1.432-.6,2.617,2.617,0,0,0,.5-1.717,2.662,2.662,0,0,0-.5-1.734,1.747,1.747,0,0,0-1.432-.621Z" fill="#ddd" />
                    <path d="M-575.584,1380.1h-.961v-3.446a2.6,2.6,0,0,0-.308-1.441,1.166,1.166,0,0,0-1.034-.445,1.28,1.28,0,0,0-1.046.562,2.152,2.152,0,0,0-.431,1.348v3.422h-.961v-3.563q0-1.768-1.365-1.769a1.265,1.265,0,0,0-1.043.53,2.194,2.194,0,0,0-.41,1.38v3.422h-.961v-6h.961v.949h.023a2.039,2.039,0,0,1,1.864-1.09,1.735,1.735,0,0,1,1.072.343,1.72,1.72,0,0,1,.627.9,2.14,2.14,0,0,1,1.992-1.242q1.98,0,1.981,2.443Z" fill="#ddd" />
                    <path d="M-568.946,1377.34h-4.236a2.24,2.24,0,0,0,.539,1.547,1.859,1.859,0,0,0,1.418.545,2.948,2.948,0,0,0,1.863-.668v.9a3.479,3.479,0,0,1-2.092.574,2.537,2.537,0,0,1-2-.817,3.348,3.348,0,0,1-.726-2.3,3.278,3.278,0,0,1,.794-2.282,2.543,2.543,0,0,1,1.971-.882,2.256,2.256,0,0,1,1.823.762,3.18,3.18,0,0,1,.644,2.115Zm-.984-.815a1.952,1.952,0,0,0-.4-1.294,1.364,1.364,0,0,0-1.1-.463,1.553,1.553,0,0,0-1.154.486,2.2,2.2,0,0,0-.586,1.271Z" fill="#ddd" />
                    <path d="M-543.159,1380.63a.746.746,0,0,1-.53-.22.749.749,0,0,1-.22-.53.749.749,0,0,1,.22-.53l6.661-6.662a.75.75,0,0,1,1.061,0,.749.749,0,0,1,.22.53.749.749,0,0,1-.22.53l-6.661,6.662a.748.748,0,0,1-.531.22Z" fill="#fff" />
                    <path d="M-536.5,1380.63a.744.744,0,0,1-.53-.22l-6.663-6.662a.75.75,0,0,1-.22-.53.749.749,0,0,1,.22-.53.75.75,0,0,1,1.061,0l6.662,6.662a.748.748,0,0,1,.22.53.749.749,0,0,1-.22.53A.745.745,0,0,1-536.5,1380.63Z" fill="#fff" />
                    <path d="M-670.2,1376.07v14.843a1.239,1.239,0,0,1-1.2,1.278h-14.061a1.239,1.239,0,0,1-1.2-1.278v-18.135a1.241,1.241,0,0,1,1.2-1.278h10.979a1.159,1.159,0,0,1,.847.374l3.084,3.292A1.322,1.322,0,0,1-670.2,1376.07Z" fill="none" />
                    <path d="M-684.662,1373.5v16.692H-672.2v-13.86l-2.652-2.832h-9.806m-.8-2h10.98a1.157,1.157,0,0,1,.846.375l3.084,3.292a1.322,1.322,0,0,1,.351.9v14.844a1.24,1.24,0,0,1-1.2,1.278h-14.064a1.24,1.24,0,0,1-1.2-1.278v-18.136a1.24,1.24,0,0,1,1.2-1.275Z" fill="#fff" />
                    <path d="M-671.527,1378.19h-4.932v-5h2v3h2.932Z" fill="#fff" />
                    <path d="M-678.59,1397.69h-11.387a1.968,1.968,0,0,1-1.965-1.96v-16.077a1.952,1.952,0,0,1,.574-1.394,1.953,1.953,0,0,1,1.4-.569h4.23v2h-4.232l.032,16.038,11.35-.038-.032-5.268h2v5.306a1.969,1.969,0,0,1-1.966,1.962Z" fill="#fff" />
                    <path d="M-678.274,1437.56a8.728,8.728,0,0,1-8.719-8.718,8.728,8.728,0,0,1,8.719-8.719,8.728,8.728,0,0,1,8.719,8.719,8.728,8.728,0,0,1-8.719,8.718Zm0-15.5a6.789,6.789,0,0,0-6.781,6.782,6.789,6.789,0,0,0,6.781,6.781,6.789,6.789,0,0,0,6.781-6.781A6.789,6.789,0,0,0-678.274,1422.06Z" fill="#8d8e89" />
                    <path d="M-692.524,1444.46a.861.861,0,0,1-.613-.254.867.867,0,0,1-.254-.614.867.867,0,0,1,.254-.614l8.572-8.572a.865.865,0,0,1,.613-.255.865.865,0,0,1,.614.255.869.869,0,0,1,0,1.227l-8.573,8.572a.86.86,0,0,1-.613.254Z" fill="#8d8e89" />
                    <path d="M-686.524,1475.96a3.872,3.872,0,0,1-3.868-3.867,3.872,3.872,0,0,1,3.868-3.867,3.872,3.872,0,0,1,3.868,3.867,3.872,3.872,0,0,1-3.868,3.867Zm0-6a2.135,2.135,0,0,0-2.132,2.133,2.135,2.135,0,0,0,2.132,2.133,2.135,2.135,0,0,0,2.132-2.133,2.135,2.135,0,0,0-2.132-2.133Z" fill="#8d8e89" />
                    <path d="M-686.524,1492.96a3.872,3.872,0,0,1-3.868-3.867,3.872,3.872,0,0,1,3.868-3.867,3.872,3.872,0,0,1,3.868,3.867,3.872,3.872,0,0,1-3.868,3.867Zm0-6a2.135,2.135,0,0,0-2.132,2.133,2.135,2.135,0,0,0,2.132,2.133,2.135,2.135,0,0,0,2.132-2.133,2.135,2.135,0,0,0-2.132-2.133Z" fill="#8d8e89" />
                    <path d="M-675.524,1480.96a3.872,3.872,0,0,1-3.868-3.867,3.872,3.872,0,0,1,3.868-3.867,3.872,3.872,0,0,1,3.868,3.867,3.872,3.872,0,0,1-3.868,3.867Zm0-6a2.135,2.135,0,0,0-2.132,2.133,2.135,2.135,0,0,0,2.132,2.133,2.135,2.135,0,0,0,2.132-2.133,2.135,2.135,0,0,0-2.132-2.133Z" fill="#8d8e89" />
                    <path d="M-687.391,1486.11V1475.1a.867.867,0,0,1,.254-.613.867.867,0,0,1,.614-.254.867.867,0,0,1,.614.254.867.867,0,0,1,.254.613v7.742a3.767,3.767,0,0,1,1.989-.609h5.143a2.076,2.076,0,0,0,1.488-.57,2.076,2.076,0,0,0,.645-1.457.907.907,0,0,1,.847-.931.841.841,0,0,1,.61.215.842.842,0,0,1,.277.585v.166a3.823,3.823,0,0,1-3.885,3.722h-5.089a2.06,2.06,0,0,0-1.451.637,2.058,2.058,0,0,0-.574,1.378v.118Z" fill="#8d8e89" />
                    <path d="M-679.141,1534.4a.864.864,0,0,1-.714-.373.867.867,0,0,1-.141-.649.867.867,0,0,1,.36-.558l7.929-5.494-12.567-8.04v9.013a.868.868,0,0,1-.868.867.868.868,0,0,1-.868-.867v-9.73a1.343,1.343,0,0,1,1.338-1.342,1.35,1.35,0,0,1,.724.209l13.674,8.748a1.344,1.344,0,0,1,.407,1.853,1.328,1.328,0,0,1-.373.384l-8.408,5.825a.859.859,0,0,1-.493.154Zm7.92-7.41h-.006Zm-13.053-8.423Z" fill="#8d8e89" />
                    <path d="M-687.642,1541.17c-2.449,0-4.368-2.577-4.368-5.867s1.919-5.867,4.368-5.867c1.875,0,3.49,1.522,4.114,3.879a7.841,7.841,0,0,1,.254,1.99C-683.274,1538.59-685.193,1541.17-687.642,1541.17Zm0-10c-1.427,0-2.632,1.893-2.632,4.133s1.205,4.133,2.632,4.133,2.632-1.893,2.632-4.133a6.034,6.034,0,0,0-.2-1.548C-685.615,1532.21-686.594,1531.17-687.642,1531.17Z" fill="#8d8e89" />
                    <path d="M-684.366,1534.37h-6.265a.834.834,0,0,1-.834-.834.834.834,0,0,1,.834-.834h6.265a.834.834,0,0,1,.834.834A.834.834,0,0,1-684.366,1534.37Z" fill="#8d8e89" />
                    <path d="M-684.754,1534.02a.86.86,0,0,1-.613-.254.867.867,0,0,1-.254-.614.867.867,0,0,1,.254-.614l1.792-1.792h2.046a.868.868,0,0,1,.868.867.867.867,0,0,1-.254.614.867.867,0,0,1-.614.254h-1.327l-1.285,1.285A.86.86,0,0,1-684.754,1534.02Z" fill="#8d8e89" />
                    <path d="M-682.142,1541.08a.779.779,0,0,1-.7-.444l-.742-1.556h-.555a.779.779,0,0,1-.779-.779.779.779,0,0,1,.779-.779h1.538l1.165,2.444A.779.779,0,0,1-681.8,1541a.766.766,0,0,1-.338.076Z" fill="#8d8e89" />
                    <path d="M-693.234,1541.08a.764.764,0,0,1-.335-.076.779.779,0,0,1-.368-1.038l1.166-2.444h1.537a.779.779,0,0,1,.779.779.779.779,0,0,1-.779.779h-.554l-.743,1.556a.779.779,0,0,1-.7.444Z" fill="#8d8e89" />
                    <path d="M-690.507,1534.02a.86.86,0,0,1-.613-.254l-1.284-1.285h-1.328a.867.867,0,0,1-.614-.254.867.867,0,0,1-.254-.613.868.868,0,0,1,.868-.867h2.046l1.792,1.792a.867.867,0,0,1,.254.614.867.867,0,0,1-.254.614.86.86,0,0,1-.613.254Z" fill="#8d8e89" />
                    <path d="M-681.738,1536.08h-2.4a.779.779,0,0,1-.779-.779.779.779,0,0,1,.779-.779h2.4a.779.779,0,0,1,.779.779A.779.779,0,0,1-681.738,1536.08Z" fill="#8d8e89" />
                    <path d="M-691.328,1536.08h-2.4a.779.779,0,0,1-.779-.779.779.779,0,0,1,.779-.779h2.4a.777.777,0,0,1,.551.228.778.778,0,0,1,.228.551A.779.779,0,0,1-691.328,1536.08Z" fill="#8d8e89" />
                    <path d="M-671.545,1624.03h-7.022a1.89,1.89,0,0,1-1.889-1.887v-7.023a1.89,1.89,0,0,1,1.889-1.887h7.022a1.89,1.89,0,0,1,1.889,1.887v7.023a1.89,1.89,0,0,1-1.889,1.887Zm-7.022-9.063a.154.154,0,0,0-.153.153v7.023a.154.154,0,0,0,.153.153h7.022a.153.153,0,0,0,.153-.153v-7.023a.153.153,0,0,0-.153-.153Z" fill="#8d8e89" />
                    <path d="M-685.018,1628.73h-7.022a1.891,1.891,0,0,1-1.889-1.889v-7.022a1.89,1.89,0,0,1,1.889-1.888h7.022a1.89,1.89,0,0,1,1.889,1.888v7.022A1.891,1.891,0,0,1-685.018,1628.73Zm-7.022-9.065a.152.152,0,0,0-.109.045.153.153,0,0,0-.044.109v7.022a.153.153,0,0,0,.044.109.153.153,0,0,0,.109.045h7.022a.154.154,0,0,0,.153-.154v-7.022a.154.154,0,0,0-.153-.154Z" fill="#8d8e89" />
                    <path d="M-685.018,1637.79h-7.022a1.89,1.89,0,0,1-1.889-1.888v-7.022a1.89,1.89,0,0,1,1.889-1.888h7.022a1.891,1.891,0,0,1,1.889,1.888v7.022A1.891,1.891,0,0,1-685.018,1637.79Zm-7.022-9.063a.153.153,0,0,0-.153.153v7.022a.154.154,0,0,0,.153.154h7.022a.154.154,0,0,0,.153-.154v-7.022a.154.154,0,0,0-.153-.153Z" fill="#8d8e89" />
                    <path d="M-676.077,1637.79H-683.1a1.89,1.89,0,0,1-1.888-1.888v-7.022a1.89,1.89,0,0,1,1.888-1.888h7.022a1.89,1.89,0,0,1,1.889,1.888v7.022A1.89,1.89,0,0,1-676.077,1637.79Zm-7.022-9.063a.154.154,0,0,0-.153.153v7.022a.154.154,0,0,0,.153.154h7.022a.155.155,0,0,0,.154-.154v-7.022a.154.154,0,0,0-.154-.153Z" fill="#8d8e89" />
                    <path d="M-686.293,1583.96h-7.729v-16.735h22.735v7.875a.868.868,0,0,1-.868.867.867.867,0,0,1-.867-.867v-6.14h-19.265v13.265h5.994a.868.868,0,0,1,.868.868.868.868,0,0,1-.868.867Z" fill="#8d8e89" />
                    <path d="M-682.555,1589.6h-5.6v-3h3.44a8.727,8.727,0,0,0,2.16,3Z" fill="#8d8e89" />
                    <path d="M-677.54,1589.44a7.213,7.213,0,0,1-7.205-7.2,7.213,7.213,0,0,1,7.205-7.2,7.213,7.213,0,0,1,7.2,7.2A7.213,7.213,0,0,1-677.54,1589.44Zm0-12.878a5.679,5.679,0,0,0-5.673,5.673,5.68,5.68,0,0,0,5.673,5.674,5.68,5.68,0,0,0,5.673-5.674,5.679,5.679,0,0,0-5.673-5.665Z" fill="#8d8e89" />
                    <path d="M-680.125,1586.59a.763.763,0,0,1-.542-.225.766.766,0,0,1,0-1.082l1.321-1.32a.2.2,0,0,0,0-.279l-2.042-2.043a.765.765,0,0,1,0-1.082.766.766,0,0,1,1.083,0l2.042,2.042a1.732,1.732,0,0,1,0,2.444l-1.322,1.32a.76.76,0,0,1-.54.225Z" fill="#8d8e89" />
                    <path d="M-675.077,1584.94a.768.768,0,0,1-.541-.225l-1.32-1.32a1.732,1.732,0,0,1,0-2.445l2.042-2.042a.766.766,0,0,1,1.083,0,.767.767,0,0,1,0,1.082l-2.042,2.042a.2.2,0,0,0,0,.281l1.32,1.32a.765.765,0,0,1,0,1.082.769.769,0,0,1-.542.225Z" fill="#8d8e89" />
                    <path d="M-675.056,2328.32a1.285,1.285,0,0,1-1.285-1.285,5.528,5.528,0,0,0-5.523-5.523,5.53,5.53,0,0,0-5.524,5.523,1.285,1.285,0,0,1-1.285,1.285h0a1.285,1.285,0,0,1-1.285-1.285,8.1,8.1,0,0,1,8.094-8.093,8.1,8.1,0,0,1,8.093,8.093A1.285,1.285,0,0,1-675.056,2328.32Z" fill="#8d8e89" />
                    <path d="M-681.864,2321.09a5.471,5.471,0,0,1-5.464-5.464,5.47,5.47,0,0,1,5.464-5.463,5.47,5.47,0,0,1,5.464,5.463A5.471,5.471,0,0,1-681.864,2321.09Zm0-9.193a3.733,3.733,0,0,0-3.728,3.729,3.732,3.732,0,0,0,3.728,3.729,3.732,3.732,0,0,0,3.728-3.729,3.733,3.733,0,0,0-3.728-3.726Z" fill="#8d8e89" />
                    <path d="M-681.864,2330.7a12.959,12.959,0,0,1-12.945-12.945,12.959,12.959,0,0,1,12.945-12.944,12.959,12.959,0,0,1,12.946,12.944,12.96,12.96,0,0,1-12.946,12.945Zm0-23.319a10.386,10.386,0,0,0-10.375,10.374,10.387,10.387,0,0,0,10.375,10.375,10.386,10.386,0,0,0,10.375-10.375,10.385,10.385,0,0,0-10.375-10.375Z" fill="#8d8e89" />
                    <path d="M-682.374,2370.4a4.137,4.137,0,0,1-4.133-4.132,4.138,4.138,0,0,1,4.133-4.134,4.138,4.138,0,0,1,4.133,4.134,4.137,4.137,0,0,1-4.133,4.132Zm0-5.7a1.565,1.565,0,0,0-1.563,1.564,1.564,1.564,0,0,0,1.563,1.562,1.564,1.564,0,0,0,1.563-1.562,1.565,1.565,0,0,0-1.563-1.564Z" fill="#8d8e89" />
                    <path d="M-682.362,2379.71h-.027a13.48,13.48,0,0,1-3.132-.37c-1.264-.3-1.431-1.707-1.556-3.1-.817.925-1.8,1.875-2.917,1.111a13.43,13.43,0,0,1-3.8-3.978c-.635-1.017.1-1.915,1.143-2.894-1.5.129-2.484.064-2.789-1.021a10.407,10.407,0,0,1-.383-3.248,13.292,13.292,0,0,1,.37-3.1c.27-1.137,1.346-1.209,2.423-1.092-.779-.967-1.37-1.9-.774-2.857a13.5,13.5,0,0,1,3.409-3.7c1.106-.824,2.309.118,3.275.88l.227.177c.016-.128.031-.251.043-.356.148-1.24.333-2.785,1.735-3.076a13.581,13.581,0,0,1,2.746-.281,13.84,13.84,0,0,1,1.7.112c1.533.192,1.571,1.9,1.611,3.714v.07l.075-.089c1.149-1.371,2.235-2.668,3.531-1.887a13.477,13.477,0,0,1,3.7,3.279c.888,1.143-.158,2.317-1.482,3.8-.046.051-.1.108-.149.168l.134-.018c1.674-.21,3.573-.451,3.959,1.159a13.419,13.419,0,0,1,.371,3.15,13.4,13.4,0,0,1-.371,3.139c-.337,1.433-1.93,1.3-3.648,1.114,1.2,1.26,2.318,2.453,1.443,3.658a13.408,13.408,0,0,1-4.339,3.843c-.84.469-1.528.061-2.261-.691.04.991-.162,1.781-1.132,2.014a13.489,13.489,0,0,1-3.135.365Zm-.013-2.57a11.186,11.186,0,0,0,1.68-.128c-.029-.26-.068-.543-.1-.756-.221-1.625-.4-2.909.8-3.375,1.106-.431,1.89.5,2.973,1.78.17.2.4.476.607.7a10.859,10.859,0,0,0,2.433-2.18c-.244-.292-.6-.667-.847-.926-1.17-1.231-2.18-2.294-1.658-3.468s1.927-1.035,3.694-.845c.326.035.787.085,1.153.108a10.87,10.87,0,0,0,.148-1.791h0a10.9,10.9,0,0,0-.163-1.891c-.389.023-.913.088-1.275.134-1.665.211-3.236.408-3.865-.808-.578-1.114.352-2.158,1.639-3.6.267-.3.653-.733.916-1.065a10.875,10.875,0,0,0-1.949-1.724c-.265.282-.6.678-.828.954-1.164,1.39-2.082,2.488-3.314,2.06s-1.262-1.844-1.3-3.635c-.008-.368-.02-.9-.053-1.288a10.822,10.822,0,0,0-2.484.122c-.057.274-.1.674-.137.945-.143,1.2-.292,2.446-1.351,2.948s-2.081-.284-3.059-1.055c-.173-.134-.414-.325-.619-.47a10.9,10.9,0,0,0-1.982,2.159c.18.243.438.555.617.77.9,1.081,1.674,2.015,1.265,3.062-.474,1.214-1.853,1-3.187.794-.146-.023-.332-.052-.514-.077a11.005,11.005,0,0,0-.126,1.662,8.124,8.124,0,0,0,.1,1.679c.356-.026.777-.07,1.083-.1,1.938-.2,3.108-.325,3.567.779.474,1.148-.5,2.026-1.849,3.241-.242.218-.583.526-.843.781a10.766,10.766,0,0,0,2.008,2.109c.144-.158.294-.332.409-.464.889-1.026,1.811-2.093,2.992-1.535,1.025.477,1.134,1.7,1.259,3.115.028.313.068.771.12,1.091a10.869,10.869,0,0,0,2.024.19Zm10.587-8.338v.007Zm-17.076-11.284Zm7.865-2.056Z" fill="#8d8e89" />
                    <path d="M1173.15,1381.89h-3.917a1.63,1.63,0,0,1-1.628-1.628v-9.788a1.63,1.63,0,0,1,1.628-1.629h3.917a1.629,1.629,0,0,1,1.627,1.629v9.788a1.63,1.63,0,0,1-1.627,1.628Zm-3.917-12a.583.583,0,0,0-.583.584v9.788a.584.584,0,0,0,.583.583h3.917a.584.584,0,0,0,.583-.583v-9.788a.584.584,0,0,0-.583-.584Z" fill="#7d7d7d" />
                    <path d="M1179.27,1381.89h-3.916a1.63,1.63,0,0,1-1.628-1.628v-9.788a1.63,1.63,0,0,1,1.628-1.629h3.916a1.63,1.63,0,0,1,1.628,1.629v9.788a1.63,1.63,0,0,1-1.628,1.628Zm-3.916-12a.584.584,0,0,0-.584.584v9.788a.585.585,0,0,0,.584.583h3.916a.584.584,0,0,0,.583-.583v-9.788a.583.583,0,0,0-.583-.584Z" fill="#7d7d7d" />
                    <circle cx="1" cy="1" r="1" transform="translate(1190.591 1379.095)" fill="#8f8f8f" />
                    <circle cx="1" cy="1" r="1" transform="translate(1193.591 1379.095)" fill="#8f8f8f" />
                    <circle cx="1" cy="1" r="1" transform="translate(1196.591 1379.095)" fill="#8f8f8f" />
                    <path d="M1190,1351.18a.791.791,0,0,1-.559-1.349l8.592-8.593a.79.79,0,0,1,1.117,1.117l-8.591,8.593A.787.787,0,0,1,1190,1351.18Z" fill="#fff" />
                    <path d="M1198.59,1351.18a.787.787,0,0,1-.559-.232l-8.592-8.593a.79.79,0,0,1,1.118-1.117l8.591,8.593a.791.791,0,0,1-.558,1.349Z" fill="#fff" />
                    <path d="M1152.27,1353.02h-9.97v-9.969h9.968Zm-8.388-1.58h6.808v-6.809h-6.808Z" fill="#fff" />
                    <path d="M1154.35,1350.76h-2.871a.79.79,0,0,1,0-1.58h1.29v-6.59h-6.589v1.255a.79.79,0,1,1-1.58,0v-2.835h9.75Z" fill="#fff" />
                    <path d="M1108.88,1347.69h-12.894a.79.79,0,1,1,0-1.58h12.894a.79.79,0,0,1,0,1.58Z" fill="#fff" />
                    <path d="M1206.04,2405.54h-9.171a1.152,1.152,0,0,1-.913-.407.8.8,0,0,1-.152-.689l.029-.116.909-1.04v-4.713a4.711,4.711,0,1,1,9.422,0v4.527l.944,1.347a.811.811,0,0,1-.158.691A1.152,1.152,0,0,1,1206.04,2405.54Zm-9.064-1h9.007l-.82-1.113v-4.855a3.711,3.711,0,1,0-7.422,0v5.088Z" fill="#fff" />
                    <path d="M1202.27,2407.51h-1.63a1.352,1.352,0,0,1-1.35-1.351v-.782h.818v.782a.534.534,0,0,0,.532.533h1.63a.533.533,0,0,0,.531-.533v-.782h.818v.782a1.352,1.352,0,0,1-1.349,1.351Z" fill="#fff" />
                    <path d="M1171.28,2402.11a2.632,2.632,0,1,1,2.632-2.632,2.632,2.632,0,0,1-2.632,2.632Zm0-4.425a1.793,1.793,0,1,0,1.794,1.794,1.793,1.793,0,0,0-1.794-1.794Z" fill="#fff" />
                    <path d="M1175.67,2406.07h-.838a3.492,3.492,0,1,0-6.983,0h-.838a4.329,4.329,0,1,1,8.659,0Z" fill="#fff" />
                    <path d="M1175.16,2402.7v-2.8h-.538v-.838H1176v1.62l1.571-1.571h1.485v-4.323h-8.034v1.5h-.838v-2.334h9.71v6h-1.976Z" fill="#fff" />
                    <path d="M-677.2,2404.28l-4.668-4.67,4.668-4.67.707.707-3.961,3.963,3.961,3.963Z" fill="#fff" />
                    <path d="M-685.125,2407.13l-.707-.707,3.962-3.962-3.962-3.963.707-.707,4.669,4.67Z" fill="#fff" />
                    <path d="M-644.91,2405.04h-.838v-10.779h7.646v2.5h-.838V2395.1h-5.971Z" fill="#fff" />
                    <path d="M-638.1,2405.46h-3.819v-.838h2.981v-1.694h.838Z" fill="#fff" />
                    <path d="M-641.679,2406.68l-4.013-1.533v-10.555l4.013,1.533Zm-3.287-2.033,2.561.978v-9l-2.561-.978Z" fill="#fff" />
                    <rect width="4.139" height="0.838" transform="translate(-638.55 2399.158)" fill="#fff" />
                    <path d="M-637.96,2397.56l-3.5,2.018,3.5,2.018Z" fill="#fff" />
                    <path d="M-412.91,2405.04h-.838v-10.779h7.646v2.5h-.838V2395.1h-5.971Z" fill="#fff" />
                    <path d="M-406.1,2405.46h-3.819v-.838h2.981v-1.694h.838Z" fill="#fff" />
                    <path d="M-409.679,2406.68l-4.013-1.533v-10.555l4.013,1.533Zm-3.287-2.033,2.561.978v-9l-2.561-.978Z" fill="#fff" />
                    <rect width="4.139" height="0.838" transform="translate(-406.55 2399.158)" fill="#fff" />
                    <path d="M-405.96,2397.56l-3.5,2.018,3.5,2.018Z" fill="#fff" />
                    <g opacity="0.49">
                        <path d="M-525.343,2404.61a.493.493,0,0,1-.353-.146.5.5,0,0,1,0-.707l3.659-3.66-3.659-3.66a.5.5,0,0,1-.147-.354.5.5,0,0,1,.147-.354.5.5,0,0,1,.707,0l4.012,4.014a.5.5,0,0,1,0,.707l-4.012,4.014A.5.5,0,0,1-525.343,2404.61Z" fill="#fff" />
                    </g>
                    <path d="M-279.634,2405.95a6.364,6.364,0,0,1-6.358-6.357,6.366,6.366,0,0,1,6.358-6.359,6.366,6.366,0,0,1,6.358,6.359A6.364,6.364,0,0,1-279.634,2405.95Zm0-11.878a5.527,5.527,0,0,0-5.52,5.521,5.526,5.526,0,0,0,5.52,5.519,5.526,5.526,0,0,0,5.52-5.519,5.527,5.527,0,0,0-5.52-5.523Z" fill="#fff" />
                    <path d="M-262.008,2405.95a6.364,6.364,0,0,1-6.358-6.357,6.366,6.366,0,0,1,6.358-6.359,6.366,6.366,0,0,1,6.358,6.359,6.364,6.364,0,0,1-6.358,6.357Zm0-11.878a5.527,5.527,0,0,0-5.52,5.521,5.526,5.526,0,0,0,5.52,5.519,5.526,5.526,0,0,0,5.52-5.519,5.527,5.527,0,0,0-5.52-5.523Z" fill="#fff" />
                    <path d="M-282.261,2402.87a.417.417,0,0,1-.3-.123.418.418,0,0,1-.123-.3.418.418,0,0,1,.123-.3l5.586-5.586a.419.419,0,0,1,.3-.123.419.419,0,0,1,.3.123.42.42,0,0,1,0,.592l-5.586,5.586A.418.418,0,0,1-282.261,2402.87Z" fill="#fff" />
                    <path d="M-276.675,2402.87a.416.416,0,0,1-.3-.123l-5.586-5.586a.418.418,0,0,1-.123-.3.418.418,0,0,1,.123-.3.418.418,0,0,1,.3-.123.419.419,0,0,1,.3.123l5.586,5.586a.42.42,0,0,1,0,.592A.418.418,0,0,1-276.675,2402.87Z" fill="#fff" />
                    <path d="M-259.473,2402.76h-5.07a1.308,1.308,0,0,1-.93-.385,1.307,1.307,0,0,1-.387-.933,1.33,1.33,0,0,1,.176-.66l2.531-4.423a1.321,1.321,0,0,1,1.8-.49,1.325,1.325,0,0,1,.49.489l2.531,4.428a1.307,1.307,0,0,1,.128,1,1.311,1.311,0,0,1-.617.8,1.322,1.322,0,0,1-.652.174Zm-5.069-.768h5.064c.1.049.191-.024.275-.072a.553.553,0,0,0,.2-.753l-2.531-4.427a.558.558,0,0,0-.2-.2.551.551,0,0,0-.752.2l-2.532,4.425a.553.553,0,0,0-.075.277.555.555,0,0,0,.162.39.55.55,0,0,0,.389.16Z" fill="#fff" />
                    <path d="M-262.163,2397.65a.373.373,0,0,0-.372.372.4.4,0,0,0,.01.085l.351,2.178h.36l.323-2.18a.374.374,0,0,0-.282-.446.362.362,0,0,0-.081-.009Z" fill="#fff" />
                    <circle cx="0.465" cy="0.465" r="0.465" transform="translate(-262.473 2400.47)" fill="#fff" />
                    <path d="M243.49,1343.69l-2.373,8.4h-1.155l-1.728-6.141a3.882,3.882,0,0,1-.135-.855h-.023a4.38,4.38,0,0,1-.153.843l-1.74,6.153h-1.142l-2.461-8.4h1.084l1.787,6.446a4.194,4.194,0,0,1,.14.843h.03a4.959,4.959,0,0,1,.181-.843l1.858-6.446h.943l1.781,6.493a4.65,4.65,0,0,1,.141.785h.023a4.747,4.747,0,0,1,.159-.809l1.716-6.469Z" fill="#ddd" />
                    <path d="M248.962,1349.34h-4.236a2.245,2.245,0,0,0,.539,1.547,1.861,1.861,0,0,0,1.418.545,2.948,2.948,0,0,0,1.863-.668v.9a3.479,3.479,0,0,1-2.091.574,2.534,2.534,0,0,1-2-.817,3.343,3.343,0,0,1-.727-2.3,3.283,3.283,0,0,1,.794-2.282,2.544,2.544,0,0,1,1.972-.882,2.255,2.255,0,0,1,1.822.762,3.174,3.174,0,0,1,.644,2.115Zm-.984-.815a1.957,1.957,0,0,0-.4-1.294,1.368,1.368,0,0,0-1.1-.463,1.552,1.552,0,0,0-1.154.486,2.2,2.2,0,0,0-.586,1.271Z" fill="#ddd" />
                    <path d="M251.376,1352.1h-.96v-8.883h.96Z" fill="#ddd" />
                    <path d="M257.412,1351.82a3.118,3.118,0,0,1-1.641.416,2.713,2.713,0,0,1-2.071-.835,3.022,3.022,0,0,1-.788-2.165,3.329,3.329,0,0,1,.849-2.382,2.975,2.975,0,0,1,2.268-.9,3.157,3.157,0,0,1,1.394.293v.984a2.445,2.445,0,0,0-1.429-.468,1.929,1.929,0,0,0-1.509.659,2.5,2.5,0,0,0-.589,1.731,2.382,2.382,0,0,0,.554,1.664,1.906,1.906,0,0,0,1.485.61,2.408,2.408,0,0,0,1.477-.522Z" fill="#ddd" />
                    <path d="M261.373,1352.24a2.782,2.782,0,0,1-2.124-.84,3.113,3.113,0,0,1-.794-2.23,3.241,3.241,0,0,1,.826-2.361,2.968,2.968,0,0,1,2.232-.85,2.69,2.69,0,0,1,2.1.826,3.277,3.277,0,0,1,.753,2.291,3.224,3.224,0,0,1-.812,2.3A2.841,2.841,0,0,1,261.373,1352.24Zm.07-5.472a1.828,1.828,0,0,0-1.465.63,2.586,2.586,0,0,0-.539,1.737,2.45,2.45,0,0,0,.545,1.682,1.851,1.851,0,0,0,1.459.615,1.752,1.752,0,0,0,1.432-.6,2.617,2.617,0,0,0,.5-1.717,2.662,2.662,0,0,0-.5-1.734,1.747,1.747,0,0,0-1.432-.621Z" fill="#ddd" />
                    <path d="M274.416,1352.1h-.961v-3.446a2.6,2.6,0,0,0-.308-1.441,1.166,1.166,0,0,0-1.034-.445,1.28,1.28,0,0,0-1.046.562,2.153,2.153,0,0,0-.431,1.348v3.422h-.961v-3.563q0-1.768-1.365-1.769a1.264,1.264,0,0,0-1.043.53,2.193,2.193,0,0,0-.41,1.38v3.422H265.9v-6h.961v.949h.023a2.038,2.038,0,0,1,1.864-1.09,1.734,1.734,0,0,1,1.7,1.242,2.14,2.14,0,0,1,1.992-1.242q1.98,0,1.981,2.443Z" fill="#ddd" />
                    <path d="M281.054,1349.34h-4.236a2.24,2.24,0,0,0,.539,1.547,1.859,1.859,0,0,0,1.418.545,2.948,2.948,0,0,0,1.863-.668v.9a3.478,3.478,0,0,1-2.092.574,2.537,2.537,0,0,1-2-.817,3.347,3.347,0,0,1-.726-2.3,3.278,3.278,0,0,1,.794-2.282,2.543,2.543,0,0,1,1.971-.882,2.256,2.256,0,0,1,1.823.762,3.18,3.18,0,0,1,.644,2.115Zm-.984-.815a1.951,1.951,0,0,0-.4-1.294,1.364,1.364,0,0,0-1.1-.463,1.552,1.552,0,0,0-1.154.486,2.2,2.2,0,0,0-.586,1.271Z" fill="#ddd" />
                    <path d="M288.865,1349.13h-3.2v-.756h3.2Z" fill="#ddd" />
                    <path d="M300.255,1343.69l-3.111,8.4H296.06l-3.047-8.4h1.1l2.326,6.662a3.968,3.968,0,0,1,.17.745h.023a3.666,3.666,0,0,1,.194-.756l2.373-6.651Z" fill="#ddd" />
                    <path d="M301.826,1344.57a.606.606,0,0,1-.44-.176.592.592,0,0,1-.181-.445.615.615,0,0,1,.621-.627.623.623,0,0,1,.448,1.067A.616.616,0,0,1,301.826,1344.57Zm.468,7.524h-.961v-6h.961Z" fill="#ddd" />
                    <path d="M303.876,1351.88v-1.031a2.851,2.851,0,0,0,1.729.58q1.266,0,1.266-.844a.733.733,0,0,0-.109-.407,1.07,1.07,0,0,0-.293-.3,2.279,2.279,0,0,0-.433-.232l-.536-.213a6.823,6.823,0,0,1-.7-.32,2.109,2.109,0,0,1-.5-.363,1.358,1.358,0,0,1-.3-.46,1.615,1.615,0,0,1-.1-.6,1.434,1.434,0,0,1,.194-.747,1.714,1.714,0,0,1,.515-.545,2.437,2.437,0,0,1,.736-.331,3.265,3.265,0,0,1,.852-.111,3.441,3.441,0,0,1,1.395.27v.972a2.721,2.721,0,0,0-1.524-.433,1.775,1.775,0,0,0-.486.061,1.18,1.18,0,0,0-.372.173.779.779,0,0,0-.24.267.694.694,0,0,0-.085.342.815.815,0,0,0,.085.393.855.855,0,0,0,.249.281,1.88,1.88,0,0,0,.4.223c.156.066.334.139.533.217a7.393,7.393,0,0,1,.715.313,2.477,2.477,0,0,1,.539.363,1.42,1.42,0,0,1,.343.466,1.5,1.5,0,0,1,.12.627,1.479,1.479,0,0,1-.2.774,1.7,1.7,0,0,1-.525.545,2.391,2.391,0,0,1-.756.322,3.741,3.741,0,0,1-.9.1,3.417,3.417,0,0,1-1.612-.352Z" fill="#ddd" />
                    <path d="M314.183,1352.1h-.961v-.95H313.2a1.974,1.974,0,0,1-1.852,1.09q-2.145,0-2.144-2.554V1346.1h.955v3.433q0,1.9,1.453,1.9a1.469,1.469,0,0,0,1.157-.519,1.983,1.983,0,0,0,.454-1.356V1346.1h.961Z" fill="#ddd" />
                    <path d="M320.417,1352.1h-.96v-.938h-.024a2.011,2.011,0,0,1-1.846,1.078,1.974,1.974,0,0,1-1.4-.474,1.646,1.646,0,0,1-.507-1.26q0-1.681,1.981-1.957l1.8-.252q0-1.53-1.237-1.529a2.956,2.956,0,0,0-1.957.738v-.984a3.722,3.722,0,0,1,2.039-.563q2.115,0,2.115,2.238Zm-.96-3.035-1.448.2a2.352,2.352,0,0,0-1.008.331.955.955,0,0,0-.339.841.913.913,0,0,0,.313.717,1.209,1.209,0,0,0,.835.279,1.543,1.543,0,0,0,1.181-.5,1.793,1.793,0,0,0,.466-1.269Z" fill="#ddd" />
                    <path d="M323.189,1352.1h-.961v-8.883h.961Z" fill="#ddd" />
                    <path d="M328.158,1351.76v-1.16a2.28,2.28,0,0,0,.477.316,3.836,3.836,0,0,0,.586.237,4.553,4.553,0,0,0,.618.15,3.493,3.493,0,0,0,.575.053,2.252,2.252,0,0,0,1.356-.337,1.266,1.266,0,0,0,.3-1.562,1.687,1.687,0,0,0-.413-.46,4.1,4.1,0,0,0-.624-.4q-.36-.19-.777-.4-.439-.222-.82-.451a3.5,3.5,0,0,1-.662-.5,2.072,2.072,0,0,1-.442-.624,2.122,2.122,0,0,1,.09-1.816,2.163,2.163,0,0,1,.662-.7,2.974,2.974,0,0,1,.935-.41,4.279,4.279,0,0,1,1.069-.135,4.085,4.085,0,0,1,1.811.3v1.107a3.28,3.28,0,0,0-1.91-.516,3.138,3.138,0,0,0-.645.068,1.831,1.831,0,0,0-.574.219,1.277,1.277,0,0,0-.41.393,1.037,1.037,0,0,0-.158.586,1.209,1.209,0,0,0,.12.557,1.367,1.367,0,0,0,.354.427,3.544,3.544,0,0,0,.572.375q.336.181.776.4t.855.469a3.885,3.885,0,0,1,.709.544,2.407,2.407,0,0,1,.484.663,1.862,1.862,0,0,1,.179.832,2.108,2.108,0,0,1-.244,1.051,2,2,0,0,1-.656.7,2.876,2.876,0,0,1-.952.389,5.213,5.213,0,0,1-1.137.12,4.51,4.51,0,0,1-.492-.032c-.2-.021-.394-.053-.6-.094a4.779,4.779,0,0,1-.577-.152A1.82,1.82,0,0,1,328.158,1351.76Z" fill="#ddd" />
                    <path d="M337.193,1352.04a1.854,1.854,0,0,1-.9.188q-1.575,0-1.576-1.758v-3.551h-1.031v-.82h1.031v-1.465l.961-.311v1.776h1.512v.82h-1.512v3.381a1.406,1.406,0,0,0,.2.861.82.82,0,0,0,.68.258,1.011,1.011,0,0,0,.627-.2Z" fill="#ddd" />
                    <path d="M343.328,1352.1h-.961v-.95h-.024a1.971,1.971,0,0,1-1.851,1.09q-2.145,0-2.145-2.554V1346.1h.955v3.433q0,1.9,1.453,1.9a1.471,1.471,0,0,0,1.158-.519,1.988,1.988,0,0,0,.454-1.356V1346.1h.961Z" fill="#ddd" />
                    <path d="M350.388,1352.1h-.961v-1.02H349.4a2.422,2.422,0,0,1-3.87.355,3.308,3.308,0,0,1-.677-2.2,3.592,3.592,0,0,1,.75-2.384,2.473,2.473,0,0,1,2-.9,1.923,1.923,0,0,1,1.8.973h.023v-3.715h.961Zm-.961-2.713v-.885a1.717,1.717,0,0,0-.48-1.23,1.613,1.613,0,0,0-1.219-.5,1.661,1.661,0,0,0-1.383.644,2.826,2.826,0,0,0-.5,1.781,2.535,2.535,0,0,0,.484,1.638,1.578,1.578,0,0,0,1.3.6,1.641,1.641,0,0,0,1.3-.58,2.162,2.162,0,0,0,.5-1.475Z" fill="#ddd" />
                    <path d="M352.826,1344.57a.606.606,0,0,1-.44-.176.591.591,0,0,1-.181-.445.615.615,0,0,1,.621-.627.624.624,0,1,1,0,1.248Zm.468,7.524h-.961v-6h.961Z" fill="#ddd" />
                    <path d="M357.748,1352.24a2.782,2.782,0,0,1-2.124-.84,3.113,3.113,0,0,1-.794-2.23,3.241,3.241,0,0,1,.826-2.361,2.968,2.968,0,0,1,2.232-.85,2.69,2.69,0,0,1,2.1.826,3.277,3.277,0,0,1,.753,2.291,3.224,3.224,0,0,1-.812,2.3A2.842,2.842,0,0,1,357.748,1352.24Zm.07-5.472a1.828,1.828,0,0,0-1.465.63,2.586,2.586,0,0,0-.539,1.737,2.45,2.45,0,0,0,.545,1.682,1.851,1.851,0,0,0,1.459.615,1.752,1.752,0,0,0,1.432-.6,2.617,2.617,0,0,0,.5-1.717,2.662,2.662,0,0,0-.5-1.734,1.747,1.747,0,0,0-1.432-.621Z" fill="#ddd" />
                    <path d="M371.406,1351.74a4.933,4.933,0,0,1-2.321.492,3.741,3.741,0,0,1-2.871-1.154,4.261,4.261,0,0,1-1.078-3.029,4.466,4.466,0,0,1,1.213-3.258,4.118,4.118,0,0,1,3.076-1.242,4.949,4.949,0,0,1,1.981.345v1.049a4.017,4.017,0,0,0-1.992-.5,3.06,3.06,0,0,0-2.347.967,3.642,3.642,0,0,0-.9,2.584,3.465,3.465,0,0,0,.841,2.446,2.86,2.86,0,0,0,2.206.912,4.141,4.141,0,0,0,2.192-.563Z" fill="#ddd" />
                    <path d="M375.5,1352.24a2.782,2.782,0,0,1-2.124-.84,3.113,3.113,0,0,1-.794-2.23,3.241,3.241,0,0,1,.826-2.361,2.968,2.968,0,0,1,2.232-.85,2.69,2.69,0,0,1,2.1.826,3.277,3.277,0,0,1,.753,2.291,3.224,3.224,0,0,1-.812,2.3A2.841,2.841,0,0,1,375.5,1352.24Zm.07-5.472a1.827,1.827,0,0,0-1.465.63,2.586,2.586,0,0,0-.539,1.737,2.45,2.45,0,0,0,.545,1.682,1.852,1.852,0,0,0,1.459.615,1.756,1.756,0,0,0,1.433-.6,2.617,2.617,0,0,0,.5-1.717,2.662,2.662,0,0,0-.5-1.734,1.75,1.75,0,0,0-1.437-.621Z" fill="#ddd" />
                    <path d="M385.14,1352.1h-.961v-1.02h-.023a2.422,2.422,0,0,1-3.87.355,3.3,3.3,0,0,1-.677-2.2,3.592,3.592,0,0,1,.75-2.384,2.473,2.473,0,0,1,2-.9,1.923,1.923,0,0,1,1.8.973h.023v-3.715h.961Zm-.961-2.713v-.885a1.717,1.717,0,0,0-.48-1.23,1.613,1.613,0,0,0-1.219-.5,1.661,1.661,0,0,0-1.383.644,2.826,2.826,0,0,0-.5,1.781,2.535,2.535,0,0,0,.484,1.638,1.578,1.578,0,0,0,1.3.6,1.641,1.641,0,0,0,1.3-.58,2.162,2.162,0,0,0,.5-1.475Z" fill="#ddd" />
                    <path d="M391.908,1349.34h-4.237a2.25,2.25,0,0,0,.539,1.547,1.861,1.861,0,0,0,1.418.545,2.954,2.954,0,0,0,1.864-.668v.9a3.484,3.484,0,0,1-2.092.574,2.533,2.533,0,0,1-2-.817,3.343,3.343,0,0,1-.727-2.3,3.283,3.283,0,0,1,.794-2.282,2.546,2.546,0,0,1,1.972-.882,2.255,2.255,0,0,1,1.822.762,3.175,3.175,0,0,1,.645,2.115Zm-.985-.815a1.951,1.951,0,0,0-.4-1.294,1.367,1.367,0,0,0-1.1-.463,1.552,1.552,0,0,0-1.154.486,2.207,2.207,0,0,0-.586,1.271Z" fill="#ddd" />
                    <path d="M-484.889,1634.1v-28.708h13.413v1.821h-11.431v11.512h10.61v1.8h-10.61V1632.3h12.092v1.8Z" fill="#8e8e8e" />
                    <path d="M-450.235,1634.1v-3.724h-.08a7.491,7.491,0,0,1-2.963,3.083,8.636,8.636,0,0,1-4.425,1.141,7.788,7.788,0,0,1-6.175-2.762q-2.394-2.763-2.393-7.628a11.987,11.987,0,0,1,2.612-8.038,8.48,8.48,0,0,1,6.777-3.072,6.818,6.818,0,0,1,6.567,3.783h.08V1603.75h1.841v30.35Zm0-12.473a6.953,6.953,0,0,0-1.812-4.854,6.266,6.266,0,0,0-4.875-1.992,6.691,6.691,0,0,0-5.325,2.472,10.164,10.164,0,0,0-2.1,6.8,10.108,10.108,0,0,0,1.891,6.557,6.015,6.015,0,0,0,4.875,2.311,6.863,6.863,0,0,0,5.426-2.172,7.707,7.707,0,0,0,1.922-5.3Z" fill="#8e8e8e" />
                    <path d="M-440.926,1608.43a1.486,1.486,0,0,1-1.061-.441,1.483,1.483,0,0,1-.461-1.121,1.357,1.357,0,0,1,.47-1.071,1.561,1.561,0,0,1,1.052-.41,1.634,1.634,0,0,1,1.091.4,1.351,1.351,0,0,1,.47,1.081,1.508,1.508,0,0,1-.46,1.1,1.507,1.507,0,0,1-1.1.462Zm-.9,25.665v-20.5h1.842v20.5Z" fill="#8e8e8e" />
                    <path d="M-425.311,1633.81a6.356,6.356,0,0,1-2.7.681q-4.543,0-4.544-5.445v-13.774h-3.684V1613.6h3.684v-5.325c.293-.107.6-.213.921-.321q.48-.139.921-.3v5.946h5.4v1.681h-5.4v13.534a5.448,5.448,0,0,0,.67,3.073,2.587,2.587,0,0,0,2.273.95,5.078,5.078,0,0,0,2.462-.74Z" fill="#8e8e8e" />
                    <path d="M-420.346,1608.43a1.486,1.486,0,0,1-1.061-.441,1.483,1.483,0,0,1-.461-1.121,1.354,1.354,0,0,1,.471-1.071,1.556,1.556,0,0,1,1.051-.41,1.634,1.634,0,0,1,1.091.4,1.35,1.35,0,0,1,.47,1.081,1.5,1.5,0,0,1-.46,1.1,1.506,1.506,0,0,1-1.1.462Zm-.9,25.665v-20.5h1.842v20.5Z" fill="#8e8e8e" />
                    <path d="M-398.9,1634.1v-11.932q0-7.387-5.325-7.387a6.174,6.174,0,0,0-4.865,2.172,7.868,7.868,0,0,0-1.9,5.375V1634.1h-1.842v-20.5H-411v3.723h.08a7.419,7.419,0,0,1,7.007-4.223,6.118,6.118,0,0,1,5.085,2.212,9.926,9.926,0,0,1,1.762,6.315V1634.1Z" fill="#8e8e8e" />
                    <path d="M-374.5,1632.57q0,5.786-2.523,8.469t-7.848,2.682a13.689,13.689,0,0,1-6.106-1.561v-1.922a12.711,12.711,0,0,0,6.146,1.8q8.488,0,8.489-8.969v-2.662h-.08a7.976,7.976,0,0,1-7.388,4.184,7.812,7.812,0,0,1-6.175-2.742q-2.394-2.743-2.393-7.648a12.1,12.1,0,0,1,2.583-8.008,8.42,8.42,0,0,1,6.806-3.1,6.935,6.935,0,0,1,6.567,3.743h.08V1613.6h1.842Zm-1.842-11.111a6.7,6.7,0,0,0-1.832-4.7,6.2,6.2,0,0,0-4.775-1.982,6.665,6.665,0,0,0-5.445,2.542,10.356,10.356,0,0,0-2.062,6.727,10.116,10.116,0,0,0,1.892,6.536,6.111,6.111,0,0,0,4.995,2.332,6.788,6.788,0,0,0,5.265-2.142,7.481,7.481,0,0,0,1.962-5.245Z" fill="#8e8e8e" />
                    <path d="M-356.264,1623.93a10.139,10.139,0,0,0,1.952,6.606,6.546,6.546,0,0,0,5.355,2.382,10.9,10.9,0,0,0,6.727-2.542v1.962a11.977,11.977,0,0,1-7.107,2.262,8.041,8.041,0,0,1-6.406-2.842q-2.443-2.844-2.443-8.028a11.433,11.433,0,0,1,2.553-7.558A8.221,8.221,0,0,1-349,1613.1a6.929,6.929,0,0,1,5.866,2.681,11.833,11.833,0,0,1,2.042,7.328v.821Zm13.253-1.682a9.076,9.076,0,0,0-1.7-5.506,5.3,5.3,0,0,0-4.365-1.961,6.4,6.4,0,0,0-4.775,1.932,9.283,9.283,0,0,0-2.332,5.535Z" fill="#8e8e8e" />
                    <path d="M-329.277,1634.1h-1.682l-7.928-20.5h2.062l6.106,16.316a13.075,13.075,0,0,1,.621,2.142h.08a12.446,12.446,0,0,1,.58-2.062l6.307-16.4h2Z" fill="#8e8e8e" />
                    <path d="M-309.2,1634.6a9,9,0,0,1-7.1-2.952,11.162,11.162,0,0,1-2.612-7.678q0-5.1,2.732-7.987a9.458,9.458,0,0,1,7.2-2.883,8.794,8.794,0,0,1,6.927,2.862q2.543,2.863,2.543,7.928a11.338,11.338,0,0,1-2.593,7.747A8.944,8.944,0,0,1-309.2,1634.6Zm.14-19.819a7.309,7.309,0,0,0-5.775,2.442,9.92,9.92,0,0,0-2.152,6.787,9.569,9.569,0,0,0,2.1,6.467,7.182,7.182,0,0,0,5.745,2.441,7.013,7.013,0,0,0,5.706-2.4,10.116,10.116,0,0,0,2-6.666q0-4.384-1.992-6.727a7,7,0,0,0-5.63-2.345Z" fill="#8e8e8e" />
                    <path d="M-294.423,1634.1v-30.35h1.841v30.35Z" fill="#8e8e8e" />
                    <path d="M-279.289,1634.1h-1.681l-7.928-20.5h2.062l6.106,16.316a13.181,13.181,0,0,1,.621,2.142h.08a12.348,12.348,0,0,1,.58-2.062l6.306-16.4h2Z" fill="#8e8e8e" />
                    <path d="M-267,1623.93a10.134,10.134,0,0,0,1.953,6.606,6.545,6.545,0,0,0,5.355,2.382,10.9,10.9,0,0,0,6.726-2.542v1.962a11.977,11.977,0,0,1-7.107,2.262,8.042,8.042,0,0,1-6.406-2.842q-2.442-2.844-2.442-8.028a11.433,11.433,0,0,1,2.552-7.558,8.222,8.222,0,0,1,6.637-3.072,6.928,6.928,0,0,1,5.865,2.681,11.827,11.827,0,0,1,2.042,7.328v.821Zm13.253-1.682a9.076,9.076,0,0,0-1.7-5.506,5.3,5.3,0,0,0-4.365-1.961,6.4,6.4,0,0,0-4.774,1.932,9.278,9.278,0,0,0-2.333,5.535Z" fill="#8e8e8e" />
                    <path d="M-232.183,1634.1v-3.724h-.08a7.479,7.479,0,0,1-2.963,3.083,8.631,8.631,0,0,1-4.424,1.141,7.792,7.792,0,0,1-6.176-2.762q-2.393-2.763-2.392-7.628a11.987,11.987,0,0,1,2.612-8.038,8.48,8.48,0,0,1,6.777-3.072,6.816,6.816,0,0,1,6.566,3.783h.08V1603.75h1.842v30.35Zm0-12.473a6.953,6.953,0,0,0-1.812-4.854,6.264,6.264,0,0,0-4.874-1.992,6.691,6.691,0,0,0-5.325,2.472,10.159,10.159,0,0,0-2.1,6.8,10.1,10.1,0,0,0,1.891,6.557,6.013,6.013,0,0,0,4.875,2.311,6.866,6.866,0,0,0,5.426-2.172,7.707,7.707,0,0,0,1.921-5.3Z" fill="#8e8e8e" />
                    <path d="M-486.469,1710.32v-1.711a8.705,8.705,0,0,0,4.723,1.484,6.083,6.083,0,0,0,3.86-1.052,3.555,3.555,0,0,0,1.317-2.944,3.841,3.841,0,0,0-.886-2.657,17.479,17.479,0,0,0-3.837-2.7,13.612,13.612,0,0,1-4.178-3.217,5.2,5.2,0,0,1-.878-2.989,5.057,5.057,0,0,1,1.786-3.905,6.872,6.872,0,0,1,4.769-1.6,12.083,12.083,0,0,1,3.875.652v1.574a9.753,9.753,0,0,0-4.072-.863,5.173,5.173,0,0,0-3.5,1.12,3.6,3.6,0,0,0-1.294,2.845,3.81,3.81,0,0,0,.886,2.65,17.491,17.491,0,0,0,3.822,2.679,13.634,13.634,0,0,1,4.049,3.065,4.991,4.991,0,0,1,1.007,3.08,5.249,5.249,0,0,1-1.733,4.072,7.031,7.031,0,0,1-4.9,1.575,11.32,11.32,0,0,1-2.581-.349,8.353,8.353,0,0,1-2.23-.809Z" fill="#e1e1e1" />
                    <path d="M-464.551,1710.88a4.8,4.8,0,0,1-2.043.514q-3.437,0-3.436-4.117v-10.414h-2.785V1695.6h2.785v-4.027c.221-.081.454-.161.7-.242s.474-.146.7-.227v4.5h4.087v1.271h-4.087V1707.1a4.108,4.108,0,0,0,.508,2.323,1.955,1.955,0,0,0,1.717.72,3.85,3.85,0,0,0,1.862-.561Z" fill="#e1e1e1" />
                    <path d="M-452.214,1711.1V1708h-.061a6.069,6.069,0,0,1-2.157,2.536,5.533,5.533,0,0,1-3.141.947,4.816,4.816,0,0,1-3.5-1.243,4.166,4.166,0,0,1-1.287-3.132q0-4.056,5.374-4.9l4.768-.711q0-4.995-3.754-5a7.647,7.647,0,0,0-4.98,2.059v-1.68a7.6,7.6,0,0,1,2.338-1.166,8.958,8.958,0,0,1,2.778-.484,4.677,4.677,0,0,1,3.7,1.484,6.326,6.326,0,0,1,1.309,4.314V1711.1Zm-4.269-7.72a7.387,7.387,0,0,0-3.421,1.128,3.04,3.04,0,0,0-.984,2.535,3.037,3.037,0,0,0,.916,2.271,3.5,3.5,0,0,0,2.551.893,4.787,4.787,0,0,0,3.723-1.658,6.17,6.17,0,0,0,1.484-4.275v-1.514Z" fill="#e1e1e1" />
                    <path d="M-438.849,1697.05a2.731,2.731,0,0,0-1.634-.5,3.616,3.616,0,0,0-3.073,1.892,9.774,9.774,0,0,0-1.241,5.373v7.282h-1.363v-15.5h1.363v3.435h.06a5.646,5.646,0,0,1,1.68-2.754,3.976,3.976,0,0,1,2.664-.984,4.138,4.138,0,0,1,1.544.272Z" fill="#e1e1e1" />
                    <path d="M-428.435,1710.88a4.8,4.8,0,0,1-2.043.514q-3.437,0-3.436-4.117v-10.414H-436.7V1695.6h2.785v-4.027c.222-.081.454-.161.7-.242s.474-.146.7-.227v4.5h4.086v1.271h-4.086V1707.1a4.108,4.108,0,0,0,.507,2.323,1.955,1.955,0,0,0,1.718.72,3.847,3.847,0,0,0,1.861-.561Z" fill="#e1e1e1" />
                    <path d="M-433.792,1757.1H-435.9l-7.567-11.721a4.827,4.827,0,0,1-.472-.922H-444a15.261,15.261,0,0,1,.082,2.02V1757.1h-1.723v-14.7h2.235l7.363,11.536q.461.717.594.984h.041a15.638,15.638,0,0,1-.1-2.164V1742.4h1.722Z" fill="#007bd5" />
                    <path d="M-421.723,1752.27h-7.413a3.925,3.925,0,0,0,.943,2.707,3.253,3.253,0,0,0,2.482.954,5.16,5.16,0,0,0,3.26-1.169v1.579a6.094,6.094,0,0,1-3.66,1.005,4.438,4.438,0,0,1-3.5-1.431,5.852,5.852,0,0,1-1.271-4.024,5.738,5.738,0,0,1,1.389-3.994,4.453,4.453,0,0,1,3.45-1.543,3.947,3.947,0,0,1,3.189,1.333,5.556,5.556,0,0,1,1.128,3.7Zm-1.722-1.425a3.423,3.423,0,0,0-.7-2.267,2.394,2.394,0,0,0-1.922-.809,2.72,2.72,0,0,0-2.02.85,3.869,3.869,0,0,0-1.026,2.226Z" fill="#007bd5" />
                    <path d="M-405.952,1746.6l-3.148,10.5h-1.743l-2.164-7.516a4.871,4.871,0,0,1-.164-.975h-.041a4.542,4.542,0,0,1-.215.954l-2.348,7.537h-1.682l-3.179-10.5h1.764l2.174,7.9a4.761,4.761,0,0,1,.143.944h.082a4.42,4.42,0,0,1,.185-.964l2.42-7.875h1.538l2.174,7.916a5.763,5.763,0,0,1,.154.943h.082a4.284,4.284,0,0,1,.174-.943l2.133-7.916Z" fill="#007bd5" />
                    <path d="M-390.561,1743.95H-396.3v5.086h5.311v1.548H-396.3v6.512h-1.723v-14.7h7.465Z" fill="#007bd5" />
                    <path d="M-387.136,1743.93a1.066,1.066,0,0,1-.769-.308,1.039,1.039,0,0,1-.318-.779,1.052,1.052,0,0,1,.318-.784,1.054,1.054,0,0,1,.769-.313,1.084,1.084,0,0,1,.784.313,1.042,1.042,0,0,1,.323.784,1.032,1.032,0,0,1-.323.768,1.073,1.073,0,0,1-.784.319Zm.82,13.166H-388v-10.5h1.682Z" fill="#007bd5" />
                    <path d="M-381.23,1757.1h-1.682v-15.545h1.682Z" fill="#007bd5" />
                    <path d="M-369.387,1752.27H-376.8a3.925,3.925,0,0,0,.943,2.707,3.253,3.253,0,0,0,2.482.954,5.16,5.16,0,0,0,3.26-1.169v1.579a6.094,6.094,0,0,1-3.66,1.005,4.438,4.438,0,0,1-3.5-1.431,5.852,5.852,0,0,1-1.271-4.024,5.738,5.738,0,0,1,1.389-3.994,4.453,4.453,0,0,1,3.45-1.543,3.947,3.947,0,0,1,3.189,1.333,5.556,5.556,0,0,1,1.128,3.7Zm-1.722-1.425a3.423,3.423,0,0,0-.7-2.267,2.394,2.394,0,0,0-1.922-.809,2.72,2.72,0,0,0-2.02.85,3.869,3.869,0,0,0-1.026,2.226Z" fill="#007bd5" />
                    <path d="M-366.259,1757.32a1.082,1.082,0,0,1-.8-.339,1.106,1.106,0,0,1-.333-.809,1.13,1.13,0,0,1,.333-.816,1.083,1.083,0,0,1,.8-.343,1.112,1.112,0,0,1,.82.343,1.123,1.123,0,0,1,.338.816,1.1,1.1,0,0,1-.338.809A1.113,1.113,0,0,1-366.259,1757.32Z" fill="#007bd5" />
                    <path d="M-361.707,1757.32a1.085,1.085,0,0,1-.8-.339,1.11,1.11,0,0,1-.333-.809,1.134,1.134,0,0,1,.333-.816,1.084,1.084,0,0,1,.8-.343,1.113,1.113,0,0,1,.821.343,1.127,1.127,0,0,1,.338.816,1.1,1.1,0,0,1-.338.809,1.114,1.114,0,0,1-.821.339Z" fill="#007bd5" />
                    <path d="M-357.154,1757.32a1.085,1.085,0,0,1-.8-.339,1.11,1.11,0,0,1-.333-.809,1.134,1.134,0,0,1,.333-.816,1.084,1.084,0,0,1,.8-.343,1.114,1.114,0,0,1,.821.343,1.127,1.127,0,0,1,.338.816,1.1,1.1,0,0,1-.338.809,1.115,1.115,0,0,1-.821.339Z" fill="#007bd5" />
                    <path d="M-439.718,1793.34a6.456,6.456,0,0,1-5.009-2.061,7.644,7.644,0,0,1-1.882-5.363,8.1,8.1,0,0,1,1.918-5.66,6.7,6.7,0,0,1,5.219-2.112,6.308,6.308,0,0,1,4.906,2.05,7.673,7.673,0,0,1,1.861,5.363,8.124,8.124,0,0,1-1.907,5.691,6.57,6.57,0,0,1-5.106,2.092Zm.123-13.638a4.743,4.743,0,0,0-3.763,1.671,6.473,6.473,0,0,0-1.446,4.389,6.518,6.518,0,0,0,1.41,4.374,4.6,4.6,0,0,0,3.676,1.655,4.824,4.824,0,0,0,3.814-1.578,6.455,6.455,0,0,0,1.395-4.42,6.744,6.744,0,0,0-1.354-4.5,4.642,4.642,0,0,0-3.737-1.593Z" fill="#007bd5" />
                    <path d="M-428.316,1791.58h-.041v6.348h-1.682V1782.6h1.682v1.845h.041a3.977,3.977,0,0,1,3.63-2.091,3.84,3.84,0,0,1,3.168,1.41,5.836,5.836,0,0,1,1.139,3.778,6.513,6.513,0,0,1-1.282,4.22,4.272,4.272,0,0,1-3.507,1.584,3.513,3.513,0,0,1-3.148-1.766Zm-.041-4.234v1.466a3.125,3.125,0,0,0,.846,2.21,2.812,2.812,0,0,0,2.148.907,2.817,2.817,0,0,0,2.4-1.169,5.365,5.365,0,0,0,.866-3.25,4.231,4.231,0,0,0-.81-2.748,2.682,2.682,0,0,0-2.194-.995,2.978,2.978,0,0,0-2.359,1.02,3.745,3.745,0,0,0-.9,2.553Z" fill="#007bd5" />
                    <path d="M-409.254,1788.27h-7.413a3.92,3.92,0,0,0,.943,2.707,3.251,3.251,0,0,0,2.481.954,5.161,5.161,0,0,0,3.261-1.169v1.579a6.1,6.1,0,0,1-3.661,1.005,4.436,4.436,0,0,1-3.5-1.431,5.852,5.852,0,0,1-1.272-4.024,5.739,5.739,0,0,1,1.39-3.994,4.453,4.453,0,0,1,3.45-1.543,3.947,3.947,0,0,1,3.189,1.333,5.556,5.556,0,0,1,1.128,3.7Zm-1.723-1.425a3.418,3.418,0,0,0-.7-2.267,2.4,2.4,0,0,0-1.923-.809,2.721,2.721,0,0,0-2.02.85,3.875,3.875,0,0,0-1.025,2.226Z" fill="#007bd5" />
                    <path d="M-397.995,1793.1h-1.682v-5.989q0-3.342-2.44-3.342a2.648,2.648,0,0,0-2.087.948,3.52,3.52,0,0,0-.825,2.394v5.989h-1.682v-10.5h1.682v1.743h.041a3.789,3.789,0,0,1,3.445-1.989,3.214,3.214,0,0,1,2.635,1.112,4.952,4.952,0,0,1,.913,3.215Z" fill="#007bd5" />
                    <path d="M-381.384,1779.95h-5.742v5.086h5.312v1.548h-5.312v6.512h-1.723v-14.7h7.465Z" fill="#007bd5" />
                    <path d="M-377.959,1779.93a1.066,1.066,0,0,1-.769-.308,1.038,1.038,0,0,1-.318-.779,1.052,1.052,0,0,1,.318-.784,1.054,1.054,0,0,1,.769-.313,1.083,1.083,0,0,1,.784.313,1.043,1.043,0,0,1,.323.784,1.033,1.033,0,0,1-.323.768,1.071,1.071,0,0,1-.784.319Zm.82,13.166h-1.681v-10.5h1.681Z" fill="#007bd5" />
                    <path d="M-372.053,1793.1h-1.681v-15.545h1.681Z" fill="#007bd5" />
                    <path d="M-360.209,1788.27h-7.414a3.925,3.925,0,0,0,.943,2.707,3.254,3.254,0,0,0,2.482.954,5.16,5.16,0,0,0,3.26-1.169v1.579a6.092,6.092,0,0,1-3.66,1.005,4.438,4.438,0,0,1-3.5-1.431,5.856,5.856,0,0,1-1.271-4.024,5.744,5.744,0,0,1,1.389-3.994,4.455,4.455,0,0,1,3.451-1.543,3.947,3.947,0,0,1,3.189,1.333,5.557,5.557,0,0,1,1.128,3.7Zm-1.723-1.425a3.423,3.423,0,0,0-.7-2.267,2.394,2.394,0,0,0-1.922-.809,2.721,2.721,0,0,0-2.02.85,3.869,3.869,0,0,0-1.026,2.226Z" fill="#007bd5" />
                    <path d="M-357.082,1793.32a1.086,1.086,0,0,1-.8-.339,1.11,1.11,0,0,1-.333-.809,1.134,1.134,0,0,1,.333-.816,1.084,1.084,0,0,1,.8-.343,1.112,1.112,0,0,1,.82.343,1.123,1.123,0,0,1,.339.816,1.1,1.1,0,0,1-.339.809,1.112,1.112,0,0,1-.82.339Z" fill="#007bd5" />
                    <path d="M-352.529,1793.32a1.083,1.083,0,0,1-.8-.339,1.105,1.105,0,0,1-.333-.809,1.13,1.13,0,0,1,.333-.816,1.082,1.082,0,0,1,.805-.343,1.111,1.111,0,0,1,.82.343,1.123,1.123,0,0,1,.338.816,1.1,1.1,0,0,1-.338.809,1.113,1.113,0,0,1-.82.339Z" fill="#007bd5" />
                    <path d="M-347.977,1793.32a1.086,1.086,0,0,1-.8-.339,1.11,1.11,0,0,1-.333-.809,1.134,1.134,0,0,1,.333-.816,1.084,1.084,0,0,1,.805-.343,1.113,1.113,0,0,1,.821.343,1.127,1.127,0,0,1,.338.816,1.1,1.1,0,0,1-.338.809,1.113,1.113,0,0,1-.821.339Z" fill="#007bd5" />
                    <path d="M-439.718,1833.34a6.456,6.456,0,0,1-5.009-2.061,7.644,7.644,0,0,1-1.882-5.363,8.1,8.1,0,0,1,1.918-5.66,6.7,6.7,0,0,1,5.219-2.112,6.308,6.308,0,0,1,4.906,2.05,7.673,7.673,0,0,1,1.861,5.363,8.124,8.124,0,0,1-1.907,5.691A6.57,6.57,0,0,1-439.718,1833.34Zm.123-13.638a4.743,4.743,0,0,0-3.763,1.671,6.473,6.473,0,0,0-1.446,4.389,6.518,6.518,0,0,0,1.41,4.374,4.6,4.6,0,0,0,3.676,1.655,4.825,4.825,0,0,0,3.814-1.578,6.455,6.455,0,0,0,1.395-4.42,6.745,6.745,0,0,0-1.354-4.5,4.641,4.641,0,0,0-3.737-1.593Z" fill="#007bd5" />
                    <path d="M-428.316,1831.58h-.041v6.348h-1.682V1822.6h1.682v1.845h.041a3.977,3.977,0,0,1,3.63-2.091,3.841,3.841,0,0,1,3.168,1.41,5.835,5.835,0,0,1,1.139,3.778,6.513,6.513,0,0,1-1.282,4.22,4.272,4.272,0,0,1-3.507,1.584,3.513,3.513,0,0,1-3.148-1.766Zm-.041-4.234v1.466a3.125,3.125,0,0,0,.846,2.21,2.812,2.812,0,0,0,2.148.907,2.818,2.818,0,0,0,2.4-1.169,5.365,5.365,0,0,0,.866-3.25,4.231,4.231,0,0,0-.81-2.748,2.682,2.682,0,0,0-2.194-.995,2.978,2.978,0,0,0-2.359,1.02,3.745,3.745,0,0,0-.9,2.553Z" fill="#007bd5" />
                    <path d="M-409.254,1828.27h-7.413a3.92,3.92,0,0,0,.943,2.707,3.251,3.251,0,0,0,2.481.954,5.161,5.161,0,0,0,3.261-1.169v1.579a6.1,6.1,0,0,1-3.661,1,4.436,4.436,0,0,1-3.5-1.431,5.851,5.851,0,0,1-1.272-4.024,5.739,5.739,0,0,1,1.39-3.994,4.453,4.453,0,0,1,3.45-1.543,3.947,3.947,0,0,1,3.189,1.333,5.556,5.556,0,0,1,1.128,3.7Zm-1.723-1.425a3.418,3.418,0,0,0-.7-2.267,2.4,2.4,0,0,0-1.923-.809,2.722,2.722,0,0,0-2.02.85,3.875,3.875,0,0,0-1.025,2.226Z" fill="#007bd5" />
                    <path d="M-397.995,1833.1h-1.682v-5.989q0-3.342-2.44-3.342a2.647,2.647,0,0,0-2.087.948,3.519,3.519,0,0,0-.825,2.394v5.989h-1.682v-10.5h1.682v1.743h.041a3.789,3.789,0,0,1,3.445-1.989,3.214,3.214,0,0,1,2.635,1.112,4.952,4.952,0,0,1,.913,3.215Z" fill="#007bd5" />
                    <path d="M-381.384,1819.95h-5.742v5.086h5.312v1.548h-5.312v6.512h-1.723v-14.7h7.465Z" fill="#007bd5" />
                    <path d="M-374.432,1833.34a4.863,4.863,0,0,1-3.716-1.472,5.444,5.444,0,0,1-1.39-3.9,5.679,5.679,0,0,1,1.446-4.133,5.2,5.2,0,0,1,3.906-1.486,4.711,4.711,0,0,1,3.666,1.445,5.738,5.738,0,0,1,1.318,4.01,5.643,5.643,0,0,1-1.42,4.024,4.976,4.976,0,0,1-3.81,1.512Zm.123-9.577a3.2,3.2,0,0,0-2.563,1.1,4.525,4.525,0,0,0-.943,3.04,4.279,4.279,0,0,0,.953,2.943,3.241,3.241,0,0,0,2.553,1.077,3.073,3.073,0,0,0,2.507-1.056,4.582,4.582,0,0,0,.877-3.005,4.659,4.659,0,0,0-.877-3.035,3.058,3.058,0,0,0-2.507-1.057Z" fill="#007bd5" />
                    <path d="M-364.834,1833.1h-1.682v-15.545h1.682Z" fill="#007bd5" />
                    <path d="M-352.468,1833.1h-1.681v-1.784h-.041a3.884,3.884,0,0,1-3.61,2.03,3.92,3.92,0,0,1-3.163-1.41,5.782,5.782,0,0,1-1.184-3.84,6.3,6.3,0,0,1,1.312-4.174,4.332,4.332,0,0,1,3.5-1.568,3.367,3.367,0,0,1,3.148,1.7h.041v-6.5h1.681Zm-1.681-4.748V1826.8a3.008,3.008,0,0,0-.841-2.154,2.824,2.824,0,0,0-2.133-.881,2.9,2.9,0,0,0-2.42,1.128,4.941,4.941,0,0,0-.882,3.117,4.446,4.446,0,0,0,.846,2.866,2.766,2.766,0,0,0,2.271,1.051,2.875,2.875,0,0,0,2.282-1.015,3.783,3.783,0,0,0,.877-2.562Z" fill="#007bd5" />
                    <path d="M-340.625,1828.27h-7.413a3.925,3.925,0,0,0,.943,2.707,3.253,3.253,0,0,0,2.482.954,5.16,5.16,0,0,0,3.26-1.169v1.579a6.092,6.092,0,0,1-3.66,1,4.438,4.438,0,0,1-3.5-1.431,5.856,5.856,0,0,1-1.271-4.024,5.743,5.743,0,0,1,1.389-3.994,4.455,4.455,0,0,1,3.451-1.543,3.947,3.947,0,0,1,3.189,1.333,5.556,5.556,0,0,1,1.127,3.7Zm-1.722-1.425a3.423,3.423,0,0,0-.7-2.267,2.394,2.394,0,0,0-1.922-.809,2.721,2.721,0,0,0-2.02.85,3.87,3.87,0,0,0-1.026,2.226Z" fill="#007bd5" />
                    <path d="M-332.606,1824.3a2.055,2.055,0,0,0-1.271-.339,2.147,2.147,0,0,0-1.8,1.016,4.688,4.688,0,0,0-.723,2.768v5.353h-1.682v-10.5h1.682v2.164h.041a3.668,3.668,0,0,1,1.1-1.729,2.506,2.506,0,0,1,1.651-.62,2.734,2.734,0,0,1,1,.144Z" fill="#007bd5" />
                    <path d="M-330.2,1833.32a1.083,1.083,0,0,1-.8-.339,1.106,1.106,0,0,1-.333-.809,1.13,1.13,0,0,1,.333-.816,1.083,1.083,0,0,1,.8-.343,1.112,1.112,0,0,1,.82.343,1.123,1.123,0,0,1,.338.816,1.1,1.1,0,0,1-.338.809,1.113,1.113,0,0,1-.82.339Z" fill="#007bd5" />
                    <path d="M-325.644,1833.32a1.085,1.085,0,0,1-.8-.339,1.11,1.11,0,0,1-.333-.809,1.134,1.134,0,0,1,.333-.816,1.084,1.084,0,0,1,.8-.343,1.113,1.113,0,0,1,.821.343,1.127,1.127,0,0,1,.338.816,1.1,1.1,0,0,1-.338.809,1.114,1.114,0,0,1-.821.339Z" fill="#007bd5" />
                    <path d="M-321.091,1833.32a1.085,1.085,0,0,1-.8-.339,1.11,1.11,0,0,1-.333-.809,1.134,1.134,0,0,1,.333-.816,1.084,1.084,0,0,1,.8-.343,1.112,1.112,0,0,1,.82.343,1.124,1.124,0,0,1,.339.816,1.1,1.1,0,0,1-.339.809,1.111,1.111,0,0,1-.82.339Z" fill="#007bd5" />
                    <path d="M-435.1,1873.1h-2.051l-2.461-4.122a8.986,8.986,0,0,0-.656-.98,3.789,3.789,0,0,0-.651-.661,2.244,2.244,0,0,0-.718-.374,2.932,2.932,0,0,0-.866-.118h-1.415v6.255h-1.723v-14.7h4.389a6.253,6.253,0,0,1,1.779.241,3.971,3.971,0,0,1,1.415.732,3.43,3.43,0,0,1,.938,1.226,4.058,4.058,0,0,1,.338,1.718,4.162,4.162,0,0,1-.23,1.41,3.685,3.685,0,0,1-.656,1.142,3.981,3.981,0,0,1-1.026.857,5.232,5.232,0,0,1-1.348.549v.041a3.083,3.083,0,0,1,.64.374,3.514,3.514,0,0,1,.518.5,6.635,6.635,0,0,1,.487.65q.242.365.539.846Zm-8.818-13.146v5.332h2.338a3.55,3.55,0,0,0,1.194-.194,2.769,2.769,0,0,0,.949-.56,2.533,2.533,0,0,0,.625-.891,3,3,0,0,0,.226-1.185,2.309,2.309,0,0,0-.764-1.841,3.289,3.289,0,0,0-2.21-.661Z" fill="#007bd5" />
                    <path d="M-424.819,1873.1H-426.5v-1.661h-.041a3.453,3.453,0,0,1-3.24,1.907q-3.753,0-3.753-4.471V1862.6h1.671v6.008q0,3.322,2.543,3.323a2.575,2.575,0,0,0,2.025-.907,3.474,3.474,0,0,0,.8-2.374v-6.05h1.682Z" fill="#007bd5" />
                    <path d="M-412.709,1873.1h-1.682v-5.989q0-3.342-2.441-3.342a2.646,2.646,0,0,0-2.086.948,3.514,3.514,0,0,0-.826,2.394v5.989h-1.681v-10.5h1.681v1.743h.041a3.791,3.791,0,0,1,3.446-1.989,3.213,3.213,0,0,1,2.635,1.112,4.958,4.958,0,0,1,.913,3.215Z" fill="#007bd5" />
                    <path d="M-396.272,1873.1h-1.682v-1.641h-.041a3.521,3.521,0,0,1-3.23,1.887,3.458,3.458,0,0,1-2.456-.83,2.881,2.881,0,0,1-.887-2.2q0-2.943,3.466-3.425l3.148-.441q0-2.678-2.164-2.676a5.163,5.163,0,0,0-3.424,1.292v-1.723a6.506,6.506,0,0,1,3.568-.984q3.7,0,3.7,3.917Zm-1.682-5.312-2.533.349a4.113,4.113,0,0,0-1.763.579,1.67,1.67,0,0,0-.6,1.472,1.6,1.6,0,0,0,.549,1.255,2.112,2.112,0,0,0,1.461.488,2.7,2.7,0,0,0,2.066-.877,3.133,3.133,0,0,0,.815-2.22Z" fill="#007bd5" />
                    <path d="M-377.118,1872.48a8.616,8.616,0,0,1-4.061.862,6.547,6.547,0,0,1-5.024-2.02,7.452,7.452,0,0,1-1.887-5.3,7.816,7.816,0,0,1,2.123-5.7,7.2,7.2,0,0,1,5.383-2.173,8.658,8.658,0,0,1,3.466.6v1.836a7.028,7.028,0,0,0-3.486-.882,5.349,5.349,0,0,0-4.107,1.692,6.37,6.37,0,0,0-1.574,4.522,6.06,6.06,0,0,0,1.472,4.281,5,5,0,0,0,3.86,1.594,7.247,7.247,0,0,0,3.835-.984Z" fill="#007bd5" />
                    <path d="M-369.961,1873.34a4.865,4.865,0,0,1-3.717-1.472,5.448,5.448,0,0,1-1.389-3.9,5.683,5.683,0,0,1,1.445-4.133,5.2,5.2,0,0,1,3.907-1.486,4.712,4.712,0,0,1,3.666,1.445,5.738,5.738,0,0,1,1.318,4.01,5.643,5.643,0,0,1-1.42,4.024A4.976,4.976,0,0,1-369.961,1873.34Zm.123-9.577a3.2,3.2,0,0,0-2.563,1.1,4.527,4.527,0,0,0-.944,3.04,4.279,4.279,0,0,0,.954,2.943,3.241,3.241,0,0,0,2.553,1.077,3.074,3.074,0,0,0,2.507-1.056,4.581,4.581,0,0,0,.877-3.005,4.659,4.659,0,0,0-.877-3.035,3.059,3.059,0,0,0-2.507-1.057Z" fill="#007bd5" />
                    <path d="M-347.136,1873.1h-1.681v-6.03a4.554,4.554,0,0,0-.538-2.522,2.044,2.044,0,0,0-1.811-.779,2.243,2.243,0,0,0-1.83.984,3.767,3.767,0,0,0-.754,2.358v5.989h-1.681v-6.235q0-3.1-2.389-3.1a2.215,2.215,0,0,0-1.826.927,3.843,3.843,0,0,0-.717,2.415v5.989h-1.682v-10.5h1.682v1.661h.041a3.566,3.566,0,0,1,3.26-1.907,3.046,3.046,0,0,1,1.877.6,3.023,3.023,0,0,1,1.1,1.574,3.747,3.747,0,0,1,3.486-2.173q3.467,0,3.466,4.275Z" fill="#007bd5" />
                    <path d="M-329.048,1873.1h-1.681v-6.03a4.545,4.545,0,0,0-.539-2.522,2.041,2.041,0,0,0-1.81-.779,2.243,2.243,0,0,0-1.83.984,3.767,3.767,0,0,0-.754,2.358v5.989h-1.681v-6.235q0-3.1-2.389-3.1a2.215,2.215,0,0,0-1.826.927,3.842,3.842,0,0,0-.717,2.415v5.989h-1.682v-10.5h1.682v1.661h.041a3.566,3.566,0,0,1,3.26-1.907,3.048,3.048,0,0,1,1.877.6,3.023,3.023,0,0,1,1.1,1.574,3.746,3.746,0,0,1,3.486-2.173q3.467,0,3.466,4.275Z" fill="#007bd5" />
                    <path d="M-318.353,1873.1h-1.682v-1.641h-.041a3.52,3.52,0,0,1-3.23,1.887,3.459,3.459,0,0,1-2.456-.83,2.882,2.882,0,0,1-.886-2.2q0-2.943,3.465-3.425l3.148-.441q0-2.678-2.163-2.676a5.165,5.165,0,0,0-3.425,1.292v-1.723a6.509,6.509,0,0,1,3.568-.984q3.7,0,3.7,3.917Zm-1.682-5.312-2.532.349a4.111,4.111,0,0,0-1.764.579,1.67,1.67,0,0,0-.6,1.472,1.6,1.6,0,0,0,.549,1.255,2.113,2.113,0,0,0,1.461.488,2.7,2.7,0,0,0,2.066-.877,3.133,3.133,0,0,0,.815-2.22Z" fill="#007bd5" />
                    <path d="M-306.469,1873.1h-1.681v-5.989q0-3.342-2.441-3.342a2.649,2.649,0,0,0-2.087.948,3.52,3.52,0,0,0-.825,2.394v5.989h-1.682v-10.5h1.682v1.743h.041a3.789,3.789,0,0,1,3.445-1.989,3.215,3.215,0,0,1,2.636,1.112,4.958,4.958,0,0,1,.912,3.215Z" fill="#007bd5" />
                    <path d="M-294.338,1873.1h-1.682v-1.784h-.041a3.882,3.882,0,0,1-3.609,2.03,3.92,3.92,0,0,1-3.163-1.41,5.777,5.777,0,0,1-1.185-3.84,6.3,6.3,0,0,1,1.312-4.174,4.332,4.332,0,0,1,3.5-1.568,3.365,3.365,0,0,1,3.148,1.7h.041v-6.5h1.682Zm-1.682-4.748V1866.8a3,3,0,0,0-.841-2.154,2.821,2.821,0,0,0-2.133-.881,2.9,2.9,0,0,0-2.42,1.128,4.948,4.948,0,0,0-.881,3.117,4.451,4.451,0,0,0,.845,2.866,2.77,2.77,0,0,0,2.272,1.051,2.874,2.874,0,0,0,2.281-1.015,3.782,3.782,0,0,0,.877-2.562Z" fill="#007bd5" />
                    <path d="M-290.35,1873.32a1.086,1.086,0,0,1-.8-.339,1.11,1.11,0,0,1-.333-.809,1.133,1.133,0,0,1,.333-.816,1.084,1.084,0,0,1,.8-.343,1.113,1.113,0,0,1,.821.343,1.127,1.127,0,0,1,.338.816,1.1,1.1,0,0,1-.338.809A1.114,1.114,0,0,1-290.35,1873.32Z" fill="#007bd5" />
                    <path d="M-285.8,1873.32a1.086,1.086,0,0,1-.8-.339,1.11,1.11,0,0,1-.333-.809,1.134,1.134,0,0,1,.333-.816,1.084,1.084,0,0,1,.8-.343,1.111,1.111,0,0,1,.82.343,1.124,1.124,0,0,1,.339.816,1.1,1.1,0,0,1-.339.809,1.111,1.111,0,0,1-.82.339Z" fill="#007bd5" />
                    <path d="M-281.244,1873.32a1.083,1.083,0,0,1-.8-.339,1.11,1.11,0,0,1-.333-.809,1.134,1.134,0,0,1,.333-.816,1.083,1.083,0,0,1,.8-.343,1.11,1.11,0,0,1,.82.343,1.124,1.124,0,0,1,.339.816,1.1,1.1,0,0,1-.339.809,1.111,1.111,0,0,1-.82.339Z" fill="#007bd5" />
                    <path d="M-475.625,1875.4a1.878,1.878,0,0,1-.491-.065,1.887,1.887,0,0,1-1.155-.885,1.915,1.915,0,0,1-.233-1.231,5.439,5.439,0,0,0,.051-.736,5.179,5.179,0,0,0-5.167-5.178h-.016a5.165,5.165,0,0,0-3.35,1.233,1.866,1.866,0,0,1-1.4.414,1.886,1.886,0,0,1-1.271-.695,1.908,1.908,0,0,1-.417-1.146,9.439,9.439,0,0,1,2.773-6.743,9.407,9.407,0,0,1,6.7-2.773h0a9.41,9.41,0,0,1,6.7,2.772,9.4,9.4,0,0,1,2.774,6.7h0a9.509,9.509,0,0,1-4.532,8.075,1.915,1.915,0,0,1-.962.263Zm-7.014-9.095h.017a6.179,6.179,0,0,1,6.169,6.179,6.276,6.276,0,0,1-.062.878.909.909,0,0,0,.111.588.889.889,0,0,0,.546.419.906.906,0,0,0,.683-.09,8.5,8.5,0,0,0,4.042-7.215h0a8.415,8.415,0,0,0-2.481-5.99,8.417,8.417,0,0,0-5.987-2.479h0a8.418,8.418,0,0,0-5.99,2.48,8.417,8.417,0,0,0-2.48,5.989.909.909,0,0,0,.2.566.886.886,0,0,0,.6.328.867.867,0,0,0,.654-.191,6.153,6.153,0,0,1,3.978-1.457Z" fill="#007bd5" />
                    <circle cx="1.472" cy="1.472" r="1.472" transform="translate(-485.973 1862.046)" fill="#007bd5" />
                    <circle cx="1.472" cy="1.472" r="1.472" transform="translate(-482.441 1859.742)" fill="#007bd5" />
                    <circle cx="1.365" cy="1.365" r="1.365" transform="translate(-478.36 1860.63)" fill="#007bd5" />
                    <circle cx="1.365" cy="1.365" r="1.365" transform="translate(-475.585 1863.677)" fill="#007bd5" />
                    <circle cx="1.51" cy="1.51" r="1.51" transform="translate(-475.185 1867.505)" fill="#007bd5" />
                    <path d="M-483.525,1833.87h-8v-17.076h9.406v1.8h11.027v2.669h-1v-1.669h-11.027v-1.8h-7.406v15.076h7Z" fill="#007bd5" />
                    <path d="M-489.5,1833.87a1.5,1.5,0,0,1-1.064-.44,1.5,1.5,0,0,1-.442-1.067,1.484,1.484,0,0,1,.123-.6l3.4-7.875a1.5,1.5,0,0,1,1.383-.909h6.7a.508.508,0,0,0,.29-.091l1.511-1.052a1.3,1.3,0,0,1,.865-.27h7.66a1.508,1.508,0,0,1,1.507,1.506,1.524,1.524,0,0,1-.083.5l-3.246,9.289a1.509,1.509,0,0,1-1.423,1.011H-489.5Zm3.4-9.89a.507.507,0,0,0-.465.305l-3.4,7.875a.484.484,0,0,0-.041.2.5.5,0,0,0,.149.361.5.5,0,0,0,.357.148h17.183a.508.508,0,0,0,.479-.341l3.245-9.289a.492.492,0,0,0,.028-.167.507.507,0,0,0-.507-.506h-7.663a.413.413,0,0,0-.289.09l-1.512,1.052a1.5,1.5,0,0,1-.862.271h-6.7Z" fill="#007bd5" />
                    <path d="M-472.24,1795.46h-15.141v-11.271h1v10.271h13.141v-11.021l-5.2-4.688h-6.371v-1h6.755l5.816,5.243Z" fill="#007bd5" />
                    <path d="M-472.74,1784.05h-6.538v-5.791h1v4.791h5.538Z" fill="#007bd5" />
                    <path d="M-488.139,1785.73h-2.488a2.9,2.9,0,0,1-2.9-2.9,2.9,2.9,0,0,1,2.9-2.9h5.467v1h-5.467a1.9,1.9,0,0,0-1.9,1.9,1.9,1.9,0,0,0,1.9,1.9h2.488Z" fill="#007bd5" />
                    <path d="M-486.527,1783.19l-.707-.707,2.042-2.041-2.2-2.2.707-.707,2.907,2.906Z" fill="#007bd5" />
                    <path d="M-481.116,1759.95h-6.959v-17.06h8.992l5.608,5.05v2.262h-1v-1.816l-4.992-4.5h-7.608v15.063h5.959Z" fill="#007bd5" />
                    <path d="M-473.983,1748.98h-6.3v-5.586h1v4.586h5.3Z" fill="#007bd5" />
                    <rect width="1" height="8.837" transform="translate(-474.872 1753.259)" fill="#007bd5" />
                    <rect width="8.836" height="1" transform="translate(-478.79 1757.178)" fill="#007bd5" />
                </g>
                <g transform="translate(2983 14426)">
                    <g transform="matrix(1, 0, 0, 1, -2983, -14426)" filter="url(#a)">
                        <rect width="268" height="522" transform="translate(43 30)" fill="#242526" />
                    </g>
                    <g transform="translate(465)">
                        <text transform="translate(-3376 -13888)" fill="#ddd" font-size="12" font-family="SegoeUI, Segoe UI">
                            <tspan x="0" y="0">Exit</tspan>
                        </text>
                        <rect width="268" height="19" transform="translate(-3405 -14286)" fill="#024372" />
                        <text transform="translate(-3376 -14376)" fill="#ddd" font-size="12" font-family="SegoeUI, Segoe UI">
                            <tspan x="0" y="0">New File</tspan>
                        </text>
                        <text transform="translate(-3203 -14376)" fill="#ddd" font-size="12" font-family="SegoeUI, Segoe UI">
                            <tspan x="0" y="0">Ctrl+N</tspan>
                        </text>
                        <text transform="translate(-3203 -14296)" fill="#ddd" font-size="12" font-family="SegoeUI, Segoe UI">
                            <tspan x="0" y="0">Ctrl+O</tspan>
                        </text>
                        <text transform="translate(-3200 -14110)" fill="#ddd" font-size="12" font-family="SegoeUI, Segoe UI">
                            <tspan x="0" y="0">Ctrl+S</tspan>
                        </text>
                        <text transform="translate(-3232 -14087)" fill="#ddd" font-size="12" font-family="SegoeUI, Segoe UI">
                            <tspan x="0" y="0">Ctrl+Shift+S</tspan>
                        </text>
                        <text transform="translate(-3210 -14064)" fill="#6e6e6e" font-size="12" font-family="SegoeUI, Segoe UI">
                            <tspan x="0" y="0">Ctrl+K S</tspan>
                        </text>
                        <text transform="translate(-3239 -14272)" fill="#ddd" font-size="12" font-family="SegoeUI, Segoe UI">
                            <tspan x="0" y="0">Ctrl+K</tspan>
                        </text>
                        <text transform="translate(-3202 -14272)" fill="#ddd" font-size="12" font-family="SegoeUI, Segoe UI">
                            <tspan x="0" y="0">Ctrl+O</tspan>
                        </text>
                        <text transform="translate(-3235 -14353)" fill="#ddd" font-size="12" font-family="SegoeUI, Segoe UI">
                            <tspan x="0" y="0">Ctrl+Shift+N</tspan>
                        </text>
                        <text transform="translate(-3283 -14331)" fill="#ddd" font-size="12" font-family="SegoeUI, Segoe UI">
                            <tspan x="0" y="0">Ctrl+Alt+Windows+N</tspan>
                        </text>
                        <text transform="translate(-3376 -14353)" fill="#ddd" font-size="12" font-family="SegoeUI, Segoe UI">
                            <tspan x="0" y="0">New Window</tspan>
                        </text>
                        <text transform="translate(-3376 -14332)" fill="#ddd" font-size="12" font-family="SegoeUI, Segoe UI">
                            <tspan x="0" y="0">New File...</tspan>
                        </text>
                        <text transform="translate(-3376 -14295)" fill="#ddd" font-size="12" font-family="SegoeUI, Segoe UI">
                            <tspan x="0" y="0">Open File...</tspan>
                        </text>
                        <text transform="translate(-3376 -14272)" fill="#ddd" font-size="12" font-family="SegoeUI, Segoe UI">
                            <tspan x="0" y="0">Open Folder...</tspan>
                        </text>
                        <text transform="translate(-3376 -14250)" fill="#ddd" font-size="12" font-family="SegoeUI, Segoe UI">
                            <tspan x="0" y="0">Open Workspace from File...</tspan>
                        </text>
                        <text transform="translate(-3376 -14191)" fill="#ddd" font-size="12" font-family="SegoeUI, Segoe UI">
                            <tspan x="0" y="0">Add Folder to Workspace...</tspan>
                        </text>
                        <text transform="translate(-3376 -14110)" fill="#ddd" font-size="12" font-family="SegoeUI, Segoe UI">
                            <tspan x="0" y="0">Save</tspan>
                        </text>
                        <text transform="translate(-3376 -14088)" fill="#ddd" font-size="12" font-family="SegoeUI, Segoe UI">
                            <tspan x="0" y="0">Save As...</tspan>
                        </text>
                        <text transform="translate(-3376 -14065)" fill="#ddd" font-size="12" font-family="SegoeUI, Segoe UI">
                            <tspan x="0" y="0">Save All</tspan>
                        </text>
                        <text transform="translate(-3376 -14028)" fill="#ddd" font-size="12" font-family="SegoeUI, Segoe UI">
                            <tspan x="0" y="0">Auto Save</tspan>
                        </text>
                        <text transform="translate(-3376 -14005)" fill="#ddd" font-size="12" font-family="SegoeUI, Segoe UI">
                            <tspan x="0" y="0">Preferences</tspan>
                        </text>
                        <text transform="translate(-3376 -13969)" fill="#ddd" font-size="12" font-family="SegoeUI, Segoe UI">
                            <tspan x="0" y="0">Revert File</tspan>
                        </text>
                        <text transform="translate(-3376 -13947)" fill="#ddd" font-size="12" font-family="SegoeUI, Segoe UI">
                            <tspan x="0" y="0">Close Editor</tspan>
                        </text>
                        <text transform="translate(-3207 -13947)" fill="#ddd" font-size="12" font-family="SegoeUI, Segoe UI">
                            <tspan x="0" y="0">Ctrl+F4</tspan>
                        </text>
                        <text transform="translate(-3203 -13925)" fill="#ddd" font-size="12" font-family="SegoeUI, Segoe UI">
                            <tspan x="0" y="0">Alt+F4</tspan>
                        </text>
                        <text transform="translate(-3376 -13925)" fill="#ddd" font-size="12" font-family="SegoeUI, Segoe UI">
                            <tspan x="0" y="0">Close Window</tspan>
                        </text>
                        <text transform="translate(-3376 -14168)" fill="#ddd" font-size="12" font-family="SegoeUI, Segoe UI">
                            <tspan x="0" y="0">Save Workspace As...</tspan>
                        </text>
                        <text transform="translate(-3376 -14146)" fill="#ddd" font-size="12" font-family="SegoeUI, Segoe UI">
                            <tspan x="0" y="0">Duplicate Workspace</tspan>
                        </text>
                        <text transform="translate(-3376 -14227)" fill="#ddd" font-size="12" font-family="SegoeUI, Segoe UI">
                            <tspan x="0" y="0">Open Recent</tspan>
                        </text>
                        <path d="M-3389.15-14317.5H-3154" fill="none" stroke="#929292" stroke-width="1" />
                        <path d="M-3389.15-14317.5H-3154" transform="translate(0 105)" fill="none" stroke="#929292" stroke-width="1" />
                        <path d="M-3389.15-14317.5H-3154" transform="translate(0 186)" fill="none" stroke="#929292" stroke-width="1" />
                        <path d="M-3389.15-14317.5H-3154" transform="translate(0 267)" fill="none" stroke="#929292" stroke-width="1" />
                        <path d="M-3389.15-14317.5H-3154" transform="translate(0 324.939)" fill="none" stroke="#929292" stroke-width="1" />
                        <path d="M-3389.15-14317.5H-3154" transform="translate(0 407)" fill="none" stroke="#929292" stroke-width="1" />
                        <path d="M-3160.16-14236l4.4,4.4-4.4,4.4" transform="translate(-1 -1)" fill="none" stroke="#fff" stroke-width="1" />
                        <path d="M-3160.16-14236l4.4,4.4-4.4,4.4" transform="translate(-1 -1)" fill="none" stroke="#fff" stroke-width="1" />
                        <path d="M-3160.16-14236l4.4,4.4-4.4,4.4" transform="translate(-1 221)" fill="none" stroke="#fff" stroke-width="1" />
                    </g>
                </g>
                <g transform="translate(1 1)">
                    <path d="M-3602.25-14189.4v10.549h-1.426l-.522-1.509c.232-2.146-3.211-2.866-2.262.336,1.348,4.548,3.509,8.911,8.012,9.008s5.7-2.449,6-3.675,0-7.763,0-7.763l-2.145-1.278-2.386-.8-2.553-.576v-5.208S-3602.25-14192.7-3602.25-14189.4Z" transform="translate(3901.306 14338.001)" fill="#fff" stroke="#000" stroke-width="1" />
                    <g transform="translate(301.763 151.839)">
                        <line y1="5.299" fill="none" stroke="#000" stroke-width="1" />
                        <line y1="3.748" transform="translate(2.346 1.493)" fill="none" stroke="#000" stroke-width="1" />
                        <line y1="2.998" transform="translate(4.595 2.243)" fill="none" stroke="#000" stroke-width="1" />
                    </g>
                </g>
            </g>
        </g>
    </svg>
