<svg xmlns="http://www.w3.org/2000/svg" xmlns:xlink="http://www.w3.org/1999/xlink" preserveAspectRatio="xMidYMid" width="400" height="125" viewBox="0 0 400 125">
  <defs>
    <style>
      .cls-1 {
        fill: #f0f0f0;
      }

      .cls-1, .cls-2 {
        stroke: #c5c5c5;
      }

      .cls-1, .cls-15, .cls-2, .cls-3, .cls-5 {
        stroke-linejoin: round;
        stroke-width: 1px;
      }

      .cls-1, .cls-10, .cls-12, .cls-13, .cls-14, .cls-15, .cls-2, .cls-4 {
        fill-rule: evenodd;
      }

      .cls-14, .cls-2, .cls-3, .cls-5, .cls-8 {
        fill: #fff;
      }

      .cls-3 {
        stroke: #b3b4ba;
      }

      .cls-4 {
        fill: #3875d7;
      }

      .cls-5 {
        stroke: #747474;
      }

      .cls-6, .cls-7, .cls-8, .cls-9 {
        font-size: 30.052px;
      }

      .cls-10, .cls-7, .cls-9 {
        fill: #1f1f1f;
      }

      .cls-7, .cls-8 {
        font-family: 'Segoe UI', Tahoma, Geneva, Verdana, sans-serif;
      }

      .cls-9 {
        font-family: "Courier New";
      }

      .cls-11 {
        fill: #b2e9ff;
      }

      .cls-12 {
        fill: #343333;
      }

      .cls-13 {
        fill: #7d7d7d;
      }

      .cls-15 {
        fill: #1e6d99;
        stroke: #fff;
      }
    </style>
  </defs>
  <g>
    <path d="M8.000,8.006 L391.200,8.006 L391.200,71.308 L8.000,71.308 L8.000,8.006 Z" class="cls-1"/>
    <path d="M8.000,71.308 L391.200,71.308 L391.200,116.981 L8.000,116.981 L8.000,71.308 Z" class="cls-2"/>
    <rect x="283" y="21" width="12" height="12" class="cls-3"/>
    <path d="M8.000,71.308 L391.200,71.308 L391.200,94.545 L8.000,94.545 L8.000,71.308 Z" class="cls-4"/>
    <rect x="14" y="42" width="372" height="24" class="cls-5"/>
    <text transform="translate(13 31) scale(0.43 0.43)" class="cls-6"><tspan class="cls-7">Enter generator name or its part:</tspan></text>
    <text transform="translate(42 87) scale(0.43 0.43)" class="cls-6"><tspan class="cls-8">controller</tspan></text>
    <text transform="translate(42 110) scale(0.43 0.43)" class="cls-6"><tspan class="cls-7">scaffold_controller</tspan></text>
    <text transform="translate(20 58) scale(0.43 0.43)" class="cls-6"><tspan class="cls-9">controller</tspan></text>
    <text transform="translate(300 31) scale(0.43 0.43)" class="cls-6"><tspan class="cls-7">Include hidden</tspan></text>
    <path d="M96.000,44.000 L97.000,44.000 L97.000,64.000 L96.000,64.000 L96.000,44.000 Z" class="cls-10"/>
  </g>
  <circle cx="21.5" cy="82.5" r="8.5" class="cls-11"/>
  <path d="M19.900,87.326 C20.677,86.635 20.921,85.564 20.601,84.637 L22.702,82.770 C23.585,83.197 24.677,83.081 25.455,82.390 C26.119,81.800 26.421,80.892 26.244,80.021 C26.227,79.933 26.164,79.862 26.079,79.834 C25.995,79.806 25.902,79.825 25.835,79.884 L24.240,81.302 L23.419,80.854 L23.070,79.986 L24.666,78.568 C24.732,78.509 24.762,78.419 24.744,78.332 C24.726,78.244 24.663,78.174 24.578,78.146 C23.734,77.868 22.797,78.061 22.133,78.651 C21.355,79.342 21.111,80.413 21.431,81.340 L19.330,83.207 C18.447,82.780 17.355,82.897 16.578,83.588 C15.914,84.177 15.611,85.085 15.788,85.956 C15.806,86.044 15.869,86.115 15.953,86.143 C16.038,86.171 16.131,86.152 16.197,86.093 L17.793,84.675 L18.614,85.123 L18.962,85.991 L17.367,87.409 C17.301,87.468 17.271,87.558 17.289,87.646 C17.298,87.689 17.318,87.728 17.346,87.760 C17.375,87.793 17.412,87.817 17.455,87.831 C18.299,88.110 19.236,87.916 19.900,87.326 Z" class="cls-12"/>
  <path d="M14.000,96.000 L14.000,113.000 L24.938,113.000 L22.000,110.000 L22.000,106.000 L27.000,104.000 L27.000,99.000 L24.000,96.000 L14.000,96.000 Z" class="cls-13"/>
  <path d="M16.000,98.000 L16.000,111.000 L25.000,111.000 L25.000,101.000 L22.000,98.000 L16.000,98.000 Z" class="cls-14"/>
  <path d="M30.016,105.238 L28.762,103.984 C28.685,103.906 28.564,103.892 28.470,103.948 L27.816,104.344 C27.498,104.167 27.158,104.025 26.801,103.923 L26.618,103.181 C26.592,103.075 26.496,103.000 26.387,103.000 L24.613,103.000 C24.504,103.000 24.408,103.075 24.382,103.181 L24.200,103.923 C23.842,104.025 23.502,104.167 23.184,104.344 L22.530,103.948 C22.436,103.892 22.316,103.906 22.238,103.984 L20.984,105.238 C20.906,105.316 20.892,105.436 20.948,105.530 L21.344,106.184 C21.167,106.502 21.025,106.842 20.923,107.199 L20.181,107.382 C20.075,107.408 20.000,107.504 20.000,107.613 L20.000,109.387 C20.000,109.496 20.075,109.592 20.181,109.618 L20.923,109.800 C21.025,110.158 21.167,110.498 21.344,110.816 L20.948,111.470 C20.892,111.564 20.906,111.684 20.984,111.762 L22.238,113.016 C22.316,113.094 22.436,113.108 22.530,113.052 L23.184,112.656 C23.502,112.833 23.842,112.975 24.199,113.077 L24.382,113.819 C24.408,113.925 24.504,114.000 24.613,114.000 L26.387,114.000 C26.496,114.000 26.592,113.925 26.618,113.819 L26.800,113.077 C27.158,112.975 27.498,112.833 27.816,112.656 L28.470,113.052 C28.564,113.108 28.684,113.094 28.762,113.016 L30.016,111.762 C30.094,111.684 30.108,111.564 30.052,111.470 L29.656,110.816 C29.833,110.498 29.975,110.158 30.077,109.801 L30.819,109.618 C30.925,109.592 31.000,109.496 31.000,109.387 L31.000,107.613 C31.000,107.504 30.925,107.408 30.819,107.382 L30.077,107.200 C29.975,106.842 29.833,106.502 29.656,106.184 L30.052,105.530 C30.108,105.436 30.094,105.315 30.016,105.238 ZM25.500,110.982 C24.129,110.982 23.018,109.871 23.018,108.500 C23.018,107.129 24.129,106.018 25.500,106.018 C26.871,106.018 27.982,107.129 27.982,108.500 C27.982,109.871 26.871,110.982 25.500,110.982 Z" class="cls-15"/>
</svg>
