<?xml version="1.0" encoding="UTF-8" standalone="no" ?>
<svg xmlns="http://www.w3.org/2000/svg" xmlns:xlink="http://www.w3.org/1999/xlink" preserveAspectRatio="xMidYMid" width="850" height="540" viewBox="0 0 850 540">
    <defs>
        <style>
            .cls-1, .cls-4 {
            fill: #e8e8e8;
            }

            .cls-1 {
            stroke: #cacace;
            }

            .cls-1, .cls-14, .cls-20 {
            stroke-linejoin: round;
            stroke-width: 1px;
            }

            .cls-12, .cls-18, .cls-2, .cls-23 {
            fill: #fff;
            }

            .cls-3 {
            fill: #c5cede;
            }

            .cls-5, .cls-6 {
            font-size: 24px;
            }

            .cls-6 {
            fill: #4d4a55;
            font-family: "Myriad Pro";
            }

            .cls-7 {
            fill: #a0a0a0;
            }

            .cls-10, .cls-11, .cls-12, .cls-13, .cls-14, .cls-15, .cls-19, .cls-20, .cls-7 {
            fill-rule: evenodd;
            }

            .cls-8, .cls-9 {
            font-size: 23px;
            }

            .cls-9 {
            fill: #bebdbd;
            }

            .cls-17, .cls-18, .cls-22, .cls-23, .cls-24, .cls-25, .cls-9 {
            font-family: "Open Sans";
            }

            .cls-10 {
            fill: #bd9662;
            }

            .cls-11 {
            fill: #919191;
            }

            .cls-13 {
            fill: #acacac;
            }

            .cls-14, .cls-20 {
            fill: #f6f6f6;
            stroke: #d1d2de;
            }

            .cls-15 {
            fill: #007acc;
            }

            .cls-16, .cls-17, .cls-18 {
            font-size: 35.857px;
            }

            .cls-17, .cls-24 {
            fill: #cdcdd1;
            }

            .cls-19, .cls-25 {
            fill: #cacace;
            }

            .cls-20 {
            filter: url(#drop-shadow-1);
            }

            .cls-21, .cls-22, .cls-23, .cls-24, .cls-25 {
            font-size: 32.869px;
            }

            .cls-22 {
            fill: #d3d3d6;
            }
        </style>

        <filter id="drop-shadow-1" filterUnits="userSpaceOnUse">
            <feOffset dx="2.487" dy="1.678" in="SourceAlpha" />
            <feGaussianBlur stdDeviation="2" result="dropBlur" />
            <feFlood flood-opacity="0.27" />
            <feComposite operator="in" in2="dropBlur" result="dropShadowComp" />
            <feComposite in="SourceGraphic" result="shadowed" />
        </filter>
    </defs>
    <rect width="850" height="540" class="cls-1" />
    <rect x="1" y="94" width="401" height="445" class="cls-2" />
    <rect x="1" y="65" width="401" height="28" class="cls-3" />
    <rect x="1" y="94" width="401" height="26" class="cls-4" />
    <text transform="translate(31 53) scale(0.5 0.5)" class="cls-5"><tspan class="cls-6">BokuDirectPa...</tspan></text>
    <text transform="translate(39 83) scale(0.5 0.5)" class="cls-5"><tspan class="cls-6">project</tspan></text>
    <path d="M97.694,83.000 L94.771,77.937 L100.617,77.937 L97.694,83.000 Z" class="cls-7" />
    <path d="M10.694,111.000 L7.771,105.937 L13.617,105.937 L10.694,111.000 Z" class="cls-7" />
    <path d="M36.000,129.009 L31.000,132.010 L31.000,126.008 L36.000,129.009 Z" class="cls-7" />
    <text transform="translate(195 22) scale(0.5 0.5)" class="cls-8"><tspan class="cls-9">Code</tspan></text>
    <text transform="translate(11 22) scale(0.5 0.5)" class="cls-8"><tspan class="cls-9">File</tspan></text>
    <text transform="translate(395 22) scale(0.5 0.5)" class="cls-8"><tspan class="cls-9">VCS</tspan></text>
    <text transform="translate(434 22) scale(0.5 0.5)" class="cls-8"><tspan class="cls-9">Window</tspan></text>
    <text transform="translate(497 22) scale(0.5 0.5)" class="cls-8"><tspan class="cls-9">Help</tspan></text>
    <text transform="translate(351 22) scale(0.5 0.5)" class="cls-8"><tspan class="cls-9">Tools</tspan></text>
    <text transform="translate(307 22) scale(0.5 0.5)" class="cls-8"><tspan class="cls-9">Run</tspan></text>
    <text transform="translate(44 22) scale(0.5 0.5)" class="cls-8"><tspan class="cls-9">Edit</tspan></text>
    <text transform="translate(82 22) scale(0.5 0.5)" class="cls-8"><tspan class="cls-9">View</tspan></text>
    <text transform="translate(128 22) scale(0.5 0.5)" class="cls-8"><tspan class="cls-9">Navigate</tspan></text>
    <text transform="translate(241 22) scale(0.5 0.5)" class="cls-8"><tspan class="cls-9">Refactor</tspan></text>
    <path d="M26.000,54.000 L12.000,54.000 L12.000,42.000 L18.000,42.000 L20.000,44.000 L26.000,44.000 L26.000,54.000 Z" class="cls-10" />
    <rect x="14" y="46" width="10" height="6" class="cls-4" />
    <text transform="translate(39 113) scale(0.5 0.5)" class="cls-5"><tspan class="cls-6">BokuDirectPa...</tspan></text>
    <path d="M34.000,114.000 L20.000,114.000 L20.000,102.000 L26.000,102.000 L28.000,104.000 L34.000,104.000 L34.000,114.000 Z" class="cls-10" />
    <rect x="22" y="106" width="10" height="6" class="cls-4" />
    <text transform="translate(64 133) scale(0.5 0.5)" class="cls-5"><tspan class="cls-6">src</tspan></text>
    <path d="M59.000,135.000 L45.000,135.000 L45.000,123.000 L51.000,123.000 L53.000,125.000 L59.000,125.000 L59.000,135.000 Z" class="cls-10" />
    <rect x="47" y="127" width="10" height="6" class="cls-2" />
    <path d="M36.000,149.009 L31.000,152.010 L31.000,146.008 L36.000,149.009 Z" class="cls-7" />
    <text transform="translate(64 153) scale(0.5 0.5)" class="cls-5"><tspan class="cls-6">vendor</tspan></text>
    <text transform="translate(64 174) scale(0.5 0.5)" class="cls-5"><tspan class="cls-6">composer.json</tspan></text>
    <text transform="translate(64 194) scale(0.5 0.5)" class="cls-5"><tspan class="cls-6">composer.loc</tspan></text>
    <text transform="translate(64 217) scale(0.5 0.5)" class="cls-5"><tspan class="cls-6">LICENSE</tspan></text>
    <text transform="translate(64 237) scale(0.5 0.5)" class="cls-5"><tspan class="cls-6">README.md</tspan></text>
    <text transform="translate(44 258) scale(0.5 0.5)" class="cls-5"><tspan class="cls-6">External Libraries</tspan></text>
    <path d="M58.000,166.727 L58.000,179.000 L47.000,179.000 L47.000,164.000 L55.250,164.000 L58.000,166.727 Z" class="cls-11" />
    <path d="M56.625,168.091 L53.875,168.091 L53.875,165.364 L48.375,165.364 L48.375,177.636 L56.625,177.636 L56.625,168.091 Z" class="cls-12" />
    <path d="M58.000,186.727 L58.000,199.000 L47.000,199.000 L47.000,184.000 L55.250,184.000 L58.000,186.727 Z" class="cls-11" />
    <path d="M56.625,188.091 L53.875,188.091 L53.875,185.364 L48.375,185.364 L48.375,197.636 L56.625,197.636 L56.625,188.091 Z" class="cls-12" />
    <path d="M58.000,206.727 L58.000,219.000 L47.000,219.000 L47.000,204.000 L55.250,204.000 L58.000,206.727 Z" class="cls-11" />
    <path d="M56.625,208.091 L53.875,208.091 L53.875,205.364 L48.375,205.364 L48.375,217.636 L56.625,217.636 L56.625,208.091 Z" class="cls-12" />
    <path d="M58.000,226.727 L58.000,239.000 L47.000,239.000 L47.000,224.000 L55.250,224.000 L58.000,226.727 Z" class="cls-11" />
    <path d="M56.625,228.091 L53.875,228.091 L53.875,225.364 L48.375,225.364 L48.375,237.636 L56.625,237.636 L56.625,228.091 Z" class="cls-12" />
    <path d="M59.000,155.000 L45.000,155.000 L45.000,143.000 L51.000,143.000 L53.000,145.000 L59.000,145.000 L59.000,155.000 Z" class="cls-10" />
    <rect x="47" y="147" width="10" height="6" class="cls-2" />
    <path d="M0.000,33.000 L0.000,32.000 L851.000,32.000 L851.000,33.000 L0.000,33.000 Z" class="cls-7" />
    <path d="M0.000,65.000 L0.000,64.000 L851.000,64.000 L851.000,65.000 L0.000,65.000 Z" class="cls-7" />
    <path d="M0.000,94.000 L0.000,93.000 L402.000,93.000 L402.000,94.000 L0.000,94.000 Z" class="cls-7" />
    <path d="M402.000,64.000 L403.000,64.000 L403.000,539.000 L402.000,539.000 L402.000,64.000 Z" class="cls-13" />
    <path d="M119.553,37.224 L120.447,36.776 L126.447,48.776 L125.553,49.224 L119.553,37.224 Z" class="cls-7" />
    <path d="M125.578,48.732 L126.422,49.268 L119.422,60.268 L118.578,59.732 L125.578,48.732 Z" class="cls-7" />
    <path d="M115.000,64.000 L116.000,64.000 L116.000,93.000 L115.000,93.000 L115.000,64.000 Z" class="cls-7" />
    <path d="M130.008,98.000 L393.741,98.000 L393.741,528.000 L130.605,528.000 " class="cls-14" />
    <path d="M130.000,98.000 L393.748,98.000 L393.748,120.485 L130.000,120.485 L130.000,98.000 Z" class="cls-15" />
    <text transform="translate(167 137) scale(0.32 0.32)" class="cls-16"><tspan class="cls-17">Cut</tspan></text>
    <text transform="translate(167 113) scale(0.32 0.32)" class="cls-16"><tspan class="cls-18">New</tspan></text>
    <text transform="translate(167 155) scale(0.32 0.32)" class="cls-16"><tspan class="cls-17">Copy</tspan></text>
    <text transform="translate(167 173) scale(0.32 0.32)" class="cls-16"><tspan class="cls-17">Copy Path</tspan></text>
    <text transform="translate(167 193) scale(0.32 0.32)" class="cls-16"><tspan class="cls-17">Copy as Plain Text</tspan></text>
    <text transform="translate(167 211) scale(0.32 0.32)" class="cls-16"><tspan class="cls-17">Copy as Reference</tspan></text>
    <text transform="translate(167 230) scale(0.32 0.32)" class="cls-16"><tspan class="cls-17">Paste</tspan></text>
    <text transform="translate(167 250) scale(0.32 0.32)" class="cls-16"><tspan class="cls-17">Find Usages</tspan></text>
    <text transform="translate(167 268) scale(0.32 0.32)" class="cls-16"><tspan class="cls-17">Find in Path...</tspan></text>
    <text transform="translate(167 288) scale(0.32 0.32)" class="cls-16"><tspan class="cls-17">Replace in Path...</tspan></text>
    <text transform="translate(167 306) scale(0.32 0.32)" class="cls-16"><tspan class="cls-17">Inspect Code...</tspan></text>
    <text transform="translate(167 324) scale(0.32 0.32)" class="cls-16"><tspan class="cls-17">Refractor</tspan></text>
    <text transform="translate(167 344) scale(0.32 0.32)" class="cls-16"><tspan class="cls-17">Add to Favorites</tspan></text>
    <text transform="translate(167 362) scale(0.32 0.32)" class="cls-16"><tspan class="cls-17">Show Image Thumbnails</tspan></text>
    <text transform="translate(167 381) scale(0.32 0.32)" class="cls-16"><tspan class="cls-17">Run 'BokuDirectPa...'</tspan></text>
    <text transform="translate(167 401) scale(0.32 0.32)" class="cls-16"><tspan class="cls-17">Debug 'BokuDirectPa...'</tspan></text>
    <text transform="translate(167 419) scale(0.32 0.32)" class="cls-16"><tspan class="cls-17">Run 'BokuDirectPa...'</tspan></text>
    <text transform="translate(167 439) scale(0.32 0.32)" class="cls-16"><tspan class="cls-17">Create 'BokuDirectPa...'...</tspan></text>
    <text transform="translate(167 458) scale(0.32 0.32)" class="cls-16"><tspan class="cls-17">Compare with...</tspan></text>
    <text transform="translate(167 476) scale(0.32 0.32)" class="cls-16"><tspan class="cls-17">Mark Directry as</tspan></text>
    <text transform="translate(167 496) scale(0.32 0.32)" class="cls-16"><tspan class="cls-17">Composer</tspan></text>
    <text transform="translate(167 514) scale(0.32 0.32)" class="cls-16"><tspan class="cls-17">Create Gist...</tspan></text>
    <path d="M391.854,235.610 L391.854,236.568 L133.804,236.568 L133.804,235.610 L391.854,235.610 Z" class="cls-19" />
    <path d="M391.854,311.099 L391.854,312.057 L133.804,312.057 L133.804,311.099 L391.854,311.099 Z" class="cls-19" />
    <path d="M391.854,329.255 L391.854,330.213 L133.804,330.213 L133.804,329.255 L391.854,329.255 Z" class="cls-19" />
    <g style="fill: #f6f6f6; filter: url(#drop-shadow-1)">
        <path d="M539.005,99.904 L539.005,360.333 L388.963,360.333 L388.963,100.001 L539.005,99.904 Z" id="path-1" style="stroke: inherit; filter: none; fill: inherit" class="cls-20" />
    </g>
    <use xlink:href="#path-1" style="stroke: #d1d2de; filter: none; fill: none" />
    <path d="M390.284,119.978 L537.059,119.978 L537.059,138.133 L390.284,138.133 L390.284,119.978 Z" class="cls-15" />
    <text transform="translate(405 115) scale(0.32 0.32)" class="cls-21"><tspan class="cls-22">File</tspan></text>
    <text transform="translate(405 132) scale(0.32 0.32)" class="cls-21"><tspan class="cls-23">Directory</tspan></text>
    <text transform="translate(405 149) scale(0.32 0.32)" class="cls-21"><tspan class="cls-24">PHP File</tspan></text>
    <text transform="translate(405 166) scale(0.32 0.32)" class="cls-21"><tspan class="cls-25">PHP Class</tspan></text>
    <text transform="translate(405 182) scale(0.32 0.32)" class="cls-21"><tspan class="cls-24">HTML File</tspan></text>
    <text transform="translate(405 200) scale(0.32 0.32)" class="cls-21"><tspan class="cls-24">Stylesheet</tspan></text>
    <text transform="translate(405 216) scale(0.32 0.32)" class="cls-21"><tspan class="cls-24">JavaScript File</tspan></text>
    <path d="M537.428,170.627 L537.428,171.106 L390.542,171.106 L390.542,170.627 L537.428,170.627 Z" class="cls-19" />
    <text transform="translate(405 234) scale(0.32 0.32)" class="cls-21"><tspan class="cls-24">TypeScript File</tspan></text>
    <text transform="translate(405 251) scale(0.32 0.32)" class="cls-21"><tspan class="cls-24">tsconfig.json File</tspan></text>
    <text transform="translate(405 267) scale(0.32 0.32)" class="cls-21"><tspan class="cls-25">package.json File</tspan></text>
    <text transform="translate(405 283) scale(0.32 0.32)" class="cls-21"><tspan class="cls-24">CoffeeScript File</tspan></text>
    <text transform="translate(405 301) scale(0.32 0.32)" class="cls-21"><tspan class="cls-24">XSLT Stylesheet</tspan></text>
    <text transform="translate(405 318) scale(0.32 0.32)" class="cls-21"><tspan class="cls-24">Edit File Templates...</tspan></text>
    <text transform="translate(405 336) scale(0.32 0.32)" class="cls-21"><tspan class="cls-24">Data Source</tspan></text>
    <text transform="translate(405 352) scale(0.32 0.32)" class="cls-21"><tspan class="cls-24">PHPUnit</tspan></text>
    <path d="M537.428,306.736 L537.428,307.215 L390.542,307.215 L390.542,306.736 L537.428,306.736 Z" class="cls-19" />
    <path d="M537.428,324.948 L537.428,325.427 L390.542,325.427 L390.542,324.948 L537.428,324.948 Z" class="cls-19" />
</svg>

