<?xml version="1.0" encoding="UTF-8" standalone="no" ?>
<svg xmlns="http://www.w3.org/2000/svg" xmlns:xlink="http://www.w3.org/1999/xlink" preserveAspectRatio="xMidYMid" width="850" height="540" viewBox="0 0 850 540">
    <defs>
        <style>
            .cls-1, .cls-4 {
            fill: #e8e8e8;
            }

            .cls-1 {
            stroke: #cacace;
            }

            .cls-1, .cls-15, .cls-21 {
            stroke-linejoin: round;
            stroke-width: 1px;
            }

            .cls-13, .cls-19, .cls-2, .cls-25 {
            fill: #fff;
            }

            .cls-3 {
            fill: #c5cede;
            }

            .cls-11, .cls-5, .cls-6 {
            font-size: 24px;
            }

            .cls-6 {
            fill: #4d4a55;
            }

            .cls-11, .cls-6 {
            font-family: "Myriad Pro";
            }

            .cls-7 {
            fill: #a0a0a0;
            }

            .cls-10, .cls-12, .cls-13, .cls-14, .cls-15, .cls-16, .cls-20, .cls-21, .cls-7 {
            fill-rule: evenodd;
            }

            .cls-8, .cls-9 {
            font-size: 23px;
            }

            .cls-9 {
            fill: #bebdbd;
            }

            .cls-18, .cls-19, .cls-23, .cls-24, .cls-25, .cls-26, .cls-9 {
            font-family: "Open Sans";
            }

            .cls-10 {
            fill: #bd9662;
            }

            .cls-11, .cls-23 {
            fill: #d3d3d6;
            }

            .cls-12 {
            fill: #919191;
            }

            .cls-14 {
            fill: #acacac;
            }

            .cls-15, .cls-21 {
            fill: #f6f6f6;
            stroke: #d1d2de;
            }

            .cls-16 {
            fill: #007acc;
            }

            .cls-17, .cls-18, .cls-19 {
            font-size: 35.857px;
            }

            .cls-18, .cls-26 {
            fill: #cdcdd1;
            }

            .cls-20, .cls-24 {
            fill: #cacace;
            }

            .cls-21 {
            filter: url(#drop-shadow-1);
            }

            .cls-22, .cls-23, .cls-24, .cls-25, .cls-26 {
            font-size: 32.869px;
            }
        </style>

        <filter id="drop-shadow-1" filterUnits="userSpaceOnUse">
            <feOffset dx="2.487" dy="1.678" in="SourceAlpha" />
            <feGaussianBlur stdDeviation="2" result="dropBlur" />
            <feFlood flood-opacity="0.27" />
            <feComposite operator="in" in2="dropBlur" result="dropShadowComp" />
            <feComposite in="SourceGraphic" result="shadowed" />
        </filter>
    </defs>
    <rect x="-7" width="850" height="540" class="cls-1" />
    <rect x="1" y="94" width="401" height="445" class="cls-2" />
    <rect x="1" y="65" width="401" height="28" class="cls-3" />
    <rect x="1" y="136" width="401" height="26" class="cls-4" />
    <text transform="translate(31 53) scale(0.5 0.5)" class="cls-5"><tspan class="cls-6">BokuDirectPa...</tspan></text>
    <text transform="translate(39 83) scale(0.5 0.5)" class="cls-5"><tspan class="cls-6">project</tspan></text>
    <path d="M97.694,83.000 L94.771,77.937 L100.617,77.937 L97.694,83.000 Z" class="cls-7" />
    <path d="M10.694,111.000 L7.771,105.937 L13.617,105.937 L10.694,111.000 Z" class="cls-7" />
    <path d="M36.000,129.009 L31.000,132.010 L31.000,126.008 L36.000,129.009 Z" class="cls-7" />
    <text transform="translate(195 22) scale(0.5 0.5)" class="cls-8"><tspan class="cls-9">Code</tspan></text>
    <text transform="translate(11 22) scale(0.5 0.5)" class="cls-8"><tspan class="cls-9">File</tspan></text>
    <text transform="translate(395 22) scale(0.5 0.5)" class="cls-8"><tspan class="cls-9">VCS</tspan></text>
    <text transform="translate(434 22) scale(0.5 0.5)" class="cls-8"><tspan class="cls-9">Window</tspan></text>
    <text transform="translate(497 22) scale(0.5 0.5)" class="cls-8"><tspan class="cls-9">Help</tspan></text>
    <text transform="translate(351 22) scale(0.5 0.5)" class="cls-8"><tspan class="cls-9">Tools</tspan></text>
    <text transform="translate(307 22) scale(0.5 0.5)" class="cls-8"><tspan class="cls-9">Run</tspan></text>
    <text transform="translate(44 22) scale(0.5 0.5)" class="cls-8"><tspan class="cls-9">Edit</tspan></text>
    <text transform="translate(82 22) scale(0.5 0.5)" class="cls-8"><tspan class="cls-9">View</tspan></text>
    <text transform="translate(128 22) scale(0.5 0.5)" class="cls-8"><tspan class="cls-9">Navigate</tspan></text>
    <text transform="translate(241 22) scale(0.5 0.5)" class="cls-8"><tspan class="cls-9">Refactor</tspan></text>
    <path d="M26.000,54.000 L12.000,54.000 L12.000,42.000 L18.000,42.000 L20.000,44.000 L26.000,44.000 L26.000,54.000 Z" class="cls-10" />
    <rect x="14" y="46" width="10" height="6" class="cls-4" />
    <text transform="translate(146 53) scale(0.5 0.5)" class="cls-5"><tspan class="cls-6">test</tspan></text>
    <path d="M141.000,54.000 L127.000,54.000 L127.000,42.000 L133.000,42.000 L135.000,44.000 L141.000,44.000 L141.000,54.000 Z" class="cls-10" />
    <rect x="129" y="46" width="10" height="6" class="cls-4" />
    <text transform="translate(39 113) scale(0.5 0.5)" class="cls-5"><tspan class="cls-6">BokuDirectPa...</tspan></text>
    <text transform="translate(120 113) scale(0.5 0.5)" class="cls-5"><tspan class="cls-11">C:\Users\Username\Desktop\BokuDirectPa...</tspan></text>
    <path d="M34.000,114.000 L20.000,114.000 L20.000,102.000 L26.000,102.000 L28.000,104.000 L34.000,104.000 L34.000,114.000 Z" class="cls-10" />
    <rect x="22" y="106" width="10" height="6" class="cls-4" />
    <text transform="translate(64 133) scale(0.5 0.5)" class="cls-5"><tspan class="cls-6">src</tspan></text>
    <path d="M59.000,135.000 L45.000,135.000 L45.000,123.000 L51.000,123.000 L53.000,125.000 L59.000,125.000 L59.000,135.000 Z" class="cls-10" />
    <rect x="47" y="127" width="10" height="6" class="cls-2" />
    <path d="M36.000,149.009 L31.000,152.010 L31.000,146.008 L36.000,149.009 Z" class="cls-7" />
    <text transform="translate(64 153) scale(0.5 0.5)" class="cls-5"><tspan class="cls-6">test</tspan></text>
    <text transform="translate(64 195) scale(0.5 0.5)" class="cls-5"><tspan class="cls-6">composer.json</tspan></text>
    <text transform="translate(64 215) scale(0.5 0.5)" class="cls-5"><tspan class="cls-6">composer.loc</tspan></text>
    <text transform="translate(64 238) scale(0.5 0.5)" class="cls-5"><tspan class="cls-6">LICENSE</tspan></text>
    <text transform="translate(64 258) scale(0.5 0.5)" class="cls-5"><tspan class="cls-6">README.md</tspan></text>
    <text transform="translate(44 279) scale(0.5 0.5)" class="cls-5"><tspan class="cls-6">External Libraries</tspan></text>
    <path d="M58.000,187.727 L58.000,200.000 L47.000,200.000 L47.000,185.000 L55.250,185.000 L58.000,187.727 Z" class="cls-12" />
    <path d="M56.625,189.091 L53.875,189.091 L53.875,186.364 L48.375,186.364 L48.375,198.636 L56.625,198.636 L56.625,189.091 Z" class="cls-13" />
    <path d="M58.000,207.727 L58.000,220.000 L47.000,220.000 L47.000,205.000 L55.250,205.000 L58.000,207.727 Z" class="cls-12" />
    <path d="M56.625,209.091 L53.875,209.091 L53.875,206.364 L48.375,206.364 L48.375,218.636 L56.625,218.636 L56.625,209.091 Z" class="cls-13" />
    <path d="M58.000,227.727 L58.000,240.000 L47.000,240.000 L47.000,225.000 L55.250,225.000 L58.000,227.727 Z" class="cls-12" />
    <path d="M56.625,229.091 L53.875,229.091 L53.875,226.364 L48.375,226.364 L48.375,238.636 L56.625,238.636 L56.625,229.091 Z" class="cls-13" />
    <path d="M58.000,247.727 L58.000,260.000 L47.000,260.000 L47.000,245.000 L55.250,245.000 L58.000,247.727 Z" class="cls-12" />
    <path d="M56.625,249.091 L53.875,249.091 L53.875,246.364 L48.375,246.364 L48.375,258.636 L56.625,258.636 L56.625,249.091 Z" class="cls-13" />
    <path d="M59.000,155.000 L45.000,155.000 L45.000,143.000 L51.000,143.000 L53.000,145.000 L59.000,145.000 L59.000,155.000 Z" class="cls-10" />
    <rect x="47" y="147" width="10" height="6" class="cls-4" />
    <path d="M36.000,171.009 L31.000,174.010 L31.000,168.008 L36.000,171.009 Z" class="cls-7" />
    <text transform="translate(64 175) scale(0.5 0.5)" class="cls-5"><tspan class="cls-6">vendor</tspan></text>
    <path d="M59.000,177.000 L45.000,177.000 L45.000,165.000 L51.000,165.000 L53.000,167.000 L59.000,167.000 L59.000,177.000 Z" class="cls-10" />
    <rect x="47" y="169" width="10" height="6" class="cls-2" />
    <path d="M0.000,33.000 L0.000,32.000 L851.000,32.000 L851.000,33.000 L0.000,33.000 Z" class="cls-7" />
    <path d="M0.000,65.000 L0.000,64.000 L851.000,64.000 L851.000,65.000 L0.000,65.000 Z" class="cls-7" />
    <path d="M0.000,94.000 L0.000,93.000 L402.000,93.000 L402.000,94.000 L0.000,94.000 Z" class="cls-7" />
    <path d="M402.000,64.000 L403.000,64.000 L403.000,539.000 L402.000,539.000 L402.000,64.000 Z" class="cls-14" />
    <path d="M112.553,37.224 L113.447,36.776 L119.447,48.776 L118.553,49.224 L112.553,37.224 Z" class="cls-7" />
    <path d="M118.578,48.732 L119.422,49.268 L112.422,60.268 L111.578,59.732 L118.578,48.732 Z" class="cls-7" />
    <path d="M115.000,64.000 L116.000,64.000 L116.000,93.000 L115.000,93.000 L115.000,64.000 Z" class="cls-7" />
    <path d="M106.008,148.000 L369.741,148.000 L369.741,536.000 L106.605,536.000 " class="cls-15" />
    <path d="M106.000,148.000 L369.748,148.000 L369.748,170.485 L106.000,170.485 L106.000,148.000 Z" class="cls-16" />
    <text transform="translate(143 187) scale(0.32 0.32)" class="cls-17"><tspan class="cls-18">Cut</tspan></text>
    <text transform="translate(143 163) scale(0.32 0.32)" class="cls-17"><tspan class="cls-19">New</tspan></text>
    <text transform="translate(143 205) scale(0.32 0.32)" class="cls-17"><tspan class="cls-18">Copy</tspan></text>
    <text transform="translate(143 223) scale(0.32 0.32)" class="cls-17"><tspan class="cls-18">Copy Path</tspan></text>
    <text transform="translate(143 243) scale(0.32 0.32)" class="cls-17"><tspan class="cls-18">Copy as Plain Text</tspan></text>
    <text transform="translate(143 261) scale(0.32 0.32)" class="cls-17"><tspan class="cls-18">Copy as Reference</tspan></text>
    <text transform="translate(143 280) scale(0.32 0.32)" class="cls-17"><tspan class="cls-18">Paste</tspan></text>
    <text transform="translate(143 300) scale(0.32 0.32)" class="cls-17"><tspan class="cls-18">Find Usages</tspan></text>
    <text transform="translate(143 318) scale(0.32 0.32)" class="cls-17"><tspan class="cls-18">Find in Path...</tspan></text>
    <text transform="translate(143 338) scale(0.32 0.32)" class="cls-17"><tspan class="cls-18">Replace in Path...</tspan></text>
    <text transform="translate(143 356) scale(0.32 0.32)" class="cls-17"><tspan class="cls-18">Inspect Code...</tspan></text>
    <text transform="translate(143 374) scale(0.32 0.32)" class="cls-17"><tspan class="cls-18">Refractor</tspan></text>
    <text transform="translate(143 394) scale(0.32 0.32)" class="cls-17"><tspan class="cls-18">Add to Favorites</tspan></text>
    <text transform="translate(143 412) scale(0.32 0.32)" class="cls-17"><tspan class="cls-18">Show Image Thumbnails</tspan></text>
    <text transform="translate(143 431) scale(0.32 0.32)" class="cls-17"><tspan class="cls-18">Run 'BokuDirectPa...'</tspan></text>
    <text transform="translate(143 451) scale(0.32 0.32)" class="cls-17"><tspan class="cls-18">Debug 'BokuDirectPa...'</tspan></text>
    <text transform="translate(143 469) scale(0.32 0.32)" class="cls-17"><tspan class="cls-18">Run 'BokuDirectPa...'</tspan></text>
    <text transform="translate(143 489) scale(0.32 0.32)" class="cls-17"><tspan class="cls-18">Create 'BokuDirectPa...'...</tspan></text>
    <text transform="translate(143 508) scale(0.32 0.32)" class="cls-17"><tspan class="cls-18">Compare with...</tspan></text>
    <text transform="translate(143 526) scale(0.32 0.32)" class="cls-17"><tspan class="cls-18">Mark Directry as</tspan></text>
    <path d="M367.854,285.610 L367.854,286.568 L109.804,286.568 L109.804,285.610 L367.854,285.610 Z" class="cls-20" />
    <path d="M367.854,361.099 L367.854,362.057 L109.804,362.057 L109.804,361.099 L367.854,361.099 Z" class="cls-20" />
    <path d="M367.854,379.255 L367.854,380.213 L109.804,380.213 L109.804,379.255 L367.854,379.255 Z" class="cls-20" />
    <g style="fill: #f6f6f6; filter: url(#drop-shadow-1)">
        <path d="M515.005,149.904 L515.005,410.333 L364.963,410.333 L364.963,150.001 L515.005,149.904 Z" id="path-1" style="stroke: inherit; filter: none; fill: inherit" class="cls-21" />
    </g>
    <use xlink:href="#path-1" style="stroke: #d1d2de; filter: none; fill: none" />
    <path d="M366.284,186.978 L513.059,186.978 L513.059,205.133 L366.284,205.133 L366.284,186.978 Z" class="cls-16" />
    <text transform="translate(381 165) scale(0.32 0.32)" class="cls-22"><tspan class="cls-23">File</tspan></text>
    <text transform="translate(381 182) scale(0.32 0.32)" class="cls-22"><tspan class="cls-24">Directory</tspan></text>
    <text transform="translate(381 199) scale(0.32 0.32)" class="cls-22"><tspan class="cls-25">PHP File</tspan></text>
    <text transform="translate(381 216) scale(0.32 0.32)" class="cls-22"><tspan class="cls-24">PHP Class</tspan></text>
    <text transform="translate(381 232) scale(0.32 0.32)" class="cls-22"><tspan class="cls-26">HTML File</tspan></text>
    <text transform="translate(381 250) scale(0.32 0.32)" class="cls-22"><tspan class="cls-26">Stylesheet</tspan></text>
    <text transform="translate(381 266) scale(0.32 0.32)" class="cls-22"><tspan class="cls-26">JavaScript File</tspan></text>
    <path d="M513.428,220.627 L513.428,221.106 L366.542,221.106 L366.542,220.627 L513.428,220.627 Z" class="cls-20" />
    <text transform="translate(381 284) scale(0.32 0.32)" class="cls-22"><tspan class="cls-26">TypeScript File</tspan></text>
    <text transform="translate(381 301) scale(0.32 0.32)" class="cls-22"><tspan class="cls-26">tsconfig.json File</tspan></text>
    <text transform="translate(381 317) scale(0.32 0.32)" class="cls-22"><tspan class="cls-24">package.json File</tspan></text>
    <text transform="translate(381 333) scale(0.32 0.32)" class="cls-22"><tspan class="cls-26">CoffeeScript File</tspan></text>
    <text transform="translate(381 351) scale(0.32 0.32)" class="cls-22"><tspan class="cls-26">XSLT Stylesheet</tspan></text>
    <text transform="translate(381 368) scale(0.32 0.32)" class="cls-22"><tspan class="cls-26">Edit File Templates...</tspan></text>
    <text transform="translate(381 386) scale(0.32 0.32)" class="cls-22"><tspan class="cls-26">Data Source</tspan></text>
    <text transform="translate(381 402) scale(0.32 0.32)" class="cls-22"><tspan class="cls-26">PHPUnit</tspan></text>
    <path d="M513.428,356.736 L513.428,357.215 L366.542,357.215 L366.542,356.736 L513.428,356.736 Z" class="cls-20" />
    <path d="M513.428,374.948 L513.428,375.427 L366.542,375.427 L366.542,374.948 L513.428,374.948 Z" class="cls-20" />
</svg>
