<?xml version="1.0" encoding="UTF-8" standalone="no" ?>
<svg xmlns="http://www.w3.org/2000/svg" xmlns:xlink="http://www.w3.org/1999/xlink" preserveAspectRatio="xMidYMid" width="850" height="540" viewBox="0 0 850 540">
    <defs>
        <style>
            .cls-1, .cls-11 {
                fill: #e8e8e8;
            }

            .cls-1 {
                stroke: #cacace;
            }

            .cls-1, .cls-18, .cls-25 {
                stroke-linejoin: round;
                stroke-width: 1px;
            }

            .cls-2, .cls-23, .cls-29, .cls-3 {
                fill: #fff;
            }

            .cls-14, .cls-16, .cls-17, .cls-18, .cls-2, .cls-24, .cls-25, .cls-26, .cls-30, .cls-9 {
                fill-rule: evenodd;
            }

            .cls-15, .cls-4, .cls-5, .cls-6, .cls-7, .cls-8 {
                font-size: 24px;
            }

            .cls-5 {
                fill: #4d4a55;
            }

            .cls-15, .cls-5, .cls-8 {
                font-family: "Myriad Pro";
            }

            .cls-6 {
                fill: #286cc8;
            }

            .cls-6, .cls-7 {
                font-family: "Courier New";
            }

            .cls-7 {
                fill: #3bab2c;
            }

            .cls-8, .cls-9 {
                fill: #a0a0a0;
            }

            .cls-10 {
                fill: #c5cede;
            }

            .cls-12, .cls-13 {
                font-size: 23px;
            }

            .cls-13 {
                fill: #bebdbd;
            }

            .cls-13, .cls-21, .cls-22, .cls-23, .cls-28, .cls-29 {
                font-family: "Open Sans";
            }

            .cls-14 {
                fill: #bd9662;
            }

            .cls-15 {
                fill: #d3d3d6;
            }

            .cls-16 {
                fill: #919191;
            }

            .cls-17 {
                fill: #acacac;
            }

            .cls-18, .cls-25 {
                fill: #f6f6f6;
                stroke: #d1d2de;
            }

            .cls-19, .cls-26 {
                fill: #007acc;
            }

            .cls-20, .cls-21, .cls-22, .cls-23 {
                font-size: 35.857px;
            }

            .cls-21 {
                fill: #cdcdd1;
            }

            .cls-22 {
                fill: #d2d2d2;
            }

            .cls-24, .cls-28 {
                fill: #cacace;
            }

            .cls-25 {
                filter: url(#drop-shadow-1);
            }

            .cls-27, .cls-28, .cls-29 {
                font-size: 32.869px;
            }

            .cls-30 {
                fill: #454545;
            }
        </style>

        <filter id="drop-shadow-1" filterUnits="userSpaceOnUse">
            <feOffset dx="2.487" dy="1.678" in="SourceAlpha" />
            <feGaussianBlur stdDeviation="2" result="dropBlur" />
            <feFlood flood-opacity="0.27" />
            <feComposite operator="in" in2="dropBlur" result="dropShadowComp" />
            <feComposite in="SourceGraphic" result="shadowed" />
        </filter>
    </defs>
    <rect width="850" height="540" class="cls-1" />
    <path d="M403.000,33.000 L499.000,33.000 L499.000,60.000 L849.000,60.000 L849.000,64.000 L403.000,64.000 L403.000,33.000 Z" class="cls-2" />
    <rect x="457" y="65" width="392" height="474" class="cls-3" />
    <text transform="translate(412 53) scale(0.5 0.5)" class="cls-4"><tspan class="cls-5">BokuDirectPa...</tspan></text>
    <text transform="translate(471 88) scale(0.5 0.5)" class="cls-4"><tspan class="cls-6">&lt;?php</tspan></text>
    <text transform="translate(471 110) scale(0.5 0.5)" class="cls-4"><tspan class="cls-6">require_once </tspan></text>
    <text transform="translate(576 110) scale(0.5 0.5)" class="cls-4"><tspan class="cls-7">"../vendor/autoload.php";</tspan></text>
    <text transform="translate(412 87) scale(0.5 0.5)" class="cls-4"><tspan class="cls-8">1</tspan></text>
    <text transform="translate(412 111) scale(0.5 0.5)" class="cls-4"><tspan class="cls-8">2</tspan></text>
    <text transform="translate(412 136) scale(0.5 0.5)" class="cls-4"><tspan class="cls-8">3</tspan></text>
    <path d="M494.853,47.901 L492.753,49.998 L494.853,52.096 L494.853,52.096 C494.949,52.192 495.008,52.324 495.008,52.470 C495.008,52.763 494.771,53.000 494.478,53.000 C494.331,53.000 494.199,52.941 494.103,52.845 L494.103,52.845 L492.002,50.747 L489.902,52.845 L489.902,52.845 C489.806,52.941 489.673,53.000 489.527,53.000 C489.234,53.000 488.996,52.763 488.996,52.470 C488.996,52.324 489.055,52.192 489.151,52.096 L489.151,52.096 L491.252,49.998 L489.151,47.901 L489.151,47.901 C489.055,47.805 488.996,47.673 488.996,47.527 C488.996,47.234 489.234,46.997 489.527,46.997 C489.673,46.997 489.806,47.056 489.902,47.152 L489.902,47.152 L492.002,49.249 L494.103,47.152 L494.103,47.152 C494.199,47.056 494.331,46.997 494.478,46.997 C494.771,46.997 495.008,47.234 495.008,47.527 C495.008,47.673 494.949,47.805 494.853,47.901 L494.853,47.901 Z" class="cls-9" />
    <path d="M0.000,65.000 L0.000,64.000 L851.000,64.000 L851.000,65.000 L0.000,65.000 Z" class="cls-9" />
    <path d="M456.000,64.000 L457.000,64.000 L457.000,539.000 L456.000,539.000 L456.000,64.000 Z" class="cls-9" />
    <path d="M499.000,33.000 L500.000,33.000 L500.000,60.000 L499.000,60.000 L499.000,33.000 Z" class="cls-9" />
    <path d="M849.000,59.000 L849.000,60.000 L499.000,60.000 L499.000,59.000 L849.000,59.000 Z" class="cls-9" />
    <rect x="1" y="94" width="401" height="445" class="cls-3" />
    <rect x="1" y="65" width="401" height="28" class="cls-10" />
    <rect x="1" y="136" width="401" height="26" class="cls-11" />
    <text transform="translate(31 53) scale(0.5 0.5)" class="cls-4"><tspan class="cls-5">BokuDirectPa...</tspan></text>
    <text transform="translate(39 83) scale(0.5 0.5)" class="cls-4"><tspan class="cls-5">project</tspan></text>
    <path d="M97.694,83.000 L94.771,77.937 L100.617,77.937 L97.694,83.000 Z" class="cls-9" />
    <path d="M10.694,111.000 L7.771,105.937 L13.617,105.937 L10.694,111.000 Z" class="cls-9" />
    <path d="M36.000,129.009 L31.000,132.010 L31.000,126.008 L36.000,129.009 Z" class="cls-9" />
    <text transform="translate(195 22) scale(0.5 0.5)" class="cls-12"><tspan class="cls-13">Code</tspan></text>
    <text transform="translate(11 22) scale(0.5 0.5)" class="cls-12"><tspan class="cls-13">File</tspan></text>
    <text transform="translate(395 22) scale(0.5 0.5)" class="cls-12"><tspan class="cls-13">VCS</tspan></text>
    <text transform="translate(434 22) scale(0.5 0.5)" class="cls-12"><tspan class="cls-13">Window</tspan></text>
    <text transform="translate(497 22) scale(0.5 0.5)" class="cls-12"><tspan class="cls-13">Help</tspan></text>
    <text transform="translate(351 22) scale(0.5 0.5)" class="cls-12"><tspan class="cls-13">Tools</tspan></text>
    <text transform="translate(307 22) scale(0.5 0.5)" class="cls-12"><tspan class="cls-13">Run</tspan></text>
    <text transform="translate(44 22) scale(0.5 0.5)" class="cls-12"><tspan class="cls-13">Edit</tspan></text>
    <text transform="translate(82 22) scale(0.5 0.5)" class="cls-12"><tspan class="cls-13">View</tspan></text>
    <text transform="translate(128 22) scale(0.5 0.5)" class="cls-12"><tspan class="cls-13">Navigate</tspan></text>
    <text transform="translate(241 22) scale(0.5 0.5)" class="cls-12"><tspan class="cls-13">Refactor</tspan></text>
    <path d="M26.000,54.000 L12.000,54.000 L12.000,42.000 L18.000,42.000 L20.000,44.000 L26.000,44.000 L26.000,54.000 Z" class="cls-14" />
    <rect x="14" y="46" width="10" height="6" class="cls-11" />
    <text transform="translate(146 53) scale(0.5 0.5)" class="cls-4"><tspan class="cls-5">test</tspan></text>
    <text transform="translate(198 53) scale(0.5 0.5)" class="cls-4"><tspan class="cls-5">testSDK.php</tspan></text>
    <path d="M141.000,54.000 L127.000,54.000 L127.000,42.000 L133.000,42.000 L135.000,44.000 L141.000,44.000 L141.000,54.000 Z" class="cls-14" />
    <rect x="129" y="46" width="10" height="6" class="cls-11" />
    <text transform="translate(39 113) scale(0.5 0.5)" class="cls-4"><tspan class="cls-5">BokuDirectPa...</tspan></text>
    <text transform="translate(120 113) scale(0.5 0.5)" class="cls-4"><tspan class="cls-15">C:\Users\Username\Desktop\BokuDirectPa...</tspan></text>
    <path d="M34.000,114.000 L20.000,114.000 L20.000,102.000 L26.000,102.000 L28.000,104.000 L34.000,104.000 L34.000,114.000 Z" class="cls-14" />
    <rect x="22" y="106" width="10" height="6" class="cls-11" />
    <text transform="translate(64 133) scale(0.5 0.5)" class="cls-4"><tspan class="cls-5">src</tspan></text>
    <path d="M59.000,135.000 L45.000,135.000 L45.000,123.000 L51.000,123.000 L53.000,125.000 L59.000,125.000 L59.000,135.000 Z" class="cls-14" />
    <rect x="47" y="127" width="10" height="6" class="cls-3" />
    <path d="M36.000,149.009 L31.000,152.010 L31.000,146.008 L36.000,149.009 Z" class="cls-9" />
    <text transform="translate(64 153) scale(0.5 0.5)" class="cls-4"><tspan class="cls-5">test</tspan></text>
    <text transform="translate(64 195) scale(0.5 0.5)" class="cls-4"><tspan class="cls-5">composer.json</tspan></text>
    <text transform="translate(64 215) scale(0.5 0.5)" class="cls-4"><tspan class="cls-5">composer.loc</tspan></text>
    <text transform="translate(64 238) scale(0.5 0.5)" class="cls-4"><tspan class="cls-5">LICENSE</tspan></text>
    <text transform="translate(64 258) scale(0.5 0.5)" class="cls-4"><tspan class="cls-5">README.md</tspan></text>
    <text transform="translate(44 279) scale(0.5 0.5)" class="cls-4"><tspan class="cls-5">External Libraries</tspan></text>
    <path d="M58.000,187.727 L58.000,200.000 L47.000,200.000 L47.000,185.000 L55.250,185.000 L58.000,187.727 Z" class="cls-16" />
    <path d="M56.625,189.091 L53.875,189.091 L53.875,186.364 L48.375,186.364 L48.375,198.636 L56.625,198.636 L56.625,189.091 Z" class="cls-2" />
    <path d="M58.000,207.727 L58.000,220.000 L47.000,220.000 L47.000,205.000 L55.250,205.000 L58.000,207.727 Z" class="cls-16" />
    <path d="M56.625,209.091 L53.875,209.091 L53.875,206.364 L48.375,206.364 L48.375,218.636 L56.625,218.636 L56.625,209.091 Z" class="cls-2" />
    <path d="M58.000,227.727 L58.000,240.000 L47.000,240.000 L47.000,225.000 L55.250,225.000 L58.000,227.727 Z" class="cls-16" />
    <path d="M56.625,229.091 L53.875,229.091 L53.875,226.364 L48.375,226.364 L48.375,238.636 L56.625,238.636 L56.625,229.091 Z" class="cls-2" />
    <path d="M58.000,247.727 L58.000,260.000 L47.000,260.000 L47.000,245.000 L55.250,245.000 L58.000,247.727 Z" class="cls-16" />
    <path d="M56.625,249.091 L53.875,249.091 L53.875,246.364 L48.375,246.364 L48.375,258.636 L56.625,258.636 L56.625,249.091 Z" class="cls-2" />
    <path d="M59.000,155.000 L45.000,155.000 L45.000,143.000 L51.000,143.000 L53.000,145.000 L59.000,145.000 L59.000,155.000 Z" class="cls-14" />
    <rect x="47" y="147" width="10" height="6" class="cls-11" />
    <path d="M36.000,171.009 L31.000,174.010 L31.000,168.008 L36.000,171.009 Z" class="cls-9" />
    <text transform="translate(64 175) scale(0.5 0.5)" class="cls-4"><tspan class="cls-5">vendor</tspan></text>
    <path d="M59.000,177.000 L45.000,177.000 L45.000,165.000 L51.000,165.000 L53.000,167.000 L59.000,167.000 L59.000,177.000 Z" class="cls-14" />
    <rect x="47" y="169" width="10" height="6" class="cls-3" />
    <path d="M0.000,33.000 L0.000,32.000 L851.000,32.000 L851.000,33.000 L0.000,33.000 Z" class="cls-9" />
    <path d="M0.000,65.000 L0.000,64.000 L851.000,64.000 L851.000,65.000 L0.000,65.000 Z" class="cls-9" />
    <path d="M0.000,94.000 L0.000,93.000 L402.000,93.000 L402.000,94.000 L0.000,94.000 Z" class="cls-9" />
    <path d="M402.000,64.000 L403.000,64.000 L403.000,539.000 L402.000,539.000 L402.000,64.000 Z" class="cls-17" />
    <path d="M112.553,37.224 L113.447,36.776 L119.447,48.776 L118.553,49.224 L112.553,37.224 Z" class="cls-9" />
    <path d="M179.553,37.224 L180.447,36.776 L186.447,48.776 L185.553,49.224 L179.553,37.224 Z" class="cls-9" />
    <path d="M118.578,48.732 L119.422,49.268 L112.422,60.268 L111.578,59.732 L118.578,48.732 Z" class="cls-9" />
    <path d="M185.578,48.732 L186.422,49.268 L179.422,60.268 L178.578,59.732 L185.578,48.732 Z" class="cls-9" />
    <path d="M115.000,64.000 L116.000,64.000 L116.000,93.000 L115.000,93.000 L115.000,64.000 Z" class="cls-9" />
    <path d="M106.008,148.000 L369.741,148.000 L369.741,533.000 L106.605,533.000 " class="cls-18" />
    <rect x="106" y="343" width="264" height="20" class="cls-19" />
    <text transform="translate(143 187) scale(0.32 0.32)" class="cls-20"><tspan class="cls-21">Cut</tspan></text>
    <text transform="translate(143 168) scale(0.32 0.32)" class="cls-20"><tspan class="cls-22">New</tspan></text>
    <text transform="translate(143 205) scale(0.32 0.32)" class="cls-20"><tspan class="cls-21">Copy</tspan></text>
    <text transform="translate(143 223) scale(0.32 0.32)" class="cls-20"><tspan class="cls-21">Copy Path</tspan></text>
    <text transform="translate(143 243) scale(0.32 0.32)" class="cls-20"><tspan class="cls-21">Copy as Plain Text</tspan></text>
    <text transform="translate(143 261) scale(0.32 0.32)" class="cls-20"><tspan class="cls-21">Copy as Reference</tspan></text>
    <text transform="translate(143 280) scale(0.32 0.32)" class="cls-20"><tspan class="cls-21">Paste</tspan></text>
    <text transform="translate(143 300) scale(0.32 0.32)" class="cls-20"><tspan class="cls-21">Delete...</tspan></text>
    <text transform="translate(143 318) scale(0.32 0.32)" class="cls-20"><tspan class="cls-21">Mark as Plain Text</tspan></text>
    <text transform="translate(143 338) scale(0.32 0.32)" class="cls-20"><tspan class="cls-21">Add to ignore List of...</tspan></text>
    <text transform="translate(143 356) scale(0.32 0.32)" class="cls-20"><tspan class="cls-23">Run</tspan></text>
    <text transform="translate(143 374) scale(0.32 0.32)" class="cls-20"><tspan class="cls-21">Debug</tspan></text>
    <text transform="translate(143 394) scale(0.32 0.32)" class="cls-20"><tspan class="cls-21">Create Run Configuration</tspan></text>
    <text transform="translate(143 412) scale(0.32 0.32)" class="cls-20"><tspan class="cls-21">Open in Browser</tspan></text>
    <text transform="translate(143 431) scale(0.32 0.32)" class="cls-20"><tspan class="cls-21">Local History</tspan></text>
    <text transform="translate(143 451) scale(0.32 0.32)" class="cls-20"><tspan class="cls-21">Synchronize 'testSDK.php'</tspan></text>
    <text transform="translate(143 469) scale(0.32 0.32)" class="cls-20"><tspan class="cls-21">Show in Explorer</tspan></text>
    <text transform="translate(143 489) scale(0.32 0.32)" class="cls-20"><tspan class="cls-21">File Path</tspan></text>
    <text transform="translate(143 508) scale(0.32 0.32)" class="cls-20"><tspan class="cls-21">Compare with...</tspan></text>
    <text transform="translate(143 526) scale(0.32 0.32)" class="cls-20"><tspan class="cls-21">Create Gist...</tspan></text>
    <text transform="translate(143 564) scale(0.32 0.32)" class="cls-20"><tspan class="cls-21">Create Gist...</tspan></text>
    <path d="M367.854,285.610 L367.854,286.568 L109.804,286.568 L109.804,285.610 L367.854,285.610 Z" class="cls-24" />
    <path d="M367.854,379.255 L367.854,380.213 L109.804,380.213 L109.804,379.255 L367.854,379.255 Z" class="cls-24" />
    <g style="fill: #f6f6f6; filter: url(#drop-shadow-1)">
        <path d="M518.005,343.904 L518.005,381.333 L367.963,381.333 L367.963,344.001 L518.005,343.904 Z" id="path-1" style="stroke: inherit; filter: none; fill: inherit" class="cls-25" />
    </g>
    <use xlink:href="#path-1" style="stroke: #d1d2de; filter: none; fill: none" />
    <path d="M369.284,362.978 L517.059,362.978 L517.059,381.133 L369.284,381.133 L369.284,362.978 Z" class="cls-26" />
    <text transform="translate(384 358) scale(0.32 0.32)" class="cls-27"><tspan class="cls-28">testSDK.php</tspan></text>
    <text transform="translate(384 375) scale(0.32 0.32)" class="cls-27"><tspan class="cls-29">testSDK.php</tspan></text>
    <path d="M363.000,354.009 L358.000,357.010 L358.000,351.008 L363.000,354.009 Z" class="cls-2" />
    <path d="M363.000,371.009 L358.000,374.010 L358.000,368.008 L363.000,371.009 Z" class="cls-30" />
    <path d="M363.000,164.009 L358.000,167.010 L358.000,161.008 L363.000,164.009 Z" class="cls-30" />
    <path d="M363.000,391.009 L358.000,394.010 L358.000,388.008 L363.000,391.009 Z" class="cls-30" />
    <path d="M363.000,409.009 L358.000,412.010 L358.000,406.008 L363.000,409.009 Z" class="cls-30" />
    <path d="M363.000,428.009 L358.000,431.010 L358.000,425.008 L363.000,428.009 Z" class="cls-30" />
</svg>
