<?xml version="1.0" encoding="UTF-8" standalone="no" ?>
<svg xmlns="http://www.w3.org/2000/svg" xmlns:xlink="http://www.w3.org/1999/xlink" preserveAspectRatio="xMidYMid" width="850" height="540" viewBox="0 0 850 540">
    <defs>
        <style>
            .cls-1, .cls-12 {
                fill: #e8e8e8;
            }

            .cls-1 {
                stroke: #cacace;
            }

            .cls-1, .cls-15 {
                stroke-linejoin: round;
                stroke-width: 1px;
            }

            .cls-2 {
                fill: #007acc;
            }

            .cls-10, .cls-18, .cls-20, .cls-3 {
                fill: #fff;
            }

            .cls-4 {
                fill: #c5cede;
            }

            .cls-13, .cls-21, .cls-22, .cls-23, .cls-5, .cls-6 {
                font-size: 24px;
            }

            .cls-6 {
                fill: #4d4a55;
            }

            .cls-13, .cls-23, .cls-6 {
                font-family: "Myriad Pro";
            }

            .cls-23, .cls-7 {
                fill: #a0a0a0;
            }

            .cls-11, .cls-14, .cls-15, .cls-19, .cls-20, .cls-7 {
                fill-rule: evenodd;
            }

            .cls-10, .cls-8, .cls-9 {
                font-size: 23px;
            }

            .cls-9 {
                fill: #bebdbd;
            }

            .cls-10, .cls-17, .cls-18, .cls-9 {
                font-family: "Open Sans";
            }

            .cls-11 {
                fill: #bd9662;
            }

            .cls-13 {
                fill: #d3d3d6;
            }

            .cls-14 {
                fill: #acacac;
            }

            .cls-15 {
                fill: #f6f6f6;
                stroke: #d1d2de;
            }

            .cls-16, .cls-17, .cls-18 {
                font-size: 35.857px;
            }

            .cls-17 {
                fill: #cdcdd1;
            }

            .cls-19 {
                fill: #cacace;
            }

            .cls-21 {
                fill: #286cc8;
            }

            .cls-21, .cls-22 {
                font-family: "Courier New";
            }

            .cls-22 {
                fill: #3bab2c;
            }
        </style>
    </defs>
    <rect width="850" height="540" class="cls-1" />
    <rect x="1" y="1" width="36" height="31" class="cls-2" />
    <rect x="1.031" y="94" width="411.969" height="445" class="cls-3" />
    <rect x="1.031" y="65" width="411.969" height="28" class="cls-4" />
    <text transform="translate(31 53) scale(0.5 0.5)" class="cls-5"><tspan class="cls-6">BokuDirectPa...</tspan></text>
    <text transform="translate(39 83) scale(0.5 0.5)" class="cls-5"><tspan class="cls-6">project</tspan></text>
    <path d="M97.694,83.000 L94.771,77.937 L100.617,77.937 L97.694,83.000 Z" class="cls-7" />
    <path d="M10.694,111.000 L7.771,105.937 L13.617,105.937 L10.694,111.000 Z" class="cls-7" />
    <text transform="translate(195 22) scale(0.5 0.5)" class="cls-8"><tspan class="cls-9">Code</tspan></text>
    <text transform="translate(11 22) scale(0.5 0.5)" class="cls-8"><tspan class="cls-10">File</tspan></text>
    <text transform="translate(395 22) scale(0.5 0.5)" class="cls-8"><tspan class="cls-9">VCS</tspan></text>
    <text transform="translate(434 22) scale(0.5 0.5)" class="cls-8"><tspan class="cls-9">Window</tspan></text>
    <text transform="translate(497 22) scale(0.5 0.5)" class="cls-8"><tspan class="cls-9">Help</tspan></text>
    <text transform="translate(351 22) scale(0.5 0.5)" class="cls-8"><tspan class="cls-9">Tools</tspan></text>
    <text transform="translate(307 22) scale(0.5 0.5)" class="cls-8"><tspan class="cls-9">Run</tspan></text>
    <text transform="translate(44 22) scale(0.5 0.5)" class="cls-8"><tspan class="cls-9">Edit</tspan></text>
    <text transform="translate(82 22) scale(0.5 0.5)" class="cls-8"><tspan class="cls-9">View</tspan></text>
    <text transform="translate(128 22) scale(0.5 0.5)" class="cls-8"><tspan class="cls-9">Navigate</tspan></text>
    <text transform="translate(241 22) scale(0.5 0.5)" class="cls-8"><tspan class="cls-9">Refactor</tspan></text>
    <path d="M26.000,54.000 L12.000,54.000 L12.000,42.000 L18.000,42.000 L20.000,44.000 L26.000,44.000 L26.000,54.000 Z" class="cls-11" />
    <rect x="14" y="46" width="10" height="6" class="cls-12" />
    <text transform="translate(146 53) scale(0.5 0.5)" class="cls-5"><tspan class="cls-6">test</tspan></text>
    <path d="M141.000,54.000 L127.000,54.000 L127.000,42.000 L133.000,42.000 L135.000,44.000 L141.000,44.000 L141.000,54.000 Z" class="cls-11" />
    <rect x="129" y="46" width="10" height="6" class="cls-12" />
    <text transform="translate(39 113) scale(0.5 0.5)" class="cls-5"><tspan class="cls-6">BokuDirectPa...</tspan></text>
    <text transform="translate(120 113) scale(0.5 0.5)" class="cls-5"><tspan class="cls-13">C:\Users\Username\Desktop\BokuDirectPa...</tspan></text>
    <path d="M34.000,114.000 L20.000,114.000 L20.000,102.000 L26.000,102.000 L28.000,104.000 L34.000,104.000 L34.000,114.000 Z" class="cls-11" />
    <rect x="22" y="106" width="10" height="6" class="cls-12" />
    <path d="M-0.000,33.000 L-0.000,32.000 L849.009,32.000 L849.009,33.000 L-0.000,33.000 Z" class="cls-7" />
    <path d="M0.000,65.000 L0.000,64.000 L851.000,64.000 L851.000,65.000 L0.000,65.000 Z" class="cls-7" />
    <path d="M0.000,94.000 L0.000,93.000 L413.000,93.000 L413.000,94.000 L0.000,94.000 Z" class="cls-7" />
    <path d="M413.000,33.000 L414.000,33.000 L414.000,540.000 L413.000,540.000 L413.000,33.000 Z" class="cls-14" />
    <path d="M112.553,37.224 L113.447,36.776 L119.447,48.776 L118.553,49.224 L112.553,37.224 Z" class="cls-7" />
    <path d="M118.578,48.732 L119.422,49.268 L112.422,60.268 L111.578,59.732 L118.578,48.732 Z" class="cls-7" />
    <path d="M115.000,64.000 L116.000,64.000 L116.000,93.000 L115.000,93.000 L115.000,64.000 Z" class="cls-7" />
    <path d="M0.006,32.000 L200.993,32.000 L200.993,497.000 L0.461,497.000 " class="cls-15" />
    <rect y="188" width="201" height="22.5" class="cls-2" />
    <text transform="translate(37 71) scale(0.32 0.32)" class="cls-16"><tspan class="cls-17">New...</tspan></text>
    <text transform="translate(37 51) scale(0.32 0.32)" class="cls-16"><tspan class="cls-17">New Project...</tspan></text>
    <text transform="translate(37 89) scale(0.32 0.32)" class="cls-16"><tspan class="cls-17">Open Directory...</tspan></text>
    <text transform="translate(37 107) scale(0.32 0.32)" class="cls-16"><tspan class="cls-17">Open...</tspan></text>
    <text transform="translate(37 127) scale(0.32 0.32)" class="cls-16"><tspan class="cls-17">Open URL...</tspan></text>
    <text transform="translate(37 145) scale(0.32 0.32)" class="cls-16"><tspan class="cls-17">Save As..</tspan></text>
    <text transform="translate(37 164) scale(0.32 0.32)" class="cls-16"><tspan class="cls-17">Open Recent</tspan></text>
    <text transform="translate(37 184) scale(0.32 0.32)" class="cls-16"><tspan class="cls-17">Rename Project...</tspan></text>
    <text transform="translate(37 202) scale(0.32 0.32)" class="cls-16"><tspan class="cls-18">Settings...</tspan></text>
    <text transform="translate(37 222) scale(0.32 0.32)" class="cls-16"><tspan class="cls-17">Default Settings...</tspan></text>
    <text transform="translate(37 240) scale(0.32 0.32)" class="cls-16"><tspan class="cls-17">Import Settings...</tspan></text>
    <text transform="translate(37 258) scale(0.32 0.32)" class="cls-16"><tspan class="cls-17">Export Settings...</tspan></text>
    <text transform="translate(37 278) scale(0.32 0.32)" class="cls-16"><tspan class="cls-17">Setting Repository...</tspan></text>
    <text transform="translate(37 296) scale(0.32 0.32)" class="cls-16"><tspan class="cls-17">Save All</tspan></text>
    <text transform="translate(37 315) scale(0.32 0.32)" class="cls-16"><tspan class="cls-17">Synchronize</tspan></text>
    <text transform="translate(37 335) scale(0.32 0.32)" class="cls-16"><tspan class="cls-17">Invalidate Caches/ Restart...</tspan></text>
    <text transform="translate(37 353) scale(0.32 0.32)" class="cls-16"><tspan class="cls-17">Print...</tspan></text>
    <text transform="translate(37 373) scale(0.32 0.32)" class="cls-16"><tspan class="cls-17">Add to Favorites</tspan></text>
    <text transform="translate(37 392) scale(0.32 0.32)" class="cls-16"><tspan class="cls-17">File Encoding</tspan></text>
    <text transform="translate(37 410) scale(0.32 0.32)" class="cls-16"><tspan class="cls-17">Line Separators</tspan></text>
    <text transform="translate(37 430) scale(0.32 0.32)" class="cls-16"><tspan class="cls-17">Make Directory Read-only</tspan></text>
    <text transform="translate(37 450) scale(0.32 0.32)" class="cls-16"><tspan class="cls-17">Remove BOM</tspan></text>
    <text transform="translate(37 469) scale(0.32 0.32)" class="cls-16"><tspan class="cls-17">Power Save Mode</tspan></text>
    <text transform="translate(37 487) scale(0.32 0.32)" class="cls-16"><tspan class="cls-17">Exit</tspan></text>
    <path d="M199.555,169.610 L199.555,170.568 L2.899,170.568 L2.899,169.610 L199.555,169.610 Z" class="cls-19" />
    <path d="M199.555,245.099 L199.555,246.057 L2.899,246.057 L2.899,245.099 L199.555,245.099 Z" class="cls-19" />
    <path d="M199.555,263.255 L199.555,264.213 L2.899,264.213 L2.899,263.255 L199.555,263.255 Z" class="cls-19" />
    <path d="M414.059,33.000 L509.608,33.000 L509.608,60.000 L849.019,60.000 L849.019,64.000 L414.059,64.000 L414.059,33.000 Z" class="cls-20" />
    <rect x="468" y="65" width="381" height="474" class="cls-3" />
    <text transform="translate(423 53) scale(0.5 0.5)" class="cls-5"><tspan class="cls-6">testSDK.php</tspan></text>
    <text transform="translate(482 88) scale(0.5 0.5)" class="cls-5"><tspan class="cls-21">&lt;?php</tspan></text>
    <text transform="translate(482 110) scale(0.5 0.5)" class="cls-5"><tspan class="cls-21">require_once </tspan></text>
    <text transform="translate(587 110) scale(0.5 0.5)" class="cls-5"><tspan class="cls-22">"../vendor/autoload.php";</tspan></text>
    <text transform="translate(423 87) scale(0.5 0.5)" class="cls-5"><tspan class="cls-23">1</tspan></text>
    <text transform="translate(423 111) scale(0.5 0.5)" class="cls-5"><tspan class="cls-23">2</tspan></text>
    <text transform="translate(423 136) scale(0.5 0.5)" class="cls-5"><tspan class="cls-23">3</tspan></text>
    <path d="M505.853,47.901 L503.753,49.998 L505.853,52.096 L505.853,52.096 C505.949,52.192 506.008,52.324 506.008,52.470 C506.008,52.763 505.771,53.000 505.478,53.000 C505.331,53.000 505.199,52.941 505.103,52.845 L505.103,52.845 L503.002,50.747 L500.902,52.845 L500.902,52.845 C500.806,52.941 500.673,53.000 500.527,53.000 C500.234,53.000 499.996,52.763 499.996,52.470 C499.996,52.324 500.055,52.192 500.151,52.096 L500.151,52.096 L502.252,49.998 L500.151,47.901 L500.151,47.901 C500.055,47.805 499.996,47.673 499.996,47.527 C499.996,47.234 500.234,46.997 500.527,46.997 C500.673,46.997 500.806,47.056 500.902,47.152 L500.902,47.152 L503.002,49.249 L505.103,47.152 L505.103,47.152 C505.199,47.056 505.331,46.997 505.478,46.997 C505.771,46.997 506.008,47.234 506.008,47.527 C506.008,47.673 505.949,47.805 505.853,47.901 L505.853,47.901 Z" class="cls-7" />
    <path d="M467.000,64.000 L468.000,64.000 L468.000,539.000 L467.000,539.000 L467.000,64.000 Z" class="cls-7" />
    <path d="M510.000,33.000 L511.000,33.000 L511.000,60.000 L510.000,60.000 L510.000,33.000 Z" class="cls-7" />
    <path d="M849.000,59.000 L849.000,60.000 L510.608,60.000 L510.608,59.000 L849.000,59.000 Z" class="cls-7" />
</svg>
