<?xml version="1.0" encoding="UTF-8" standalone="no" ?>
<svg xmlns="http://www.w3.org/2000/svg" xmlns:xlink="http://www.w3.org/1999/xlink" preserveAspectRatio="xMidYMid" width="660" height="268" viewBox="0 0 660 268">
    <defs>
        <style>
            .cls-1, .cls-5 {
            fill: #101010;
            }

            .cls-1 {
            stroke: #c5c5c5;
            stroke-linejoin: round;
            stroke-width: 1px;
            }

            .cls-2, .cls-7, .cls-9 {
            fill: #fff;
            }

            .cls-3 {
            fill: #3a3935;
            fill-rule: evenodd;
            }

            .cls-4, .cls-5 {
            font-size: 16px;
            }

            .cls-5 {
            font-family: "Myriad Pro";
            }

            .cls-6, .cls-7, .cls-8, .cls-9 {
            font-size: 13.333px;
            }

            .cls-7, .cls-8, .cls-9 {
            font-family: "Courier New";
            }

            .cls-10, .cls-8 {
            fill: green;
            }

            .cls-11 {
            fill: #a5aa18;
            }
        </style>
    </defs>
    <rect width="660" height="268" class="cls-1" />
    <rect x="1" y="1" width="658" height="29" class="cls-2" />
    <path d="M590.242,15.293 L586.359,15.293 L584.988,15.293 L581.105,15.293 C580.726,15.293 580.419,15.028 580.419,14.701 C580.419,14.374 580.726,14.109 581.105,14.109 L584.988,14.109 L586.359,14.109 L590.242,14.109 C590.621,14.109 590.927,14.374 590.927,14.701 C590.927,15.028 590.621,15.293 590.242,15.293 Z" class="cls-3" />
    <path d="M651.582,11.806 L648.726,14.701 L651.582,17.596 L651.582,17.596 C651.712,17.728 651.793,17.911 651.793,18.113 C651.793,18.516 651.470,18.844 651.072,18.844 C650.872,18.844 650.692,18.762 650.562,18.629 L650.562,18.629 L647.706,15.735 L644.851,18.629 L644.851,18.629 C644.720,18.762 644.540,18.844 644.341,18.844 C643.943,18.844 643.620,18.516 643.620,18.113 C643.620,17.911 643.700,17.728 643.831,17.596 L643.831,17.596 L646.686,14.701 L643.831,11.806 L643.831,11.806 C643.700,11.674 643.620,11.491 643.620,11.289 C643.620,10.885 643.943,10.558 644.341,10.558 C644.540,10.558 644.720,10.640 644.851,10.772 L644.851,10.772 L647.706,13.667 L650.562,10.772 L650.562,10.772 C650.692,10.640 650.872,10.558 651.072,10.558 C651.470,10.558 651.793,10.885 651.793,11.289 C651.793,11.491 651.712,11.674 651.582,11.806 L651.582,11.806 Z" class="cls-3" />
    <path d="M620.393,18.844 L612.986,18.844 C612.775,18.844 612.603,18.670 612.603,18.455 L612.603,10.947 C612.603,10.732 612.775,10.558 612.986,10.558 L620.393,10.558 C620.605,10.558 620.776,10.732 620.776,10.947 L620.776,18.455 C620.776,18.670 620.605,18.844 620.393,18.844 ZM620.010,11.335 L613.369,11.335 L613.369,18.067 L620.010,18.067 L620.010,11.335 Z" class="cls-3" />
    <text x="10" y="20" class="cls-4"><tspan class="cls-5">C:\WINDOWS\system32\cmd.exe</tspan></text>
    <text x="11" y="57" class="cls-6"><tspan class="cls-7">C:\Users\UserName\Desktop\BokuDirectPaymentsAPI&gt;composer install</tspan></text>
    <text x="11" y="241" class="cls-6"><tspan class="cls-7">C:\Users\UserName\Desktop\BokuDirectPaymentsAPI&gt;</tspan></text>
    <text x="11" y="76" class="cls-6"><tspan class="cls-8">Loading composer repositories with package information</tspan></text>
    <text x="11" y="92" class="cls-6"><tspan class="cls-8">Loading dependencies (including require-dev)</tspan></text>
    <text x="11" y="196" class="cls-6"><tspan class="cls-8">Writing lock file</tspan></text>
    <text x="11" y="212" class="cls-6"><tspan class="cls-8">Generating autoload files</tspan></text>
    <text x="11" y="111" class="cls-6"><tspan class="cls-6"><tspan class="cls-9">- Installing<tspan class="cls-10"> mashape/unirest-php </tspan>(<tspan class="cls-11">v3.0.4</tspan>)</tspan></tspan></text>
    <text x="29" y="125" class="cls-6"><tspan class="cls-7">Loading from cache</tspan></text>
    <text x="11" y="154" class="cls-6"><tspan class="cls-6"><tspan class="cls-9">- Installing<tspan class="cls-10"> apimatic/jsonmapper </tspan>(<tspan class="cls-11">v1.0.1</tspan>)</tspan></tspan></text>
    <text x="29" y="168" class="cls-6"><tspan class="cls-7">Loading from cache</tspan></text>
</svg>
